{
.appVersion = "1357";
DisplayStrings = (
"Ac\012Ad\012Ae\012Ag\012Ao\012Aq\012As\012At\012Au\012Av\012Aw\012Ay\012Bv\012Bw\012Bx\012By\012Bz\012Ca\012Cc\012Cd\012Ce\012Co\012Cv\012Cw\012Cy\012Ev\012Ew\012Ex\012Ey\012Ez\012Fa\012Fc\012Fd\012Fe\012Ff\012Fg\012Fm\012Fn\012Fo\012Fq\012Fs\012Ft\012Fu\012Fv\012Fw\012Fx\012Fy\012Fz\012Ja\012Jc\012Jd\012Je\012Jg\012Jo\012Jq\012Ka\012Kc\012Kd\012Ke\012Kg\012Ko\012Kq\012Ks\012Kt\012Ku\012Kv\012Kw\012Ky\012Lc\012Ld\012Le\012Lg\012Lf\012Lo\012Lq\012Lt\012Lu\012Lv\012Lw\012Lx\012Pa\012Pc\012Pd\012Pe\012Pg\012Po\012Pq\012Ps\012Pt\012Pu\012Pv\012Pw\012Px\012Py\012Pz\012Qj\012Ra\012Rc\012Rd\012Re\012Rg\012Ro\012Rq\012Rt\012Ru\012Rv\012Rw\012Rx\012Ry\012Sv\012Sw\012Sx\012Sy\012Ta\012Tc\012Td\012Te\012Tg\012Tn\012To\012Tq\012Ts\012Tu\012Tv\012Tw\012Tx\012Ty\012Tz\012Ua\012Uc\012Ud\012Ue\012Ug\012Uo\012Uq\012Uv\012Uw\012Ux\012Uy\012Uz\012Va\012Vc\012Vd\012Ve\012Vg\012Vn\012Vo\012Vp\012Vq\012Vr\012Vs\012Vu\012Vv\012Vw\012Vx\012Vy\012Vz\012Wa\012Wc\012Wd\012We\012Wg\012Wn\012Wo\012Wp\012Wq\012Wr\012Ws\012Wu\012Wv\012Ww\012Wx\012Wy\012Wz\012Xc\012Xd\012Xe\012Xg\012Xo\012Xq\012Xu\012Xv\012Xw\012Xy\012Ya\012Yc\012Yd\012Ye\012Yg\012Yn\012Yo\012Yq\012Ys\012Yt\012Yu\012Yv\012Yw\012Yx\012Yy\012Yz\012Zv\012Zw\012Zy\012",

glyphs = (
{
glyphname = .notdef;
lastChange = "2021-11-18 16:34:35 +0000";
layers = (
{
background = {
paths = (
{
closed = 1;
nodes = (
"447 49 LINE",
"447 577 LINE",
"112 577 LINE",
"112 49 LINE"
);
},
{
closed = 1;
nodes = (
"164 150 LINE",
"254 316 LINE",
"164 479 LINE",
"183 514 LINE",
"273 350 LINE",
"364 514 LINE",
"383 479 LINE",
"293 314 LINE",
"383 150 LINE",
"364 116 LINE",
"273 279 LINE",
"183 116 LINE"
);
},
{
closed = 1;
nodes = (
"489 0 LINE",
"498 8 LINE",
"498 621 LINE",
"489 630 LINE",
"68 630 LINE",
"60 620 LINE",
"60 9 LINE",
"68 0 LINE"
);
},
{
closed = 1;
nodes = (
"77 16 LINE",
"77 613 LINE",
"481 613 LINE",
"481 16 LINE"
);
}
);
};
layerId = "197ECFA8-A16D-41AC-99D0-22A54F6A6421";
paths = (
{
closed = 1;
nodes = (
"489 0 LINE",
"498 8 LINE",
"498 621 LINE",
"489 630 LINE",
"68 630 LINE",
"60 620 LINE",
"60 9 LINE",
"68 0 LINE"
);
},
{
closed = 1;
nodes = (
"164 150 LINE",
"254 316 LINE",
"164 479 LINE",
"183 514 LINE",
"273 350 LINE",
"364 514 LINE",
"383 479 LINE",
"293 314 LINE",
"383 150 LINE",
"364 116 LINE",
"273 279 LINE",
"183 116 LINE"
);
},
{
closed = 1;
nodes = (
"77 613 LINE",
"481 613 LINE",
"481 16 LINE",
"77 16 LINE"
);
},
{
closed = 1;
nodes = (
"112 49 LINE",
"447 49 LINE",
"447 577 LINE",
"112 577 LINE"
);
}
);
width = 558;
}
);
note = .notdef;
},
{
glyphname = A;
lastChange = "2021-11-19 13:14:16 +0000";
layers = (
{
anchors = (
{
name = bottom;
position = "{418, 0}";
},
{
name = ogonek;
position = "{729, -2}";
},
{
name = top;
position = "{450, 744}";
}
);
background = {
paths = (
{
closed = 1;
nodes = (
"457 204 OFFCURVE",
"385 192 OFFCURVE",
"324 178 CURVE",
"341 208 OFFCURVE",
"357 238 OFFCURVE",
"372 268 CURVE SMOOTH",
"399 322 OFFCURVE",
"459 456 OFFCURVE",
"483 568 CURVE",
"496 417 OFFCURVE",
"500 176 OFFCURVE",
"567 69 CURVE SMOOTH",
"601 14 OFFCURVE",
"652 -47 OFFCURVE",
"732 17 CURVE SMOOTH",
"747 28 OFFCURVE",
"786 73 OFFCURVE",
"795 100 CURVE SMOOTH",
"797 109 OFFCURVE",
"786 129 OFFCURVE",
"775 105 CURVE SMOOTH",
"759 70 OFFCURVE",
"740 37 OFFCURVE",
"719 20 CURVE SMOOTH",
"668 -21 OFFCURVE",
"632 38 OFFCURVE",
"619 59 CURVE SMOOTH",
"540 186 OFFCURVE",
"517 489 OFFCURVE",
"498 595 CURVE SMOOTH",
"497 603 OFFCURVE",
"494 609 OFFCURVE",
"490 612 CURVE",
"499 692 OFFCURVE",
"482 752 OFFCURVE",
"406 745 CURVE SMOOTH",
"393 744 OFFCURVE",
"392 732 OFFCURVE",
"405 733 CURVE SMOOTH",
"542 742 OFFCURVE",
"369 336 OFFCURVE",
"345 284 CURVE SMOOTH",
"328 247 OFFCURVE",
"309 209 OFFCURVE",
"289 171 CURVE",
"231 156 OFFCURVE",
"158 132 OFFCURVE",
"108 101 CURVE SMOOTH",
"-24 22 OFFCURVE",
"-26 -54 OFFCURVE",
"37 -98 CURVE SMOOTH",
"47 -105 OFFCURVE",
"73 -119 OFFCURVE",
"86 -123 CURVE",
"34 -176 OFFCURVE",
"-19 -210 OFFCURVE",
"-69 -214 CURVE SMOOTH",
"-95 -217 OFFCURVE",
"-108 -208 OFFCURVE",
"-106 -170 CURVE",
"-110 -173 OFFCURVE",
"-113 -183 OFFCURVE",
"-113 -187 CURVE",
"-118 -220 OFFCURVE",
"-100 -231 OFFCURVE",
"-70 -229 CURVE SMOOTH",
"-15 -224 OFFCURVE",
"45 -186 OFFCURVE",
"104 -129 CURVE",
"135 -138 OFFCURVE",
"171 -143 OFFCURVE",
"209 -142 CURVE SMOOTH",
"223 -142 OFFCURVE",
"226 -131 OFFCURVE",
"211 -132 CURVE SMOOTH",
"172 -132 OFFCURVE",
"139 -128 OFFCURVE",
"114 -120 CURVE",
"188 -47 OFFCURVE",
"248 51 OFFCURVE",
"310 156 CURVE",
"368 172 OFFCURVE",
"439 186 OFFCURVE",
"497 197 CURVE SMOOTH",
"512 200 OFFCURVE",
"523 218 OFFCURVE",
"508 215 CURVE SMOOTH"
);
},
{
closed = 1;
nodes = (
"221 46 OFFCURVE",
"160 -46 OFFCURVE",
"96 -113 CURVE",
"84 -107 OFFCURVE",
"62 -89 OFFCURVE",
"55 -81 CURVE",
"31 -47 OFFCURVE",
"23 -5 OFFCURVE",
"74 39 CURVE SMOOTH",
"104 65 OFFCURVE",
"187 106 OFFCURVE",
"221 123 CURVE SMOOTH",
"238 132 OFFCURVE",
"257 138 OFFCURVE",
"275 144 CURVE"
);
}
);
};
layerId = "197ECFA8-A16D-41AC-99D0-22A54F6A6421";
paths = (
{
closed = 1;
nodes = (
"-15 -224 OFFCURVE",
"45 -186 OFFCURVE",
"104 -129 CURVE",
"135 -138 OFFCURVE",
"171 -143 OFFCURVE",
"209 -142 CURVE SMOOTH",
"216 -142 OFFCURVE",
"221 -139 OFFCURVE",
"221 -136 CURVE SMOOTH",
"221 -134 OFFCURVE",
"219 -132 OFFCURVE",
"213 -132 CURVE SMOOTH",
"211 -132 LINE SMOOTH",
"172 -132 OFFCURVE",
"139 -128 OFFCURVE",
"114 -120 CURVE",
"188 -47 OFFCURVE",
"248 51 OFFCURVE",
"310 156 CURVE",
"368 172 OFFCURVE",
"439 186 OFFCURVE",
"497 197 CURVE SMOOTH",
"507 199 OFFCURVE",
"515 208 OFFCURVE",
"515 212 CURVE SMOOTH",
"515 214 OFFCURVE",
"514 215 OFFCURVE",
"511 215 CURVE SMOOTH",
"508 215 LINE",
"457 204 OFFCURVE",
"385 192 OFFCURVE",
"324 178 CURVE",
"341 208 OFFCURVE",
"357 238 OFFCURVE",
"372 268 CURVE SMOOTH",
"399 322 OFFCURVE",
"459 456 OFFCURVE",
"483 568 CURVE",
"496 417 OFFCURVE",
"500 176 OFFCURVE",
"567 69 CURVE SMOOTH",
"591 31 OFFCURVE",
"623 -10 OFFCURVE",
"667 -10 CURVE SMOOTH",
"686 -10 OFFCURVE",
"708 -2 OFFCURVE",
"732 17 CURVE SMOOTH",
"747 28 OFFCURVE",
"786 73 OFFCURVE",
"795 100 CURVE",
"796 106 OFFCURVE",
"792 116 OFFCURVE",
"786 116 CURVE SMOOTH",
"783 116 OFFCURVE",
"779 113 OFFCURVE",
"775 105 CURVE SMOOTH",
"759 70 OFFCURVE",
"740 37 OFFCURVE",
"719 20 CURVE SMOOTH",
"706 10 OFFCURVE",
"695 6 OFFCURVE",
"684 6 CURVE SMOOTH",
"652 6 OFFCURVE",
"629 43 OFFCURVE",
"619 59 CURVE SMOOTH",
"540 186 OFFCURVE",
"517 489 OFFCURVE",
"498 595 CURVE SMOOTH",
"497 603 OFFCURVE",
"494 609 OFFCURVE",
"490 612 CURVE",
"491 625 OFFCURVE",
"492 637 OFFCURVE",
"492 648 CURVE SMOOTH",
"492 709 OFFCURVE",
"470 751 OFFCURVE",
"406 745 CURVE SMOOTH",
"400 744 OFFCURVE",
"396 741 OFFCURVE",
"396 738 CURVE SMOOTH",
"396 735 OFFCURVE",
"398 733 OFFCURVE",
"404 733 CURVE SMOOTH",
"405 733 LINE SMOOTH",
"443 733 OFFCURVE",
"457 706 OFFCURVE",
"457 661 CURVE SMOOTH",
"457 543 OFFCURVE",
"362 322 OFFCURVE",
"345 284 CURVE SMOOTH",
"328 247 OFFCURVE",
"309 209 OFFCURVE",
"289 171 CURVE",
"231 156 OFFCURVE",
"158 132 OFFCURVE",
"108 101 CURVE SMOOTH",
"29 54 OFFCURVE",
"-3 8 OFFCURVE",
"-3 -31 CURVE SMOOTH",
"-3 -57 OFFCURVE",
"12 -80 OFFCURVE",
"37 -98 CURVE SMOOTH",
"47 -105 OFFCURVE",
"73 -119 OFFCURVE",
"86 -123 CURVE",
"31 -179 OFFCURVE",
"-25 -215 OFFCURVE",
"-77 -215 CURVE SMOOTH",
"-98 -215 OFFCURVE",
"-108 -204 OFFCURVE",
"-106 -170 CURVE",
"-110 -173 OFFCURVE",
"-113 -183 OFFCURVE",
"-113 -187 CURVE",
"-118 -220 OFFCURVE",
"-100 -231 OFFCURVE",
"-70 -229 CURVE SMOOTH"
);
},
{
closed = 1;
nodes = (
"84 -107 OFFCURVE",
"62 -89 OFFCURVE",
"55 -81 CURVE SMOOTH",
"44 -65 OFFCURVE",
"36 -48 OFFCURVE",
"36 -29 CURVE SMOOTH",
"36 -8 OFFCURVE",
"47 15 OFFCURVE",
"74 39 CURVE SMOOTH",
"104 65 OFFCURVE",
"187 106 OFFCURVE",
"221 123 CURVE SMOOTH",
"238 132 OFFCURVE",
"257 138 OFFCURVE",
"275 144 CURVE",
"221 46 OFFCURVE",
"160 -46 OFFCURVE",
"96 -113 CURVE"
);
}
);
width = 754;
}
);
note = A;
unicode = 0041;
},
{
glyphname = AE;
lastChange = "2021-11-19 13:14:25 +0000";
layers = (
{
anchors = (
{
name = bottom;
position = "{561, 0}";
},
{
name = top;
position = "{703, 735}";
}
);
background = {
paths = (
{
closed = 1;
nodes = (
"221 46 OFFCURVE",
"160 -46 OFFCURVE",
"96 -113 CURVE",
"84 -107 OFFCURVE",
"62 -89 OFFCURVE",
"55 -81 CURVE",
"31 -47 OFFCURVE",
"23 -5 OFFCURVE",
"74 39 CURVE SMOOTH",
"104 65 OFFCURVE",
"187 106 OFFCURVE",
"221 123 CURVE SMOOTH",
"238 132 OFFCURVE",
"257 138 OFFCURVE",
"275 144 CURVE"
);
},
{
closed = 1;
nodes = (
"544 287 LINE",
"545 287 LINE",
"545 286 LINE"
);
},
{
closed = 1;
nodes = (
"457 204 OFFCURVE",
"385 192 OFFCURVE",
"324 178 CURVE",
"341 208 OFFCURVE",
"357 238 OFFCURVE",
"372 268 CURVE SMOOTH",
"399 322 OFFCURVE",
"459 456 OFFCURVE",
"483 568 CURVE",
"494 443 OFFCURVE",
"509 248 OFFCURVE",
"543 131 CURVE",
"617 -192 OFFCURVE",
"1034 -74 OFFCURVE",
"1107 138 CURVE SMOOTH",
"1116 164 OFFCURVE",
"1102 169 OFFCURVE",
"1090 141 CURVE SMOOTH",
"980 -110 OFFCURVE",
"529 -145 OFFCURVE",
"590 290 CURVE",
"620 296 OFFCURVE",
"652 306 OFFCURVE",
"675 311 CURVE SMOOTH",
"962 374 OFFCURVE",
"1150 445 OFFCURVE",
"675 340 CURVE SMOOTH",
"654 335 OFFCURVE",
"625 331 OFFCURVE",
"599 329 CURVE",
"709 701 OFFCURVE",
"1146 758 OFFCURVE",
"1044 580 CURVE SMOOTH",
"1015 529 OFFCURVE",
"1075 558 OFFCURVE",
"1093 628 CURVE SMOOTH",
"1142 826 OFFCURVE",
"653 655 OFFCURVE",
"559 327 CURVE",
"551 327 OFFCURVE",
"544 324 OFFCURVE",
"539 319 CURVE",
"519 429 OFFCURVE",
"508 539 OFFCURVE",
"498 595 CURVE SMOOTH",
"497 603 OFFCURVE",
"494 609 OFFCURVE",
"490 612 CURVE",
"499 692 OFFCURVE",
"482 752 OFFCURVE",
"406 745 CURVE SMOOTH",
"393 744 OFFCURVE",
"392 732 OFFCURVE",
"405 733 CURVE SMOOTH",
"542 742 OFFCURVE",
"369 336 OFFCURVE",
"345 284 CURVE SMOOTH",
"328 247 OFFCURVE",
"309 209 OFFCURVE",
"289 171 CURVE",
"231 156 OFFCURVE",
"158 132 OFFCURVE",
"108 101 CURVE SMOOTH",
"-24 22 OFFCURVE",
"-26 -54 OFFCURVE",
"37 -98 CURVE SMOOTH",
"47 -105 OFFCURVE",
"73 -119 OFFCURVE",
"86 -123 CURVE",
"34 -176 OFFCURVE",
"-19 -210 OFFCURVE",
"-69 -214 CURVE SMOOTH",
"-95 -217 OFFCURVE",
"-108 -208 OFFCURVE",
"-106 -170 CURVE",
"-110 -173 OFFCURVE",
"-113 -183 OFFCURVE",
"-113 -187 CURVE",
"-118 -220 OFFCURVE",
"-100 -231 OFFCURVE",
"-70 -229 CURVE SMOOTH",
"-15 -224 OFFCURVE",
"45 -186 OFFCURVE",
"104 -129 CURVE",
"135 -138 OFFCURVE",
"171 -143 OFFCURVE",
"209 -142 CURVE SMOOTH",
"223 -142 OFFCURVE",
"226 -131 OFFCURVE",
"211 -132 CURVE SMOOTH",
"172 -132 OFFCURVE",
"139 -128 OFFCURVE",
"114 -120 CURVE",
"188 -47 OFFCURVE",
"248 51 OFFCURVE",
"310 156 CURVE",
"368 172 OFFCURVE",
"439 186 OFFCURVE",
"497 197 CURVE SMOOTH",
"512 200 OFFCURVE",
"523 218 OFFCURVE",
"508 215 CURVE SMOOTH"
);
}
);
};
layerId = "197ECFA8-A16D-41AC-99D0-22A54F6A6421";
paths = (
{
closed = 1;
nodes = (
"-15 -224 OFFCURVE",
"45 -186 OFFCURVE",
"104 -129 CURVE",
"135 -138 OFFCURVE",
"171 -143 OFFCURVE",
"209 -142 CURVE SMOOTH",
"216 -142 OFFCURVE",
"221 -139 OFFCURVE",
"221 -136 CURVE SMOOTH",
"221 -134 OFFCURVE",
"219 -132 OFFCURVE",
"213 -132 CURVE SMOOTH",
"211 -132 LINE SMOOTH",
"172 -132 OFFCURVE",
"139 -128 OFFCURVE",
"114 -120 CURVE",
"188 -47 OFFCURVE",
"248 51 OFFCURVE",
"310 156 CURVE",
"368 172 OFFCURVE",
"439 186 OFFCURVE",
"497 197 CURVE SMOOTH",
"507 199 OFFCURVE",
"515 208 OFFCURVE",
"515 212 CURVE SMOOTH",
"515 214 OFFCURVE",
"514 215 OFFCURVE",
"511 215 CURVE SMOOTH",
"508 215 LINE",
"457 204 OFFCURVE",
"385 192 OFFCURVE",
"324 178 CURVE",
"341 208 OFFCURVE",
"357 238 OFFCURVE",
"372 268 CURVE SMOOTH",
"399 322 OFFCURVE",
"459 456 OFFCURVE",
"483 568 CURVE",
"494 443 OFFCURVE",
"509 248 OFFCURVE",
"543 131 CURVE",
"576 -12 OFFCURVE",
"676 -69 OFFCURVE",
"784 -69 CURVE SMOOTH",
"919 -69 OFFCURVE",
"1066 20 OFFCURVE",
"1107 138 CURVE SMOOTH",
"1109 144 OFFCURVE",
"1110 148 OFFCURVE",
"1110 152 CURVE SMOOTH",
"1110 157 OFFCURVE",
"1108 160 OFFCURVE",
"1105 160 CURVE SMOOTH",
"1102 160 OFFCURVE",
"1096 154 OFFCURVE",
"1090 141 CURVE SMOOTH",
"1040 26 OFFCURVE",
"918 -44 OFFCURVE",
"806 -44 CURVE SMOOTH",
"689 -44 OFFCURVE",
"584 33 OFFCURVE",
"584 213 CURVE SMOOTH",
"584 237 OFFCURVE",
"586 263 OFFCURVE",
"590 290 CURVE",
"620 296 OFFCURVE",
"652 306 OFFCURVE",
"675 311 CURVE SMOOTH",
"856 351 OFFCURVE",
"997 394 OFFCURVE",
"958 394 CURVE SMOOTH",
"936 394 OFFCURVE",
"851 379 OFFCURVE",
"675 340 CURVE SMOOTH",
"654 335 OFFCURVE",
"625 331 OFFCURVE",
"599 329 CURVE",
"670 569 OFFCURVE",
"876 677 OFFCURVE",
"986 677 CURVE SMOOTH",
"1030 677 OFFCURVE",
"1059 661 OFFCURVE",
"1059 628 CURVE SMOOTH",
"1059 614 OFFCURVE",
"1055 598 OFFCURVE",
"1044 580 CURVE SMOOTH",
"1039 570 OFFCURVE",
"1036 564 OFFCURVE",
"1036 559 CURVE SMOOTH",
"1036 556 OFFCURVE",
"1038 554 OFFCURVE",
"1041 554 CURVE SMOOTH",
"1052 554 OFFCURVE",
"1081 582 OFFCURVE",
"1093 628 CURVE SMOOTH",
"1095 637 OFFCURVE",
"1096 646 OFFCURVE",
"1096 654 CURVE SMOOTH",
"1096 694 OFFCURVE",
"1067 712 OFFCURVE",
"1021 712 CURVE SMOOTH",
"889 712 OFFCURVE",
"625 559 OFFCURVE",
"559 327 CURVE",
"551 327 OFFCURVE",
"544 324 OFFCURVE",
"539 319 CURVE",
"519 429 OFFCURVE",
"508 539 OFFCURVE",
"498 595 CURVE SMOOTH",
"497 603 OFFCURVE",
"494 609 OFFCURVE",
"490 612 CURVE",
"491 625 OFFCURVE",
"492 637 OFFCURVE",
"492 648 CURVE SMOOTH",
"492 709 OFFCURVE",
"470 751 OFFCURVE",
"406 745 CURVE SMOOTH",
"400 744 OFFCURVE",
"396 741 OFFCURVE",
"396 738 CURVE SMOOTH",
"396 735 OFFCURVE",
"398 733 OFFCURVE",
"404 733 CURVE SMOOTH",
"405 733 LINE SMOOTH",
"443 733 OFFCURVE",
"457 706 OFFCURVE",
"457 661 CURVE SMOOTH",
"457 543 OFFCURVE",
"362 322 OFFCURVE",
"345 284 CURVE SMOOTH",
"328 247 OFFCURVE",
"309 209 OFFCURVE",
"289 171 CURVE",
"231 156 OFFCURVE",
"158 132 OFFCURVE",
"108 101 CURVE SMOOTH",
"29 54 OFFCURVE",
"-3 8 OFFCURVE",
"-3 -31 CURVE SMOOTH",
"-3 -57 OFFCURVE",
"12 -80 OFFCURVE",
"37 -98 CURVE SMOOTH",
"47 -105 OFFCURVE",
"73 -119 OFFCURVE",
"86 -123 CURVE",
"31 -179 OFFCURVE",
"-25 -215 OFFCURVE",
"-77 -215 CURVE SMOOTH",
"-98 -215 OFFCURVE",
"-108 -204 OFFCURVE",
"-106 -170 CURVE",
"-110 -173 OFFCURVE",
"-113 -183 OFFCURVE",
"-113 -187 CURVE",
"-118 -220 OFFCURVE",
"-100 -231 OFFCURVE",
"-70 -229 CURVE SMOOTH"
);
},
{
closed = 1;
nodes = (
"84 -107 OFFCURVE",
"62 -89 OFFCURVE",
"55 -81 CURVE SMOOTH",
"44 -65 OFFCURVE",
"36 -48 OFFCURVE",
"36 -29 CURVE SMOOTH",
"36 -8 OFFCURVE",
"47 15 OFFCURVE",
"74 39 CURVE SMOOTH",
"104 65 OFFCURVE",
"187 106 OFFCURVE",
"221 123 CURVE SMOOTH",
"238 132 OFFCURVE",
"257 138 OFFCURVE",
"275 144 CURVE",
"221 46 OFFCURVE",
"160 -46 OFFCURVE",
"96 -113 CURVE"
);
}
);
width = 1121;
}
);
note = AE;
unicode = 00C6;
},
{
glyphname = B;
lastChange = "2021-11-18 16:34:37 +0000";
layers = (
{
background = {
paths = (
{
closed = 1;
nodes = (
"-44 -70 OFFCURVE",
"3 64 OFFCURVE",
"160 146 CURVE",
"149 79 OFFCURVE",
"145 18 OFFCURVE",
"147 -38 CURVE"
);
},
{
closed = 1;
nodes = (
"395 644 OFFCURVE",
"354 662 OFFCURVE",
"339 635 CURVE SMOOTH",
"243 458 OFFCURVE",
"188 299 OFFCURVE",
"163 163 CURVE",
"-37 74 OFFCURVE",
"-116 -81 OFFCURVE",
"148 -53 CURVE",
"160 -290 OFFCURVE",
"279 -410 OFFCURVE",
"385 -366 CURVE SMOOTH",
"406 -357 OFFCURVE",
"374 -325 OFFCURVE",
"358 -343 CURVE SMOOTH",
"339 -364 OFFCURVE",
"162 -331 OFFCURVE",
"169 -51 CURVE",
"370 -23 OFFCURVE",
"546 93 OFFCURVE",
"642 212 CURVE SMOOTH",
"763 360 OFFCURVE",
"744 504 OFFCURVE",
"441 455 CURVE",
"791 697 OFFCURVE",
"536 842 OFFCURVE",
"271 699 CURVE SMOOTH",
"155 636 OFFCURVE",
"42 519 OFFCURVE",
"52 439 CURVE SMOOTH",
"57 399 OFFCURVE",
"92 398 OFFCURVE",
"87 443 CURVE SMOOTH",
"80 498 OFFCURVE",
"154 619 OFFCURVE",
"272 683 CURVE SMOOTH",
"528 821 OFFCURVE",
"771 681 OFFCURVE",
"352 444 CURVE SMOOTH",
"331 432 OFFCURVE",
"343 415 OFFCURVE",
"365 423 CURVE SMOOTH",
"505 476 OFFCURVE",
"785 473 OFFCURVE",
"616 246 CURVE SMOOTH",
"527 125 OFFCURVE",
"376 11 OFFCURVE",
"170 -33 CURVE",
"173 23 OFFCURVE",
"183 89 OFFCURVE",
"203 166 CURVE",
"255 186 OFFCURVE",
"315 201 OFFCURVE",
"380 205 CURVE SMOOTH",
"427 207 OFFCURVE",
"431 222 OFFCURVE",
"407 221 CURVE SMOOTH",
"336 218 OFFCURVE",
"267 202 OFFCURVE",
"207 180 CURVE",
"239 298 OFFCURVE",
"294 441 OFFCURVE",
"380 613 CURVE SMOOTH"
);
}
);
};
layerId = "197ECFA8-A16D-41AC-99D0-22A54F6A6421";
paths = (
{
closed = 1;
nodes = (
"356 -375 OFFCURVE",
"370 -372 OFFCURVE",
"385 -366 CURVE SMOOTH",
"390 -364 OFFCURVE",
"392 -361 OFFCURVE",
"392 -357 CURVE SMOOTH",
"392 -348 OFFCURVE",
"381 -338 OFFCURVE",
"370 -338 CURVE SMOOTH",
"366 -338 OFFCURVE",
"361 -339 OFFCURVE",
"358 -343 CURVE SMOOTH",
"355 -346 OFFCURVE",
"349 -348 OFFCURVE",
"339 -348 CURVE SMOOTH",
"289 -348 OFFCURVE",
"163 -288 OFFCURVE",
"169 -51 CURVE",
"370 -23 OFFCURVE",
"546 93 OFFCURVE",
"642 212 CURVE SMOOTH",
"686 266 OFFCURVE",
"712 319 OFFCURVE",
"712 363 CURVE SMOOTH",
"712 423 OFFCURVE",
"664 465 OFFCURVE",
"549 465 CURVE SMOOTH",
"518 465 OFFCURVE",
"482 462 OFFCURVE",
"441 455 CURVE",
"563 540 OFFCURVE",
"611 612 OFFCURVE",
"611 665 CURVE SMOOTH",
"611 722 OFFCURVE",
"555 756 OFFCURVE",
"474 756 CURVE SMOOTH",
"415 756 OFFCURVE",
"343 738 OFFCURVE",
"271 699 CURVE SMOOTH",
"160 639 OFFCURVE",
"51 529 OFFCURVE",
"51 449 CURVE SMOOTH",
"51 422 OFFCURVE",
"63 409 OFFCURVE",
"73 409 CURVE SMOOTH",
"82 409 OFFCURVE",
"90 420 OFFCURVE",
"87 443 CURVE SMOOTH",
"80 498 OFFCURVE",
"154 619 OFFCURVE",
"272 683 CURVE SMOOTH",
"342 721 OFFCURVE",
"411 738 OFFCURVE",
"465 738 CURVE SMOOTH",
"533 738 OFFCURVE",
"579 712 OFFCURVE",
"579 667 CURVE SMOOTH",
"579 615 OFFCURVE",
"516 537 OFFCURVE",
"352 444 CURVE SMOOTH",
"344 440 OFFCURVE",
"341 435 OFFCURVE",
"341 430 CURVE SMOOTH",
"341 425 OFFCURVE",
"346 421 OFFCURVE",
"354 421 CURVE SMOOTH",
"357 421 OFFCURVE",
"361 422 OFFCURVE",
"365 423 CURVE SMOOTH",
"410 440 OFFCURVE",
"469 451 OFFCURVE",
"524 451 CURVE SMOOTH",
"601 451 OFFCURVE",
"669 428 OFFCURVE",
"669 365 CURVE SMOOTH",
"669 335 OFFCURVE",
"653 296 OFFCURVE",
"616 246 CURVE SMOOTH",
"527 125 OFFCURVE",
"376 11 OFFCURVE",
"170 -33 CURVE",
"173 23 OFFCURVE",
"183 89 OFFCURVE",
"203 166 CURVE",
"255 186 OFFCURVE",
"315 201 OFFCURVE",
"380 205 CURVE SMOOTH",
"409 206 OFFCURVE",
"421 212 OFFCURVE",
"421 217 CURVE SMOOTH",
"421 219 OFFCURVE",
"416 221 OFFCURVE",
"407 221 CURVE SMOOTH",
"336 218 OFFCURVE",
"267 202 OFFCURVE",
"207 180 CURVE",
"239 298 OFFCURVE",
"294 441 OFFCURVE",
"380 613 CURVE SMOOTH",
"382 618 OFFCURVE",
"383 622 OFFCURVE",
"383 626 CURVE SMOOTH",
"383 639 OFFCURVE",
"372 648 OFFCURVE",
"360 648 CURVE SMOOTH",
"352 648 OFFCURVE",
"344 644 OFFCURVE",
"339 635 CURVE SMOOTH",
"243 458 OFFCURVE",
"188 299 OFFCURVE",
"163 163 CURVE",
"53 114 OFFCURVE",
"-20 45 OFFCURVE",
"-20 -2 CURVE SMOOTH",
"-20 -34 OFFCURVE",
"13 -56 OFFCURVE",
"91 -56 CURVE SMOOTH",
"108 -56 OFFCURVE",
"127 -55 OFFCURVE",
"148 -53 CURVE",
"158 -258 OFFCURVE",
"248 -375 OFFCURVE",
"341 -375 CURVE SMOOTH"
);
},
{
closed = 1;
nodes = (
"45 -43 OFFCURVE",
"22 -25 OFFCURVE",
"22 1 CURVE SMOOTH",
"22 42 OFFCURVE",
"75 102 OFFCURVE",
"160 146 CURVE",
"149 79 OFFCURVE",
"145 18 OFFCURVE",
"147 -38 CURVE",
"127 -41 OFFCURVE",
"110 -43 OFFCURVE",
"95 -43 CURVE SMOOTH"
);
}
);
width = 697;
}
);
note = B;
unicode = 0042;
},
{
glyphname = C;
lastChange = "2021-11-19 13:14:46 +0000";
layers = (
{
anchors = (
{
name = bottom;
position = "{288, -111}";
},
{
name = top;
position = "{288, 691}";
}
);
background = {
paths = (
{
closed = 1;
nodes = (
"309 338 OFFCURVE",
"299 325 OFFCURVE",
"317 325 CURVE SMOOTH",
"541 331 OFFCURVE",
"578 691 OFFCURVE",
"288 691 CURVE SMOOTH",
"-150 691 OFFCURVE",
"-61 -153 OFFCURVE",
"349 -113 CURVE SMOOTH",
"474 -101 OFFCURVE",
"565 14 OFFCURVE",
"504 191 CURVE SMOOTH",
"498 207 OFFCURVE",
"488 204 OFFCURVE",
"492 187 CURVE SMOOTH",
"540 10 OFFCURVE",
"458 -83 OFFCURVE",
"357 -95 CURVE SMOOTH",
"8 -135 OFFCURVE",
"-87 675 OFFCURVE",
"280 675 CURVE SMOOTH",
"516 675 OFFCURVE",
"496 343 OFFCURVE",
"327 339 CURVE SMOOTH"
);
}
);
};
layerId = "197ECFA8-A16D-41AC-99D0-22A54F6A6421";
paths = (
{
closed = 1;
nodes = (
"444 -114 OFFCURVE",
"523 -34 OFFCURVE",
"523 84 CURVE SMOOTH",
"523 116 OFFCURVE",
"517 152 OFFCURVE",
"504 191 CURVE SMOOTH",
"501 198 OFFCURVE",
"498 201 OFFCURVE",
"495 201 CURVE SMOOTH",
"493 201 OFFCURVE",
"491 199 OFFCURVE",
"491 194 CURVE SMOOTH",
"491 192 OFFCURVE",
"491 190 OFFCURVE",
"492 187 CURVE SMOOTH",
"502 151 OFFCURVE",
"506 119 OFFCURVE",
"506 90 CURVE SMOOTH",
"506 -35 OFFCURVE",
"424 -96 OFFCURVE",
"333 -96 CURVE SMOOTH",
"152 -96 OFFCURVE",
"46 135 OFFCURVE",
"46 345 CURVE SMOOTH",
"46 518 OFFCURVE",
"118 675 OFFCURVE",
"280 675 CURVE SMOOTH",
"402 675 OFFCURVE",
"456 586 OFFCURVE",
"456 500 CURVE SMOOTH",
"456 419 OFFCURVE",
"409 341 OFFCURVE",
"327 339 CURVE SMOOTH",
"316 338 OFFCURVE",
"308 333 OFFCURVE",
"308 329 CURVE SMOOTH",
"308 327 OFFCURVE",
"310 325 OFFCURVE",
"317 325 CURVE SMOOTH",
"430 328 OFFCURVE",
"495 421 OFFCURVE",
"495 512 CURVE SMOOTH",
"495 602 OFFCURVE",
"432 691 OFFCURVE",
"288 691 CURVE SMOOTH",
"88 691 OFFCURVE",
"-2 515 OFFCURVE",
"-2 328 CURVE SMOOTH",
"-2 115 OFFCURVE",
"115 -114 OFFCURVE",
"321 -114 CURVE SMOOTH"
);
}
);
width = 535;
}
);
note = C;
unicode = 0043;
},
{
glyphname = D;
lastChange = "2021-11-19 13:26:19 +0000";
layers = (
{
anchors = (
{
name = bottom;
position = "{349, 0}";
},
{
name = center;
position = "{191, 340}";
},
{
name = top;
position = "{487, 680}";
}
);
background = {
paths = (
{
closed = 1;
nodes = (
"46 -92 OFFCURVE",
"-33 -7 OFFCURVE",
"68 82 CURVE SMOOTH",
"88 100 OFFCURVE",
"114 117 OFFCURVE",
"146 133 CURVE",
"155 56 OFFCURVE",
"177 -5 OFFCURVE",
"205 -48 CURVE"
);
},
{
closed = 1;
nodes = (
"296 642 OFFCURVE",
"319 649 OFFCURVE",
"342 655 CURVE SMOOTH",
"774 765 OFFCURVE",
"770 262 OFFCURVE",
"326 5 CURVE SMOOTH",
"290 -16 OFFCURVE",
"256 -31 OFFCURVE",
"225 -42 CURVE",
"196 -5 OFFCURVE",
"172 53 OFFCURVE",
"168 142 CURVE",
"233 169 OFFCURVE",
"317 186 OFFCURVE",
"408 179 CURVE SMOOTH",
"455 176 OFFCURVE",
"460 191 OFFCURVE",
"437 193 CURVE SMOOTH",
"339 200 OFFCURVE",
"245 184 OFFCURVE",
"168 158 CURVE",
"166 267 OFFCURVE",
"193 420 OFFCURVE",
"274 633 CURVE"
);
},
{
closed = 1;
nodes = (
"317 742 OFFCURVE",
"282 755 OFFCURVE",
"271 731 CURVE SMOOTH",
"256 700 OFFCURVE",
"243 669 OFFCURVE",
"232 639 CURVE",
"131 598 OFFCURVE",
"41 537 OFFCURVE",
"-12 476 CURVE SMOOTH",
"-86 391 OFFCURVE",
"-30 389 OFFCURVE",
"-12 419 CURVE SMOOTH",
"33 490 OFFCURVE",
"121 561 OFFCURVE",
"220 610 CURVE",
"152 425 OFFCURVE",
"134 269 OFFCURVE",
"145 149 CURVE",
"112 137 OFFCURVE",
"83 122 OFFCURVE",
"59 107 CURVE SMOOTH",
"-111 -1 OFFCURVE",
"-13 -127 OFFCURVE",
"214 -60 CURVE",
"258 -118 OFFCURVE",
"315 -137 OFFCURVE",
"368 -111 CURVE SMOOTH",
"401 -95 OFFCURVE",
"364 -68 OFFCURVE",
"345 -93 CURVE SMOOTH",
"336 -104 OFFCURVE",
"281 -103 OFFCURVE",
"235 -54 CURVE",
"264 -44 OFFCURVE",
"295 -31 OFFCURVE",
"328 -15 CURVE SMOOTH",
"806 224 OFFCURVE",
"876 804 OFFCURVE",
"342 676 CURVE SMOOTH",
"323 671 OFFCURVE",
"303 665 OFFCURVE",
"284 659 CURVE",
"291 677 OFFCURVE",
"298 696 OFFCURVE",
"306 715 CURVE SMOOTH"
);
}
);
};
layerId = "197ECFA8-A16D-41AC-99D0-22A54F6A6421";
paths = (
{
closed = 1;
nodes = (
"336 -122 OFFCURVE",
"352 -119 OFFCURVE",
"368 -111 CURVE SMOOTH",
"377 -106 OFFCURVE",
"381 -101 OFFCURVE",
"381 -96 CURVE SMOOTH",
"381 -89 OFFCURVE",
"373 -83 OFFCURVE",
"364 -83 CURVE SMOOTH",
"358 -83 OFFCURVE",
"351 -86 OFFCURVE",
"345 -93 CURVE SMOOTH",
"342 -96 OFFCURVE",
"335 -99 OFFCURVE",
"325 -99 CURVE SMOOTH",
"303 -99 OFFCURVE",
"267 -88 OFFCURVE",
"235 -54 CURVE",
"264 -44 OFFCURVE",
"295 -31 OFFCURVE",
"328 -15 CURVE SMOOTH",
"577 110 OFFCURVE",
"715 326 OFFCURVE",
"715 488 CURVE SMOOTH",
"715 606 OFFCURVE",
"641 694 OFFCURVE",
"481 694 CURVE SMOOTH",
"440 694 OFFCURVE",
"394 688 OFFCURVE",
"342 676 CURVE SMOOTH",
"323 671 OFFCURVE",
"303 665 OFFCURVE",
"284 659 CURVE",
"291 677 OFFCURVE",
"298 696 OFFCURVE",
"306 715 CURVE SMOOTH",
"307 718 OFFCURVE",
"308 722 OFFCURVE",
"308 725 CURVE SMOOTH",
"308 736 OFFCURVE",
"299 744 OFFCURVE",
"289 744 CURVE SMOOTH",
"282 744 OFFCURVE",
"275 740 OFFCURVE",
"271 731 CURVE SMOOTH",
"256 700 OFFCURVE",
"243 669 OFFCURVE",
"232 639 CURVE",
"131 598 OFFCURVE",
"41 537 OFFCURVE",
"-12 476 CURVE SMOOTH",
"-40 444 OFFCURVE",
"-50 423 OFFCURVE",
"-50 412 CURVE SMOOTH",
"-50 404 OFFCURVE",
"-45 401 OFFCURVE",
"-39 401 CURVE SMOOTH",
"-30 401 OFFCURVE",
"-19 408 OFFCURVE",
"-12 419 CURVE SMOOTH",
"33 490 OFFCURVE",
"121 561 OFFCURVE",
"220 610 CURVE",
"164 458 OFFCURVE",
"142 326 OFFCURVE",
"142 217 CURVE SMOOTH",
"142 193 OFFCURVE",
"143 170 OFFCURVE",
"145 149 CURVE",
"112 137 OFFCURVE",
"83 122 OFFCURVE",
"59 107 CURVE SMOOTH",
"0 69 OFFCURVE",
"-27 29 OFFCURVE",
"-27 -4 CURVE SMOOTH",
"-27 -47 OFFCURVE",
"19 -79 OFFCURVE",
"97 -79 CURVE SMOOTH",
"131 -79 OFFCURVE",
"170 -73 OFFCURVE",
"214 -60 CURVE",
"245 -101 OFFCURVE",
"283 -122 OFFCURVE",
"321 -122 CURVE SMOOTH"
);
},
{
closed = 1;
nodes = (
"61 -60 OFFCURVE",
"23 -33 OFFCURVE",
"23 5 CURVE SMOOTH",
"23 28 OFFCURVE",
"37 55 OFFCURVE",
"68 82 CURVE SMOOTH",
"88 100 OFFCURVE",
"114 117 OFFCURVE",
"146 133 CURVE",
"155 56 OFFCURVE",
"177 -5 OFFCURVE",
"205 -48 CURVE",
"175 -56 OFFCURVE",
"148 -60 OFFCURVE",
"125 -60 CURVE SMOOTH"
);
},
{
closed = 1;
nodes = (
"196 -5 OFFCURVE",
"172 53 OFFCURVE",
"168 142 CURVE",
"223 165 OFFCURVE",
"292 181 OFFCURVE",
"367 181 CURVE SMOOTH",
"380 181 OFFCURVE",
"394 180 OFFCURVE",
"408 179 CURVE SMOOTH",
"437 177 OFFCURVE",
"450 182 OFFCURVE",
"450 187 CURVE SMOOTH",
"450 190 OFFCURVE",
"446 192 OFFCURVE",
"437 193 CURVE SMOOTH",
"421 194 OFFCURVE",
"406 195 OFFCURVE",
"391 195 CURVE SMOOTH",
"309 195 OFFCURVE",
"233 180 OFFCURVE",
"168 158 CURVE",
"166 267 OFFCURVE",
"193 420 OFFCURVE",
"274 633 CURVE",
"296 642 OFFCURVE",
"319 649 OFFCURVE",
"342 655 CURVE SMOOTH",
"384 665 OFFCURVE",
"421 670 OFFCURVE",
"455 670 CURVE SMOOTH",
"594 670 OFFCURVE",
"663 587 OFFCURVE",
"663 473 CURVE SMOOTH",
"663 328 OFFCURVE",
"551 135 OFFCURVE",
"326 5 CURVE SMOOTH",
"290 -16 OFFCURVE",
"256 -31 OFFCURVE",
"225 -42 CURVE"
);
}
);
width = 697;
}
);
note = D;
unicode = 0044;
},
{
glyphname = Eth;
lastChange = "2021-11-18 16:34:37 +0000";
layers = (
{
background = {
paths = (
{
closed = 1;
nodes = (
"306 715 LINE SMOOTH",
"317 742 OFFCURVE",
"282 755 OFFCURVE",
"271 731 CURVE SMOOTH",
"256 700 OFFCURVE",
"243 669 OFFCURVE",
"232 639 CURVE",
"131 598 OFFCURVE",
"41 537 OFFCURVE",
"-12 476 CURVE SMOOTH",
"-86 391 OFFCURVE",
"-30 389 OFFCURVE",
"-12 419 CURVE SMOOTH",
"33 490 OFFCURVE",
"121 561 OFFCURVE",
"220 610 CURVE",
"181 504 OFFCURVE",
"158 407 OFFCURVE",
"148 322 CURVE",
"127 321 OFFCURVE",
"104 319 OFFCURVE",
"79 316 CURVE SMOOTH",
"72 315 OFFCURVE",
"92 290 OFFCURVE",
"98 291 CURVE SMOOTH",
"113 292 OFFCURVE",
"129 294 OFFCURVE",
"145 296 CURVE",
"140 242 OFFCURVE",
"141 193 OFFCURVE",
"145 149 CURVE",
"112 137 OFFCURVE",
"83 122 OFFCURVE",
"59 107 CURVE SMOOTH",
"-111 -1 OFFCURVE",
"-13 -127 OFFCURVE",
"214 -60 CURVE",
"258 -118 OFFCURVE",
"315 -137 OFFCURVE",
"368 -111 CURVE SMOOTH",
"401 -95 OFFCURVE",
"364 -68 OFFCURVE",
"345 -93 CURVE SMOOTH",
"336 -104 OFFCURVE",
"281 -103 OFFCURVE",
"235 -54 CURVE",
"264 -44 OFFCURVE",
"295 -31 OFFCURVE",
"328 -15 CURVE SMOOTH",
"806 224 OFFCURVE",
"876 804 OFFCURVE",
"342 676 CURVE SMOOTH",
"323 671 OFFCURVE",
"303 665 OFFCURVE",
"284 659 CURVE"
);
},
{
closed = 1;
nodes = (
"262 316 OFFCURVE",
"228 322 OFFCURVE",
"183 322 CURVE",
"198 408 OFFCURVE",
"227 510 OFFCURVE",
"274 633 CURVE",
"296 642 OFFCURVE",
"319 649 OFFCURVE",
"342 655 CURVE SMOOTH",
"774 765 OFFCURVE",
"770 262 OFFCURVE",
"326 5 CURVE SMOOTH",
"290 -16 OFFCURVE",
"256 -31 OFFCURVE",
"225 -42 CURVE",
"196 -5 OFFCURVE",
"172 53 OFFCURVE",
"168 142 CURVE",
"233 169 OFFCURVE",
"317 186 OFFCURVE",
"408 179 CURVE SMOOTH",
"455 176 OFFCURVE",
"460 191 OFFCURVE",
"437 193 CURVE SMOOTH",
"339 200 OFFCURVE",
"245 184 OFFCURVE",
"168 158 CURVE",
"167 198 OFFCURVE",
"170 245 OFFCURVE",
"179 298 CURVE",
"216 301 OFFCURVE",
"251 302 OFFCURVE",
"279 302 CURVE SMOOTH",
"285 302 OFFCURVE",
"288 309 OFFCURVE",
"282 311 CURVE SMOOTH"
);
},
{
closed = 1;
nodes = (
"46 -92 OFFCURVE",
"-33 -7 OFFCURVE",
"68 82 CURVE SMOOTH",
"88 100 OFFCURVE",
"114 117 OFFCURVE",
"146 133 CURVE",
"155 56 OFFCURVE",
"177 -5 OFFCURVE",
"205 -48 CURVE"
);
}
);
};
layerId = "197ECFA8-A16D-41AC-99D0-22A54F6A6421";
paths = (
{
closed = 1;
nodes = (
"336 -122 OFFCURVE",
"352 -119 OFFCURVE",
"368 -111 CURVE SMOOTH",
"377 -106 OFFCURVE",
"381 -101 OFFCURVE",
"381 -96 CURVE SMOOTH",
"381 -89 OFFCURVE",
"373 -83 OFFCURVE",
"364 -83 CURVE SMOOTH",
"358 -83 OFFCURVE",
"351 -86 OFFCURVE",
"345 -93 CURVE SMOOTH",
"342 -96 OFFCURVE",
"335 -99 OFFCURVE",
"325 -99 CURVE SMOOTH",
"303 -99 OFFCURVE",
"267 -88 OFFCURVE",
"235 -54 CURVE",
"264 -44 OFFCURVE",
"295 -31 OFFCURVE",
"328 -15 CURVE SMOOTH",
"577 110 OFFCURVE",
"715 326 OFFCURVE",
"715 488 CURVE SMOOTH",
"715 606 OFFCURVE",
"641 694 OFFCURVE",
"481 694 CURVE SMOOTH",
"440 694 OFFCURVE",
"394 688 OFFCURVE",
"342 676 CURVE SMOOTH",
"323 671 OFFCURVE",
"303 665 OFFCURVE",
"284 659 CURVE",
"306 715 LINE SMOOTH",
"307 718 OFFCURVE",
"308 722 OFFCURVE",
"308 725 CURVE SMOOTH",
"308 736 OFFCURVE",
"299 744 OFFCURVE",
"289 744 CURVE SMOOTH",
"282 744 OFFCURVE",
"275 740 OFFCURVE",
"271 731 CURVE SMOOTH",
"256 700 OFFCURVE",
"243 669 OFFCURVE",
"232 639 CURVE",
"131 598 OFFCURVE",
"41 537 OFFCURVE",
"-12 476 CURVE SMOOTH",
"-40 444 OFFCURVE",
"-50 423 OFFCURVE",
"-50 412 CURVE SMOOTH",
"-50 404 OFFCURVE",
"-45 401 OFFCURVE",
"-39 401 CURVE SMOOTH",
"-30 401 OFFCURVE",
"-19 408 OFFCURVE",
"-12 419 CURVE SMOOTH",
"33 490 OFFCURVE",
"121 561 OFFCURVE",
"220 610 CURVE",
"181 504 OFFCURVE",
"158 407 OFFCURVE",
"148 322 CURVE",
"127 321 OFFCURVE",
"104 319 OFFCURVE",
"79 316 CURVE SMOOTH",
"72 315 OFFCURVE",
"92 290 OFFCURVE",
"98 291 CURVE SMOOTH",
"113 292 OFFCURVE",
"129 294 OFFCURVE",
"145 296 CURVE",
"143 270 OFFCURVE",
"142 246 OFFCURVE",
"142 223 CURVE SMOOTH",
"142 197 OFFCURVE",
"143 172 OFFCURVE",
"145 149 CURVE",
"112 137 OFFCURVE",
"83 122 OFFCURVE",
"59 107 CURVE SMOOTH",
"0 69 OFFCURVE",
"-27 29 OFFCURVE",
"-27 -4 CURVE SMOOTH",
"-27 -47 OFFCURVE",
"19 -79 OFFCURVE",
"97 -79 CURVE SMOOTH",
"131 -79 OFFCURVE",
"170 -73 OFFCURVE",
"214 -60 CURVE",
"245 -101 OFFCURVE",
"283 -122 OFFCURVE",
"321 -122 CURVE SMOOTH"
);
},
{
closed = 1;
nodes = (
"61 -60 OFFCURVE",
"23 -33 OFFCURVE",
"23 5 CURVE SMOOTH",
"23 28 OFFCURVE",
"37 55 OFFCURVE",
"68 82 CURVE SMOOTH",
"88 100 OFFCURVE",
"114 117 OFFCURVE",
"146 133 CURVE",
"155 56 OFFCURVE",
"177 -5 OFFCURVE",
"205 -48 CURVE",
"175 -56 OFFCURVE",
"148 -60 OFFCURVE",
"125 -60 CURVE SMOOTH"
);
},
{
closed = 1;
nodes = (
"196 -5 OFFCURVE",
"172 53 OFFCURVE",
"168 142 CURVE",
"223 165 OFFCURVE",
"292 181 OFFCURVE",
"367 181 CURVE SMOOTH",
"380 181 OFFCURVE",
"394 180 OFFCURVE",
"408 179 CURVE SMOOTH",
"437 177 OFFCURVE",
"450 182 OFFCURVE",
"450 187 CURVE SMOOTH",
"450 190 OFFCURVE",
"446 192 OFFCURVE",
"437 193 CURVE SMOOTH",
"421 194 OFFCURVE",
"406 195 OFFCURVE",
"391 195 CURVE SMOOTH",
"309 195 OFFCURVE",
"233 180 OFFCURVE",
"168 158 CURVE",
"167 198 OFFCURVE",
"170 245 OFFCURVE",
"179 298 CURVE",
"216 301 OFFCURVE",
"251 302 OFFCURVE",
"279 302 CURVE SMOOTH",
"283 302 OFFCURVE",
"285 305 OFFCURVE",
"285 307 CURVE SMOOTH",
"285 309 OFFCURVE",
"284 310 OFFCURVE",
"282 311 CURVE",
"262 316 OFFCURVE",
"228 322 OFFCURVE",
"183 322 CURVE",
"198 408 OFFCURVE",
"227 510 OFFCURVE",
"274 633 CURVE",
"296 642 OFFCURVE",
"319 649 OFFCURVE",
"342 655 CURVE SMOOTH",
"384 665 OFFCURVE",
"421 670 OFFCURVE",
"455 670 CURVE SMOOTH",
"594 670 OFFCURVE",
"663 587 OFFCURVE",
"663 473 CURVE SMOOTH",
"663 328 OFFCURVE",
"551 135 OFFCURVE",
"326 5 CURVE SMOOTH",
"290 -16 OFFCURVE",
"256 -31 OFFCURVE",
"225 -42 CURVE"
);
}
);
width = 697;
}
);
note = Eth;
unicode = 00D0;
},
{
glyphname = E;
lastChange = "2021-11-19 13:26:43 +0000";
layers = (
{
anchors = (
{
name = bottom;
position = "{272, -60}";
},
{
name = ogonek;
position = "{544, 14}";
},
{
name = top;
position = "{412, 719}";
},
{
name = topleft;
position = "{20, 680}";
}
);
background = {
paths = (
{
closed = 1;
nodes = (
"615 164 OFFCURVE",
"600 169 OFFCURVE",
"588 141 CURVE SMOOTH",
"486 -93 OFFCURVE",
"24 -164 OFFCURVE",
"88 290 CURVE",
"118 296 OFFCURVE",
"150 306 OFFCURVE",
"173 311 CURVE SMOOTH",
"460 374 OFFCURVE",
"649 445 OFFCURVE",
"173 340 CURVE SMOOTH",
"152 335 OFFCURVE",
"123 331 OFFCURVE",
"98 329 CURVE",
"207 701 OFFCURVE",
"644 758 OFFCURVE",
"543 580 CURVE SMOOTH",
"514 529 OFFCURVE",
"574 558 OFFCURVE",
"591 628 CURVE SMOOTH",
"641 826 OFFCURVE",
"152 655 OFFCURVE",
"57 327 CURVE",
"39 328 OFFCURVE",
"25 331 OFFCURVE",
"17 338 CURVE SMOOTH",
"8 348 OFFCURVE",
"-3 327 OFFCURVE",
"-3 308 CURVE SMOOTH",
"-2 278 OFFCURVE",
"17 289 OFFCURVE",
"43 287 CURVE",
"-34 -213 OFFCURVE",
"522 -104 OFFCURVE",
"606 138 CURVE SMOOTH"
);
}
);
};
layerId = "197ECFA8-A16D-41AC-99D0-22A54F6A6421";
paths = (
{
closed = 1;
nodes = (
"413 -66 OFFCURVE",
"565 20 OFFCURVE",
"606 138 CURVE SMOOTH",
"608 144 OFFCURVE",
"609 148 OFFCURVE",
"609 152 CURVE SMOOTH",
"609 157 OFFCURVE",
"607 160 OFFCURVE",
"604 160 CURVE SMOOTH",
"600 160 OFFCURVE",
"594 154 OFFCURVE",
"588 141 CURVE SMOOTH",
"540 31 OFFCURVE",
"412 -43 OFFCURVE",
"297 -43 CURVE SMOOTH",
"183 -43 OFFCURVE",
"82 29 OFFCURVE",
"82 209 CURVE SMOOTH",
"82 234 OFFCURVE",
"84 261 OFFCURVE",
"88 290 CURVE",
"118 296 OFFCURVE",
"150 306 OFFCURVE",
"173 311 CURVE SMOOTH",
"354 351 OFFCURVE",
"496 394 OFFCURVE",
"457 394 CURVE SMOOTH",
"434 394 OFFCURVE",
"349 379 OFFCURVE",
"173 340 CURVE SMOOTH",
"152 335 OFFCURVE",
"123 331 OFFCURVE",
"98 329 CURVE",
"168 568 OFFCURVE",
"374 677 OFFCURVE",
"485 677 CURVE SMOOTH",
"529 677 OFFCURVE",
"558 660 OFFCURVE",
"558 627 CURVE SMOOTH",
"558 614 OFFCURVE",
"553 598 OFFCURVE",
"543 580 CURVE SMOOTH",
"538 570 OFFCURVE",
"535 564 OFFCURVE",
"535 559 CURVE SMOOTH",
"535 556 OFFCURVE",
"537 554 OFFCURVE",
"540 554 CURVE SMOOTH",
"551 554 OFFCURVE",
"580 582 OFFCURVE",
"591 628 CURVE SMOOTH",
"594 638 OFFCURVE",
"595 646 OFFCURVE",
"595 654 CURVE SMOOTH",
"595 694 OFFCURVE",
"565 712 OFFCURVE",
"520 712 CURVE SMOOTH",
"388 712 OFFCURVE",
"124 559 OFFCURVE",
"57 327 CURVE",
"39 328 OFFCURVE",
"25 331 OFFCURVE",
"17 338 CURVE SMOOTH",
"8 348 OFFCURVE",
"-3 327 OFFCURVE",
"-3 308 CURVE SMOOTH",
"-2 290 OFFCURVE",
"5 287 OFFCURVE",
"17 287 CURVE SMOOTH",
"24 287 OFFCURVE",
"33 288 OFFCURVE",
"43 287 CURVE",
"38 255 OFFCURVE",
"36 225 OFFCURVE",
"36 197 CURVE SMOOTH",
"36 7 OFFCURVE",
"149 -66 OFFCURVE",
"276 -66 CURVE SMOOTH"
);
}
);
width = 543;
}
);
note = E;
unicode = 0045;
},
{
glyphname = F;
lastChange = "2021-11-18 16:34:37 +0000";
layers = (
{
background = {
paths = (
{
closed = 1;
nodes = (
"272 227 OFFCURVE",
"286 190 OFFCURVE",
"301 203 CURVE SMOOTH",
"341 236 OFFCURVE",
"384 264 OFFCURVE",
"431 284 CURVE",
"431 275 LINE SMOOTH",
"432 142 OFFCURVE",
"414 13 OFFCURVE",
"385 -49 CURVE SMOOTH",
"338 -150 OFFCURVE",
"251 -206 OFFCURVE",
"162 -86 CURVE SMOOTH",
"105 -7 OFFCURVE",
"75 126 OFFCURVE",
"124 223 CURVE SMOOTH",
"145 264 OFFCURVE",
"121 238 OFFCURVE",
"114 225 CURVE SMOOTH",
"100 199 OFFCURVE",
"86 156 OFFCURVE",
"82 125 CURVE SMOOTH",
"73 57 OFFCURVE",
"85 -27 OFFCURVE",
"128 -84 CURVE SMOOTH",
"269 -270 OFFCURVE",
"435 -103 OFFCURVE",
"459 111 CURVE SMOOTH",
"463 149 OFFCURVE",
"467 218 OFFCURVE",
"465 297 CURVE",
"501 308 OFFCURVE",
"539 314 OFFCURVE",
"580 314 CURVE SMOOTH",
"619 314 OFFCURVE",
"605 327 OFFCURVE",
"585 327 CURVE SMOOTH",
"543 327 OFFCURVE",
"503 324 OFFCURVE",
"465 316 CURVE",
"461 431 OFFCURVE",
"446 560 OFFCURVE",
"404 641 CURVE",
"561 636 OFFCURVE",
"709 589 OFFCURVE",
"731 510 CURVE SMOOTH",
"737 491 OFFCURVE",
"751 496 OFFCURVE",
"745 516 CURVE SMOOTH",
"710 640 OFFCURVE",
"502 674 OFFCURVE",
"380 677 CURVE",
"331 736 OFFCURVE",
"247 723 OFFCURVE",
"270 703 CURVE SMOOTH",
"281 694 OFFCURVE",
"301 709 OFFCURVE",
"330 677 CURVE",
"199 672 OFFCURVE",
"-12 612 OFFCURVE",
"-12 449 CURVE SMOOTH",
"-12 417 OFFCURVE",
"-7 383 OFFCURVE",
"16 357 CURVE SMOOTH",
"29 343 OFFCURVE",
"42 353 OFFCURVE",
"28 367 CURVE SMOOTH",
"13 384 OFFCURVE",
"8 409 OFFCURVE",
"8 439 CURVE SMOOTH",
"8 577 OFFCURVE",
"175 638 OFFCURVE",
"355 641 CURVE",
"356 640 LINE",
"396 565 OFFCURVE",
"428 437 OFFCURVE",
"431 308 CURVE",
"380 294 OFFCURVE",
"333 272 OFFCURVE",
"288 238 CURVE SMOOTH"
);
}
);
};
layerId = "197ECFA8-A16D-41AC-99D0-22A54F6A6421";
paths = (
{
closed = 1;
nodes = (
"357 -164 OFFCURVE",
"442 -38 OFFCURVE",
"459 111 CURVE SMOOTH",
"462 142 OFFCURVE",
"466 194 OFFCURVE",
"466 255 CURVE SMOOTH",
"466 268 OFFCURVE",
"465 283 OFFCURVE",
"465 297 CURVE",
"501 308 OFFCURVE",
"539 314 OFFCURVE",
"580 314 CURVE SMOOTH",
"598 314 OFFCURVE",
"605 317 OFFCURVE",
"605 320 CURVE SMOOTH",
"605 323 OFFCURVE",
"596 327 OFFCURVE",
"585 327 CURVE SMOOTH",
"543 327 OFFCURVE",
"503 324 OFFCURVE",
"465 316 CURVE",
"461 431 OFFCURVE",
"446 560 OFFCURVE",
"404 641 CURVE",
"561 636 OFFCURVE",
"709 589 OFFCURVE",
"731 510 CURVE SMOOTH",
"734 502 OFFCURVE",
"738 498 OFFCURVE",
"741 498 CURVE SMOOTH",
"744 498 OFFCURVE",
"746 501 OFFCURVE",
"746 507 CURVE SMOOTH",
"746 510 OFFCURVE",
"746 513 OFFCURVE",
"745 516 CURVE SMOOTH",
"710 640 OFFCURVE",
"502 674 OFFCURVE",
"380 677 CURVE",
"353 709 OFFCURVE",
"317 720 OFFCURVE",
"292 720 CURVE SMOOTH",
"271 720 OFFCURVE",
"259 712 OFFCURVE",
"270 703 CURVE SMOOTH",
"281 694 OFFCURVE",
"301 709 OFFCURVE",
"330 677 CURVE",
"199 672 OFFCURVE",
"-12 612 OFFCURVE",
"-12 449 CURVE SMOOTH",
"-12 417 OFFCURVE",
"-7 383 OFFCURVE",
"16 357 CURVE SMOOTH",
"20 352 OFFCURVE",
"25 350 OFFCURVE",
"28 350 CURVE SMOOTH",
"32 350 OFFCURVE",
"34 352 OFFCURVE",
"34 356 CURVE SMOOTH",
"34 359 OFFCURVE",
"32 363 OFFCURVE",
"28 367 CURVE SMOOTH",
"13 384 OFFCURVE",
"8 409 OFFCURVE",
"8 439 CURVE SMOOTH",
"8 577 OFFCURVE",
"175 638 OFFCURVE",
"355 641 CURVE",
"356 640 LINE",
"396 565 OFFCURVE",
"428 437 OFFCURVE",
"431 308 CURVE",
"380 294 OFFCURVE",
"333 272 OFFCURVE",
"288 238 CURVE SMOOTH",
"283 235 OFFCURVE",
"281 229 OFFCURVE",
"281 222 CURVE SMOOTH",
"281 209 OFFCURVE",
"291 194 OFFCURVE",
"301 203 CURVE SMOOTH",
"341 236 OFFCURVE",
"384 264 OFFCURVE",
"431 284 CURVE",
"431 275 LINE SMOOTH",
"432 142 OFFCURVE",
"414 13 OFFCURVE",
"385 -49 CURVE SMOOTH",
"357 -110 OFFCURVE",
"314 -154 OFFCURVE",
"266 -154 CURVE SMOOTH",
"233 -154 OFFCURVE",
"198 -134 OFFCURVE",
"162 -86 CURVE SMOOTH",
"125 -35 OFFCURVE",
"99 39 OFFCURVE",
"99 112 CURVE SMOOTH",
"99 151 OFFCURVE",
"107 189 OFFCURVE",
"124 223 CURVE SMOOTH",
"130 236 OFFCURVE",
"133 242 OFFCURVE",
"133 244 CURVE SMOOTH",
"133 245 OFFCURVE",
"132 245 OFFCURVE",
"132 245 CURVE",
"128 245 OFFCURVE",
"118 233 OFFCURVE",
"114 225 CURVE SMOOTH",
"100 199 OFFCURVE",
"86 156 OFFCURVE",
"82 125 CURVE SMOOTH",
"80 111 OFFCURVE",
"79 97 OFFCURVE",
"79 82 CURVE SMOOTH",
"79 24 OFFCURVE",
"94 -39 OFFCURVE",
"128 -84 CURVE SMOOTH",
"171 -140 OFFCURVE",
"216 -164 OFFCURVE",
"259 -164 CURVE SMOOTH"
);
}
);
width = 579;
}
);
note = F;
unicode = 0046;
},
{
glyphname = G;
lastChange = "2021-11-19 13:26:57 +0000";
layers = (
{
anchors = (
{
name = bottom;
position = "{227, -116}";
},
{
name = top;
position = "{387, 680}";
}
);
background = {
paths = (
{
closed = 1;
nodes = (
"183 120 OFFCURVE",
"186 80 OFFCURVE",
"204 88 CURVE SMOOTH",
"248 106 OFFCURVE",
"292 120 OFFCURVE",
"338 126 CURVE",
"360 -4 OFFCURVE",
"325 -124 OFFCURVE",
"226 -106 CURVE SMOOTH",
"109 -84 OFFCURVE",
"65 59 OFFCURVE",
"65 216 CURVE SMOOTH",
"65 443 OFFCURVE",
"225 687 OFFCURVE",
"394 664 CURVE SMOOTH",
"593 638 OFFCURVE",
"455 322 OFFCURVE",
"326 358 CURVE SMOOTH",
"309 363 OFFCURVE",
"296 353 OFFCURVE",
"313 348 CURVE SMOOTH",
"527 289 OFFCURVE",
"633 692 OFFCURVE",
"389 689 CURVE SMOOTH",
"200 687 OFFCURVE",
"18 445 OFFCURVE",
"18 219 CURVE SMOOTH",
"18 56 OFFCURVE",
"77 -93 OFFCURVE",
"214 -121 CURVE SMOOTH",
"336 -146 OFFCURVE",
"410 -27 OFFCURVE",
"351 128 CURVE",
"400 133 OFFCURVE",
"452 129 OFFCURVE",
"504 113 CURVE SMOOTH",
"541 102 OFFCURVE",
"532 118 OFFCURVE",
"513 124 CURVE SMOOTH",
"402 158 OFFCURVE",
"304 163 OFFCURVE",
"202 126 CURVE SMOOTH"
);
}
);
};
layerId = "197ECFA8-A16D-41AC-99D0-22A54F6A6421";
paths = (
{
closed = 1;
nodes = (
"321 -124 OFFCURVE",
"372 -64 OFFCURVE",
"372 24 CURVE SMOOTH",
"372 56 OFFCURVE",
"365 91 OFFCURVE",
"351 128 CURVE",
"364 129 OFFCURVE",
"377 130 OFFCURVE",
"391 130 CURVE SMOOTH",
"428 130 OFFCURVE",
"466 125 OFFCURVE",
"504 113 CURVE",
"514 111 OFFCURVE",
"520 110 OFFCURVE",
"524 110 CURVE SMOOTH",
"528 110 OFFCURVE",
"530 111 OFFCURVE",
"530 112 CURVE SMOOTH",
"530 116 OFFCURVE",
"523 121 OFFCURVE",
"513 124 CURVE SMOOTH",
"455 142 OFFCURVE",
"400 152 OFFCURVE",
"347 152 CURVE SMOOTH",
"298 152 OFFCURVE",
"250 144 OFFCURVE",
"202 126 CURVE SMOOTH",
"193 123 OFFCURVE",
"189 113 OFFCURVE",
"189 104 CURVE SMOOTH",
"189 93 OFFCURVE",
"194 84 OFFCURVE",
"204 88 CURVE SMOOTH",
"248 106 OFFCURVE",
"292 120 OFFCURVE",
"338 126 CURVE",
"342 101 OFFCURVE",
"344 77 OFFCURVE",
"344 54 CURVE SMOOTH",
"344 -37 OFFCURVE",
"312 -108 OFFCURVE",
"245 -108 CURVE SMOOTH",
"239 -108 OFFCURVE",
"233 -107 OFFCURVE",
"226 -106 CURVE SMOOTH",
"109 -84 OFFCURVE",
"65 59 OFFCURVE",
"65 216 CURVE SMOOTH",
"65 433 OFFCURVE",
"211 666 OFFCURVE",
"372 666 CURVE SMOOTH",
"379 666 OFFCURVE",
"387 665 OFFCURVE",
"394 664 CURVE SMOOTH",
"466 654 OFFCURVE",
"494 607 OFFCURVE",
"494 551 CURVE SMOOTH",
"494 463 OFFCURVE",
"422 355 OFFCURVE",
"347 355 CURVE SMOOTH",
"340 355 OFFCURVE",
"333 356 OFFCURVE",
"326 358 CURVE SMOOTH",
"323 359 OFFCURVE",
"320 359 OFFCURVE",
"317 359 CURVE SMOOTH",
"310 359 OFFCURVE",
"305 357 OFFCURVE",
"305 354 CURVE SMOOTH",
"305 352 OFFCURVE",
"307 350 OFFCURVE",
"313 348 CURVE SMOOTH",
"328 344 OFFCURVE",
"342 342 OFFCURVE",
"355 342 CURVE SMOOTH",
"459 342 OFFCURVE",
"529 454 OFFCURVE",
"529 550 CURVE SMOOTH",
"529 624 OFFCURVE",
"489 689 OFFCURVE",
"392 689 CURVE SMOOTH",
"203 689 OFFCURVE",
"18 447 OFFCURVE",
"18 219 CURVE SMOOTH",
"18 56 OFFCURVE",
"77 -93 OFFCURVE",
"214 -121 CURVE SMOOTH",
"225 -123 OFFCURVE",
"236 -124 OFFCURVE",
"246 -124 CURVE SMOOTH"
);
}
);
width = 498;
}
);
note = G;
unicode = 0047;
},
{
glyphname = H;
lastChange = "2021-11-19 13:27:11 +0000";
layers = (
{
anchors = (
{
name = bottom;
position = "{362, 0}";
},
{
name = center;
position = "{362, 340}";
},
{
name = top;
position = "{568, 680}";
},
{
name = topleft;
position = "{20, 680}";
}
);
background = {
paths = (
{
closed = 1;
nodes = (
"321 771 OFFCURVE",
"203 402 OFFCURVE",
"307 359 CURVE SMOOTH",
"327 351 OFFCURVE",
"356 365 OFFCURVE",
"344 368 CURVE SMOOTH",
"336 370 OFFCURVE",
"326 357 OFFCURVE",
"311 378 CURVE SMOOTH",
"275 427 OFFCURVE",
"308 630 OFFCURVE",
"368 677 CURVE SMOOTH",
"382 688 OFFCURVE",
"398 692 OFFCURVE",
"411 677 CURVE SMOOTH",
"467 613 OFFCURVE",
"446 434 OFFCURVE",
"400 271 CURVE SMOOTH",
"393 247 OFFCURVE",
"386 224 OFFCURVE",
"378 201 CURVE",
"331 209 OFFCURVE",
"290 211 OFFCURVE",
"262 206 CURVE SMOOTH",
"242 202 OFFCURVE",
"239 163 OFFCURVE",
"258 168 CURVE SMOOTH",
"285 174 OFFCURVE",
"324 175 OFFCURVE",
"368 172 CURVE",
"338 92 OFFCURVE",
"305 25 OFFCURVE",
"275 -10 CURVE SMOOTH",
"205 -89 OFFCURVE",
"105 -125 OFFCURVE",
"47 30 CURVE SMOOTH",
"9 132 OFFCURVE",
"18 284 OFFCURVE",
"101 373 CURVE SMOOTH",
"136 411 OFFCURVE",
"102 390 OFFCURVE",
"91 378 CURVE SMOOTH",
"68 355 OFFCURVE",
"39 313 OFFCURVE",
"25 281 CURVE SMOOTH",
"-5 211 OFFCURVE",
"-18 117 OFFCURVE",
"11 43 CURVE SMOOTH",
"104 -200 OFFCURVE",
"306 -72 OFFCURVE",
"383 115 CURVE SMOOTH",
"388 129 OFFCURVE",
"395 147 OFFCURVE",
"403 168 CURVE",
"455 161 OFFCURVE",
"512 148 OFFCURVE",
"564 131 CURVE",
"568 4 OFFCURVE",
"591 -123 OFFCURVE",
"661 -158 CURVE SMOOTH",
"776 -215 OFFCURVE",
"851 43 OFFCURVE",
"598 142 CURVE",
"597 177 OFFCURVE",
"597 212 OFFCURVE",
"599 248 CURVE SMOOTH",
"606 375 OFFCURVE",
"706 869 OFFCURVE",
"911 557 CURVE SMOOTH",
"936 520 OFFCURVE",
"941 538 OFFCURVE",
"927 558 CURVE SMOOTH",
"674 931 OFFCURVE",
"561 328 OFFCURVE",
"563 154 CURVE",
"516 170 OFFCURVE",
"462 185 OFFCURVE",
"412 195 CURVE",
"461 344 OFFCURVE",
"523 604 OFFCURVE",
"431 680 CURVE SMOOTH"
);
},
{
closed = 1;
nodes = (
"694 81 OFFCURVE",
"805 -36 OFFCURVE",
"722 -141 CURVE SMOOTH",
"711 -154 OFFCURVE",
"695 -162 OFFCURVE",
"679 -150 CURVE SMOOTH",
"628 -113 OFFCURVE",
"604 -5 OFFCURVE",
"599 118 CURVE"
);
}
);
};
layerId = "197ECFA8-A16D-41AC-99D0-22A54F6A6421";
paths = (
{
closed = 1;
nodes = (
"736 -166 OFFCURVE",
"768 -121 OFFCURVE",
"768 -63 CURVE SMOOTH",
"768 6 OFFCURVE",
"722 93 OFFCURVE",
"598 142 CURVE",
"598 156 OFFCURVE",
"597 171 OFFCURVE",
"597 186 CURVE SMOOTH",
"597 206 OFFCURVE",
"598 227 OFFCURVE",
"599 248 CURVE SMOOTH",
"604 345 OFFCURVE",
"664 659 OFFCURVE",
"785 659 CURVE SMOOTH",
"821 659 OFFCURVE",
"863 630 OFFCURVE",
"911 557 CURVE SMOOTH",
"927 534 OFFCURVE",
"935 532 OFFCURVE",
"935 539 CURVE SMOOTH",
"935 544 OFFCURVE",
"932 551 OFFCURVE",
"927 558 CURVE SMOOTH",
"869 643 OFFCURVE",
"819 678 OFFCURVE",
"775 678 CURVE SMOOTH",
"628 678 OFFCURVE",
"561 288 OFFCURVE",
"563 154 CURVE",
"516 170 OFFCURVE",
"462 185 OFFCURVE",
"412 195 CURVE",
"443 288 OFFCURVE",
"478 425 OFFCURVE",
"478 532 CURVE SMOOTH",
"478 597 OFFCURVE",
"465 652 OFFCURVE",
"431 680 CURVE SMOOTH",
"419 690 OFFCURVE",
"407 694 OFFCURVE",
"395 694 CURVE SMOOTH",
"328 694 OFFCURVE",
"267 551 OFFCURVE",
"267 451 CURVE SMOOTH",
"267 407 OFFCURVE",
"279 371 OFFCURVE",
"307 359 CURVE SMOOTH",
"311 357 OFFCURVE",
"316 357 OFFCURVE",
"321 357 CURVE SMOOTH",
"338 357 OFFCURVE",
"353 366 OFFCURVE",
"344 368 CURVE SMOOTH",
"340 369 OFFCURVE",
"335 366 OFFCURVE",
"329 366 CURVE SMOOTH",
"324 366 OFFCURVE",
"318 368 OFFCURVE",
"311 378 CURVE SMOOTH",
"301 392 OFFCURVE",
"296 419 OFFCURVE",
"296 450 CURVE SMOOTH",
"296 530 OFFCURVE",
"325 643 OFFCURVE",
"368 677 CURVE SMOOTH",
"376 683 OFFCURVE",
"384 687 OFFCURVE",
"392 687 CURVE SMOOTH",
"398 687 OFFCURVE",
"405 684 OFFCURVE",
"411 677 CURVE SMOOTH",
"435 650 OFFCURVE",
"445 602 OFFCURVE",
"445 543 CURVE SMOOTH",
"445 464 OFFCURVE",
"426 365 OFFCURVE",
"400 271 CURVE SMOOTH",
"393 247 OFFCURVE",
"386 224 OFFCURVE",
"378 201 CURVE",
"348 206 OFFCURVE",
"321 209 OFFCURVE",
"298 209 CURVE SMOOTH",
"284 209 OFFCURVE",
"272 208 OFFCURVE",
"262 206 CURVE SMOOTH",
"251 204 OFFCURVE",
"245 191 OFFCURVE",
"245 181 CURVE SMOOTH",
"245 173 OFFCURVE",
"249 166 OFFCURVE",
"258 168 CURVE SMOOTH",
"275 172 OFFCURVE",
"298 174 OFFCURVE",
"323 174 CURVE SMOOTH",
"337 174 OFFCURVE",
"352 173 OFFCURVE",
"368 172 CURVE",
"338 92 OFFCURVE",
"305 25 OFFCURVE",
"275 -10 CURVE SMOOTH",
"240 -49 OFFCURVE",
"198 -78 OFFCURVE",
"158 -78 CURVE SMOOTH",
"116 -78 OFFCURVE",
"76 -48 OFFCURVE",
"47 30 CURVE SMOOTH",
"33 67 OFFCURVE",
"25 111 OFFCURVE",
"25 156 CURVE SMOOTH",
"25 235 OFFCURVE",
"48 317 OFFCURVE",
"101 373 CURVE SMOOTH",
"112 385 OFFCURVE",
"116 391 OFFCURVE",
"116 394 CURVE SMOOTH",
"116 395 OFFCURVE",
"116 395 OFFCURVE",
"115 395 CURVE SMOOTH",
"111 395 OFFCURVE",
"97 385 OFFCURVE",
"91 378 CURVE SMOOTH",
"68 355 OFFCURVE",
"39 313 OFFCURVE",
"25 281 CURVE SMOOTH",
"7 238 OFFCURVE",
"-5 187 OFFCURVE",
"-5 136 CURVE SMOOTH",
"-5 104 OFFCURVE",
"0 72 OFFCURVE",
"11 43 CURVE SMOOTH",
"47 -52 OFFCURVE",
"101 -91 OFFCURVE",
"157 -91 CURVE SMOOTH",
"243 -91 OFFCURVE",
"340 0 OFFCURVE",
"383 115 CURVE SMOOTH",
"403 168 LINE",
"455 161 OFFCURVE",
"512 148 OFFCURVE",
"564 131 CURVE",
"568 4 OFFCURVE",
"591 -123 OFFCURVE",
"661 -158 CURVE SMOOTH",
"672 -164 OFFCURVE",
"683 -166 OFFCURVE",
"693 -166 CURVE SMOOTH"
);
},
{
closed = 1;
nodes = (
"690 -156 OFFCURVE",
"685 -154 OFFCURVE",
"679 -150 CURVE SMOOTH",
"628 -113 OFFCURVE",
"604 -5 OFFCURVE",
"599 118 CURVE",
"671 90 OFFCURVE",
"751 17 OFFCURVE",
"751 -62 CURVE SMOOTH",
"751 -88 OFFCURVE",
"742 -115 OFFCURVE",
"722 -141 CURVE SMOOTH",
"715 -150 OFFCURVE",
"705 -156 OFFCURVE",
"695 -156 CURVE SMOOTH"
);
}
);
width = 723;
}
);
note = H;
unicode = 0048;
},
{
glyphname = I;
lastChange = "2021-11-19 13:27:41 +0000";
layers = (
{
anchors = (
{
name = bottom;
position = "{221, -215}";
},
{
name = ogonek;
position = "{275, -205}";
},
{
name = top;
position = "{275, 664}";
},
{
name = topleft;
position = "{20, 680}";
}
);
background = {
paths = (
{
closed = 1;
nodes = (
"171 718 OFFCURVE",
"158 306 OFFCURVE",
"277 293 CURVE SMOOTH",
"300 291 OFFCURVE",
"325 313 OFFCURVE",
"312 313 CURVE SMOOTH",
"304 313 OFFCURVE",
"297 297 OFFCURVE",
"276 314 CURVE SMOOTH",
"225 353 OFFCURVE",
"199 570 OFFCURVE",
"246 636 CURVE SMOOTH",
"257 651 OFFCURVE",
"273 660 OFFCURVE",
"290 649 CURVE SMOOTH",
"366 600 OFFCURVE",
"398 411 OFFCURVE",
"398 231 CURVE SMOOTH",
"398 97 OFFCURVE",
"381 -31 OFFCURVE",
"352 -93 CURVE SMOOTH",
"305 -195 OFFCURVE",
"212 -260 OFFCURVE",
"108 -119 CURVE SMOOTH",
"39 -26 OFFCURVE",
"4 132 OFFCURVE",
"62 247 CURVE SMOOTH",
"87 296 OFFCURVE",
"59 265 OFFCURVE",
"50 249 CURVE SMOOTH",
"34 219 OFFCURVE",
"17 167 OFFCURVE",
"12 131 CURVE SMOOTH",
"2 51 OFFCURVE",
"16 -50 OFFCURVE",
"67 -117 CURVE SMOOTH",
"234 -337 OFFCURVE",
"402 -147 OFFCURVE",
"426 66 CURVE SMOOTH",
"439 186 OFFCURVE",
"452 596 OFFCURVE",
"309 658 CURVE SMOOTH"
);
}
);
};
layerId = "197ECFA8-A16D-41AC-99D0-22A54F6A6421";
paths = (
{
closed = 1;
nodes = (
"326 -215 OFFCURVE",
"410 -80 OFFCURVE",
"426 66 CURVE SMOOTH",
"430 101 OFFCURVE",
"434 159 OFFCURVE",
"434 227 CURVE SMOOTH",
"434 394 OFFCURVE",
"411 614 OFFCURVE",
"309 658 CURVE SMOOTH",
"300 662 OFFCURVE",
"291 664 OFFCURVE",
"282 664 CURVE SMOOTH",
"225 664 OFFCURVE",
"196 571 OFFCURVE",
"196 477 CURVE SMOOTH",
"196 388 OFFCURVE",
"223 299 OFFCURVE",
"277 293 CURVE SMOOTH",
"300 291 OFFCURVE",
"325 313 OFFCURVE",
"312 313 CURVE SMOOTH",
"307 313 OFFCURVE",
"302 306 OFFCURVE",
"293 306 CURVE SMOOTH",
"289 306 OFFCURVE",
"283 308 OFFCURVE",
"276 314 CURVE SMOOTH",
"244 339 OFFCURVE",
"221 435 OFFCURVE",
"221 519 CURVE SMOOTH",
"221 567 OFFCURVE",
"229 612 OFFCURVE",
"246 636 CURVE SMOOTH",
"254 646 OFFCURVE",
"264 654 OFFCURVE",
"275 654 CURVE SMOOTH",
"280 654 OFFCURVE",
"285 652 OFFCURVE",
"290 649 CURVE SMOOTH",
"366 600 OFFCURVE",
"398 411 OFFCURVE",
"398 231 CURVE SMOOTH",
"398 97 OFFCURVE",
"381 -31 OFFCURVE",
"352 -93 CURVE SMOOTH",
"324 -153 OFFCURVE",
"281 -200 OFFCURVE",
"228 -200 CURVE SMOOTH",
"192 -200 OFFCURVE",
"151 -177 OFFCURVE",
"108 -119 CURVE SMOOTH",
"63 -59 OFFCURVE",
"33 29 OFFCURVE",
"33 115 CURVE SMOOTH",
"33 161 OFFCURVE",
"42 207 OFFCURVE",
"62 247 CURVE SMOOTH",
"69 261 OFFCURVE",
"72 269 OFFCURVE",
"72 271 CURVE SMOOTH",
"72 273 OFFCURVE",
"72 273 OFFCURVE",
"71 273 CURVE SMOOTH",
"68 273 OFFCURVE",
"55 259 OFFCURVE",
"50 249 CURVE SMOOTH",
"34 219 OFFCURVE",
"17 167 OFFCURVE",
"12 131 CURVE SMOOTH",
"10 115 OFFCURVE",
"9 99 OFFCURVE",
"9 82 CURVE SMOOTH",
"9 12 OFFCURVE",
"26 -63 OFFCURVE",
"67 -117 CURVE SMOOTH",
"120 -186 OFFCURVE",
"172 -215 OFFCURVE",
"221 -215 CURVE SMOOTH"
);
}
);
width = 459;
}
);
note = I;
unicode = 0049;
},
{
glyphname = J;
lastChange = "2021-11-19 13:27:51 +0000";
layers = (
{
anchors = (
{
name = bottom;
position = "{140, 0}";
},
{
name = top;
position = "{195, 555}";
}
);
background = {
paths = (
{
closed = 1;
nodes = (
"32 456 OFFCURVE",
"42 418 OFFCURVE",
"59 429 CURVE SMOOTH",
"94 454 OFFCURVE",
"131 474 OFFCURVE",
"170 490 CURVE",
"191 350 OFFCURVE",
"274 -45 OFFCURVE",
"48 -218 CURVE SMOOTH",
"-59 -300 OFFCURVE",
"-183 -248 OFFCURVE",
"-88 -122 CURVE SMOOTH",
"-26 -40 OFFCURVE",
"8 -3 OFFCURVE",
"98 42 CURVE SMOOTH",
"115 51 OFFCURVE",
"117 65 OFFCURVE",
"100 56 CURVE SMOOTH",
"25 19 OFFCURVE",
"-50 -22 OFFCURVE",
"-104 -88 CURVE SMOOTH",
"-226 -237 OFFCURVE",
"-64 -331 OFFCURVE",
"72 -237 CURVE SMOOTH",
"272 -97 OFFCURVE",
"251 271 OFFCURVE",
"213 504 CURVE",
"255 516 OFFCURVE",
"299 521 OFFCURVE",
"347 516 CURVE SMOOTH",
"385 513 OFFCURVE",
"373 527 OFFCURVE",
"353 529 CURVE SMOOTH",
"302 533 OFFCURVE",
"254 532 OFFCURVE",
"209 526 CURVE",
"207 541 LINE SMOOTH",
"200 575 OFFCURVE",
"164 539 OFFCURVE",
"166 517 CURVE",
"125 506 OFFCURVE",
"87 490 OFFCURVE",
"49 466 CURVE SMOOTH"
);
}
);
};
layerId = "197ECFA8-A16D-41AC-99D0-22A54F6A6421";
paths = (
{
closed = 1;
nodes = (
"-5 -275 OFFCURVE",
"34 -263 OFFCURVE",
"72 -237 CURVE SMOOTH",
"201 -147 OFFCURVE",
"238 38 OFFCURVE",
"238 220 CURVE SMOOTH",
"238 321 OFFCURVE",
"227 421 OFFCURVE",
"213 504 CURVE",
"244 513 OFFCURVE",
"276 518 OFFCURVE",
"310 518 CURVE SMOOTH",
"322 518 OFFCURVE",
"335 517 OFFCURVE",
"347 516 CURVE SMOOTH",
"365 515 OFFCURVE",
"372 517 OFFCURVE",
"372 520 CURVE SMOOTH",
"372 524 OFFCURVE",
"364 528 OFFCURVE",
"353 529 CURVE SMOOTH",
"333 531 OFFCURVE",
"313 531 OFFCURVE",
"293 531 CURVE SMOOTH",
"264 531 OFFCURVE",
"236 530 OFFCURVE",
"209 526 CURVE",
"207 541 LINE SMOOTH",
"206 551 OFFCURVE",
"200 555 OFFCURVE",
"195 555 CURVE SMOOTH",
"182 555 OFFCURVE",
"165 533 OFFCURVE",
"166 517 CURVE",
"125 506 OFFCURVE",
"87 490 OFFCURVE",
"49 466 CURVE SMOOTH",
"43 462 OFFCURVE",
"40 455 OFFCURVE",
"40 448 CURVE SMOOTH",
"40 435 OFFCURVE",
"48 422 OFFCURVE",
"59 429 CURVE SMOOTH",
"94 454 OFFCURVE",
"131 474 OFFCURVE",
"170 490 CURVE",
"180 426 OFFCURVE",
"202 308 OFFCURVE",
"202 183 CURVE SMOOTH",
"202 35 OFFCURVE",
"171 -124 OFFCURVE",
"48 -218 CURVE SMOOTH",
"13 -245 OFFCURVE",
"-25 -258 OFFCURVE",
"-55 -258 CURVE SMOOTH",
"-94 -258 OFFCURVE",
"-122 -238 OFFCURVE",
"-122 -202 CURVE SMOOTH",
"-122 -181 OFFCURVE",
"-112 -154 OFFCURVE",
"-88 -122 CURVE SMOOTH",
"-26 -40 OFFCURVE",
"8 -3 OFFCURVE",
"98 42 CURVE SMOOTH",
"107 47 OFFCURVE",
"112 53 OFFCURVE",
"112 57 CURVE SMOOTH",
"112 58 OFFCURVE",
"111 59 OFFCURVE",
"109 59 CURVE SMOOTH",
"107 59 OFFCURVE",
"104 58 OFFCURVE",
"100 56 CURVE SMOOTH",
"25 19 OFFCURVE",
"-50 -22 OFFCURVE",
"-104 -88 CURVE SMOOTH",
"-134 -125 OFFCURVE",
"-147 -159 OFFCURVE",
"-147 -187 CURVE SMOOTH",
"-147 -241 OFFCURVE",
"-100 -275 OFFCURVE",
"-40 -275 CURVE SMOOTH"
);
}
);
width = 280;
}
);
note = J;
unicode = 004A;
},
{
glyphname = K;
lastChange = "2021-11-19 13:27:58 +0000";
layers = (
{
anchors = (
{
name = bottom;
position = "{405, -162}";
},
{
name = top;
position = "{314, 680}";
}
);
background = {
paths = (
{
closed = 1;
nodes = (
"903 457 OFFCURVE",
"913 492 OFFCURVE",
"894 498 CURVE SMOOTH",
"712 553 OFFCURVE",
"538 420 OFFCURVE",
"445 248 CURVE",
"488 401 OFFCURVE",
"516 588 OFFCURVE",
"439 653 CURVE SMOOTH",
"325 751 OFFCURVE",
"192 361 OFFCURVE",
"302 314 CURVE SMOOTH",
"324 305 OFFCURVE",
"354 319 OFFCURVE",
"341 323 CURVE SMOOTH",
"333 325 OFFCURVE",
"322 312 OFFCURVE",
"307 334 CURVE SMOOTH",
"269 387 OFFCURVE",
"308 602 OFFCURVE",
"373 651 CURVE SMOOTH",
"387 662 OFFCURVE",
"405 666 OFFCURVE",
"419 650 CURVE SMOOTH",
"477 581 OFFCURVE",
"452 391 OFFCURVE",
"399 219 CURVE SMOOTH",
"360 91 OFFCURVE",
"307 -27 OFFCURVE",
"261 -77 CURVE SMOOTH",
"186 -160 OFFCURVE",
"78 -197 OFFCURVE",
"20 -31 CURVE SMOOTH",
"-19 78 OFFCURVE",
"-7 240 OFFCURVE",
"83 333 CURVE SMOOTH",
"121 372 OFFCURVE",
"85 350 OFFCURVE",
"72 338 CURVE SMOOTH",
"47 314 OFFCURVE",
"16 270 OFFCURVE",
"1 236 CURVE SMOOTH",
"-32 163 OFFCURVE",
"-48 62 OFFCURVE",
"-19 -17 CURVE SMOOTH",
"76 -276 OFFCURVE",
"293 -144 OFFCURVE",
"378 53 CURVE SMOOTH",
"391 84 OFFCURVE",
"411 136 OFFCURVE",
"430 197 CURVE",
"431 194 LINE SMOOTH",
"484 65 OFFCURVE",
"595 -207 OFFCURVE",
"766 -213 CURVE SMOOTH",
"832 -216 OFFCURVE",
"874 -167 OFFCURVE",
"876 -103 CURVE SMOOTH",
"878 -60 OFFCURVE",
"859 -11 OFFCURVE",
"832 23 CURVE SMOOTH",
"824 32 OFFCURVE",
"812 33 OFFCURVE",
"820 21 CURVE SMOOTH",
"845 -16 OFFCURVE",
"860 -61 OFFCURVE",
"858 -107 CURVE SMOOTH",
"857 -143 OFFCURVE",
"843 -182 OFFCURVE",
"800 -181 CURVE SMOOTH",
"769 -180 OFFCURVE",
"735 -159 OFFCURVE",
"711 -141 CURVE SMOOTH",
"631 -83 OFFCURVE",
"497 108 OFFCURVE",
"447 201 CURVE SMOOTH",
"443 210 LINE",
"444 213 LINE",
"529 370 OFFCURVE",
"716 514 OFFCURVE",
"884 463 CURVE SMOOTH"
);
}
);
};
layerId = "197ECFA8-A16D-41AC-99D0-22A54F6A6421";
paths = (
{
closed = 1;
nodes = (
"836 -213 OFFCURVE",
"876 -162 OFFCURVE",
"876 -97 CURVE SMOOTH",
"876 -55 OFFCURVE",
"858 -9 OFFCURVE",
"832 23 CURVE SMOOTH",
"828 27 OFFCURVE",
"823 30 OFFCURVE",
"820 30 CURVE SMOOTH",
"818 30 OFFCURVE",
"817 29 OFFCURVE",
"817 27 CURVE SMOOTH",
"817 26 OFFCURVE",
"818 24 OFFCURVE",
"820 21 CURVE SMOOTH",
"844 -14 OFFCURVE",
"858 -56 OFFCURVE",
"858 -99 CURVE SMOOTH",
"858 -137 OFFCURVE",
"846 -181 OFFCURVE",
"802 -181 CURVE SMOOTH",
"770 -181 OFFCURVE",
"735 -159 OFFCURVE",
"711 -141 CURVE SMOOTH",
"631 -83 OFFCURVE",
"490 105 OFFCURVE",
"447 201 CURVE SMOOTH",
"443 210 LINE",
"444 213 LINE",
"517 348 OFFCURVE",
"666 473 OFFCURVE",
"813 473 CURVE SMOOTH",
"837 473 OFFCURVE",
"860 470 OFFCURVE",
"884 463 CURVE SMOOTH",
"896 459 OFFCURVE",
"904 471 OFFCURVE",
"904 483 CURVE SMOOTH",
"904 489 OFFCURVE",
"901 496 OFFCURVE",
"894 498 CURVE SMOOTH",
"866 507 OFFCURVE",
"837 511 OFFCURVE",
"810 511 CURVE SMOOTH",
"660 511 OFFCURVE",
"524 393 OFFCURVE",
"445 248 CURVE",
"468 331 OFFCURVE",
"487 425 OFFCURVE",
"487 503 CURVE SMOOTH",
"487 568 OFFCURVE",
"474 623 OFFCURVE",
"439 653 CURVE SMOOTH",
"426 664 OFFCURVE",
"413 669 OFFCURVE",
"401 669 CURVE SMOOTH",
"329 669 OFFCURVE",
"261 514 OFFCURVE",
"261 408 CURVE SMOOTH",
"261 363 OFFCURVE",
"273 326 OFFCURVE",
"302 314 CURVE SMOOTH",
"307 312 OFFCURVE",
"313 311 OFFCURVE",
"318 311 CURVE SMOOTH",
"336 311 OFFCURVE",
"351 320 OFFCURVE",
"341 323 CURVE SMOOTH",
"337 324 OFFCURVE",
"332 321 OFFCURVE",
"326 321 CURVE SMOOTH",
"320 321 OFFCURVE",
"314 324 OFFCURVE",
"307 334 CURVE SMOOTH",
"297 348 OFFCURVE",
"292 375 OFFCURVE",
"292 406 CURVE SMOOTH",
"292 491 OFFCURVE",
"326 615 OFFCURVE",
"373 651 CURVE SMOOTH",
"380 657 OFFCURVE",
"389 661 OFFCURVE",
"397 661 CURVE SMOOTH",
"405 661 OFFCURVE",
"412 658 OFFCURVE",
"419 650 CURVE SMOOTH",
"442 622 OFFCURVE",
"452 575 OFFCURVE",
"452 517 CURVE SMOOTH",
"452 431 OFFCURVE",
"431 322 OFFCURVE",
"399 219 CURVE SMOOTH",
"360 91 OFFCURVE",
"307 -27 OFFCURVE",
"261 -77 CURVE SMOOTH",
"224 -118 OFFCURVE",
"179 -147 OFFCURVE",
"137 -147 CURVE SMOOTH",
"92 -147 OFFCURVE",
"50 -116 OFFCURVE",
"20 -31 CURVE SMOOTH",
"6 7 OFFCURVE",
"-1 52 OFFCURVE",
"-1 98 CURVE SMOOTH",
"-1 183 OFFCURVE",
"24 273 OFFCURVE",
"83 333 CURVE SMOOTH",
"95 346 OFFCURVE",
"100 352 OFFCURVE",
"100 354 CURVE SMOOTH",
"100 355 OFFCURVE",
"100 355 OFFCURVE",
"99 355 CURVE SMOOTH",
"95 355 OFFCURVE",
"79 345 OFFCURVE",
"72 338 CURVE SMOOTH",
"47 314 OFFCURVE",
"16 270 OFFCURVE",
"1 236 CURVE SMOOTH",
"-20 190 OFFCURVE",
"-34 132 OFFCURVE",
"-34 75 CURVE SMOOTH",
"-34 43 OFFCURVE",
"-30 12 OFFCURVE",
"-19 -17 CURVE SMOOTH",
"19 -120 OFFCURVE",
"76 -161 OFFCURVE",
"136 -161 CURVE SMOOTH",
"227 -161 OFFCURVE",
"327 -66 OFFCURVE",
"378 53 CURVE SMOOTH",
"391 84 OFFCURVE",
"411 136 OFFCURVE",
"430 197 CURVE",
"431 194 LINE SMOOTH",
"476 60 OFFCURVE",
"598 -213 OFFCURVE",
"772 -213 CURVE SMOOTH"
);
}
);
width = 627;
}
);
note = K;
unicode = 004B;
},
{
glyphname = L;
lastChange = "2021-11-19 13:28:47 +0000";
layers = (
{
anchors = (
{
name = bottom;
position = "{260, 0}";
},
{
name = center;
position = "{260, 340}";
},
{
name = top;
position = "{533, 721}";
},
{
name = topright;
position = "{635, 710}";
}
);
background = {
paths = (
{
closed = 1;
nodes = (
"445 187 OFFCURVE",
"755 721 OFFCURVE",
"533 721 CURVE SMOOTH",
"338 721 OFFCURVE",
"158 369 OFFCURVE",
"90 222 CURVE",
"67 234 OFFCURVE",
"49 266 OFFCURVE",
"49 294 CURVE SMOOTH",
"49 302 OFFCURVE",
"52 330 OFFCURVE",
"40 330 CURVE SMOOTH",
"30 330 OFFCURVE",
"27 299 OFFCURVE",
"27 290 CURVE SMOOTH",
"27 251 OFFCURVE",
"57 210 OFFCURVE",
"83 205 CURVE",
"59 152 OFFCURVE",
"31 88 OFFCURVE",
"22 30 CURVE SMOOTH",
"19 12 OFFCURVE",
"17 -1 OFFCURVE",
"10 -18 CURVE",
"-128 -118 OFFCURVE",
"22 -172 OFFCURVE",
"47 -31 CURVE",
"188 24 OFFCURVE",
"235 55 OFFCURVE",
"399 55 CURVE SMOOTH",
"447 55 OFFCURVE",
"490 48 OFFCURVE",
"509 0 CURVE SMOOTH",
"521 -30 OFFCURVE",
"526 -20 OFFCURVE",
"526 7 CURVE SMOOTH",
"526 68 OFFCURVE",
"443 91 OFFCURVE",
"395 91 CURVE SMOOTH",
"275 91 OFFCURVE",
"151 65 OFFCURVE",
"48 2 CURVE",
"61 70 OFFCURVE",
"85 131 OFFCURVE",
"112 194 CURVE",
"125 188 OFFCURVE",
"140 187 OFFCURVE",
"155 187 CURVE SMOOTH"
);
},
{
closed = 1;
nodes = (
"689 695 OFFCURVE",
"415 205 OFFCURVE",
"150 205 CURVE SMOOTH",
"143 205 OFFCURVE",
"126 206 OFFCURVE",
"120 210 CURVE",
"181 343 OFFCURVE",
"393 695 OFFCURVE",
"539 695 CURVE SMOOTH"
);
}
);
};
layerId = "197ECFA8-A16D-41AC-99D0-22A54F6A6421";
paths = (
{
closed = 1;
nodes = (
"2 -117 OFFCURVE",
"36 -92 OFFCURVE",
"47 -31 CURVE",
"188 24 OFFCURVE",
"235 55 OFFCURVE",
"399 55 CURVE SMOOTH",
"447 55 OFFCURVE",
"490 48 OFFCURVE",
"509 0 CURVE SMOOTH",
"514 -13 OFFCURVE",
"518 -18 OFFCURVE",
"521 -18 CURVE SMOOTH",
"524 -18 OFFCURVE",
"526 -8 OFFCURVE",
"526 7 CURVE SMOOTH",
"526 68 OFFCURVE",
"443 91 OFFCURVE",
"395 91 CURVE SMOOTH",
"275 91 OFFCURVE",
"151 65 OFFCURVE",
"48 2 CURVE",
"61 70 OFFCURVE",
"85 131 OFFCURVE",
"112 194 CURVE",
"125 188 OFFCURVE",
"140 187 OFFCURVE",
"155 187 CURVE SMOOTH",
"376 187 OFFCURVE",
"609 497 OFFCURVE",
"609 645 CURVE SMOOTH",
"609 691 OFFCURVE",
"586 721 OFFCURVE",
"533 721 CURVE SMOOTH",
"338 721 OFFCURVE",
"158 369 OFFCURVE",
"90 222 CURVE",
"67 234 OFFCURVE",
"49 266 OFFCURVE",
"49 294 CURVE SMOOTH",
"49 302 OFFCURVE",
"52 330 OFFCURVE",
"40 330 CURVE SMOOTH",
"30 330 OFFCURVE",
"27 299 OFFCURVE",
"27 290 CURVE SMOOTH",
"27 251 OFFCURVE",
"57 210 OFFCURVE",
"83 205 CURVE",
"59 152 OFFCURVE",
"31 88 OFFCURVE",
"22 30 CURVE SMOOTH",
"19 12 OFFCURVE",
"17 -1 OFFCURVE",
"10 -18 CURVE",
"-32 -49 OFFCURVE",
"-48 -75 OFFCURVE",
"-48 -93 CURVE SMOOTH",
"-48 -108 OFFCURVE",
"-37 -117 OFFCURVE",
"-22 -117 CURVE SMOOTH"
);
},
{
closed = 1;
nodes = (
"143 205 OFFCURVE",
"126 206 OFFCURVE",
"120 210 CURVE",
"181 343 OFFCURVE",
"393 695 OFFCURVE",
"539 695 CURVE SMOOTH",
"568 695 OFFCURVE",
"582 676 OFFCURVE",
"582 646 CURVE SMOOTH",
"582 521 OFFCURVE",
"363 205 OFFCURVE",
"150 205 CURVE SMOOTH"
);
}
);
width = 520;
}
);
note = L;
unicode = 004C;
},
{
glyphname = Lslash;
lastChange = "2021-11-19 13:29:36 +0000";
layers = (
{
anchors = (
{
name = bottom;
position = "{260, 0}";
},
{
name = center;
position = "{260, 340}";
},
{
name = top;
position = "{533, 721}";
},
{
name = topright;
position = "{635, 710}";
}
);
background = {
components = (
{
name = L;
},
{
name = hyphen;
transform = "{0.97815, 0.20791, -0.20791, 0.97815, -62, -91}";
}
);
};
layerId = "197ECFA8-A16D-41AC-99D0-22A54F6A6421";
paths = (
{
closed = 1;
nodes = (
"2 -117 OFFCURVE",
"36 -92 OFFCURVE",
"47 -31 CURVE",
"188 24 OFFCURVE",
"235 55 OFFCURVE",
"399 55 CURVE SMOOTH",
"447 55 OFFCURVE",
"490 48 OFFCURVE",
"509 0 CURVE SMOOTH",
"514 -13 OFFCURVE",
"518 -18 OFFCURVE",
"521 -18 CURVE SMOOTH",
"524 -18 OFFCURVE",
"526 -8 OFFCURVE",
"526 7 CURVE SMOOTH",
"526 68 OFFCURVE",
"443 91 OFFCURVE",
"395 91 CURVE SMOOTH",
"275 91 OFFCURVE",
"151 65 OFFCURVE",
"48 2 CURVE",
"61 70 OFFCURVE",
"85 131 OFFCURVE",
"112 194 CURVE",
"125 188 OFFCURVE",
"140 187 OFFCURVE",
"155 187 CURVE SMOOTH",
"376 187 OFFCURVE",
"609 497 OFFCURVE",
"609 645 CURVE SMOOTH",
"609 691 OFFCURVE",
"586 721 OFFCURVE",
"533 721 CURVE SMOOTH",
"338 721 OFFCURVE",
"158 369 OFFCURVE",
"90 222 CURVE",
"67 234 OFFCURVE",
"49 266 OFFCURVE",
"49 294 CURVE SMOOTH",
"49 302 OFFCURVE",
"52 330 OFFCURVE",
"40 330 CURVE SMOOTH",
"30 330 OFFCURVE",
"27 299 OFFCURVE",
"27 290 CURVE SMOOTH",
"27 251 OFFCURVE",
"57 210 OFFCURVE",
"83 205 CURVE",
"59 152 OFFCURVE",
"31 88 OFFCURVE",
"22 30 CURVE SMOOTH",
"19 12 OFFCURVE",
"17 -1 OFFCURVE",
"10 -18 CURVE",
"-32 -49 OFFCURVE",
"-48 -75 OFFCURVE",
"-48 -93 CURVE SMOOTH",
"-48 -108 OFFCURVE",
"-37 -117 OFFCURVE",
"-22 -117 CURVE SMOOTH"
);
},
{
closed = 1;
nodes = (
"143 205 OFFCURVE",
"126 206 OFFCURVE",
"120 210 CURVE",
"181 343 OFFCURVE",
"393 695 OFFCURVE",
"539 695 CURVE SMOOTH",
"568 695 OFFCURVE",
"582 676 OFFCURVE",
"582 646 CURVE SMOOTH",
"582 521 OFFCURVE",
"363 205 OFFCURVE",
"150 205 CURVE SMOOTH"
);
},
{
closed = 1;
nodes = (
"62.24 113.295 OFFCURVE",
"129.879 131.762 OFFCURVE",
"176.83 141.741 CURVE SMOOTH",
"180.743 142.573 OFFCURVE",
"182.075 145.923 OFFCURVE",
"181.66 147.88 CURVE SMOOTH",
"181.244 149.836 OFFCURVE",
"180.058 150.606 OFFCURVE",
"177.894 151.168 CURVE",
"156.105 152.671 OFFCURVE",
"119.644 151.055 OFFCURVE",
"71.715 140.868 CURVE SMOOTH",
"44.327 135.046 OFFCURVE",
"13.442 126.437 OFFCURVE",
"-21.71 113.853 CURVE SMOOTH",
"-28.35 111.42 OFFCURVE",
"-3.589 91.124 OFFCURVE",
"2.072 93.35 CURVE SMOOTH"
);
}
);
width = 520;
}
);
unicode = 0141;
},
{
glyphname = M;
lastChange = "2021-11-18 16:34:37 +0000";
layers = (
{
background = {
paths = (
{
closed = 1;
nodes = (
"444 316 OFFCURVE",
"448 206 OFFCURVE",
"449 100 CURVE SMOOTH",
"450 45 OFFCURVE",
"489 46 OFFCURVE",
"501 113 CURVE SMOOTH",
"551 399 OFFCURVE",
"863 784 OFFCURVE",
"818 602 CURVE SMOOTH",
"789 488 OFFCURVE",
"621 148 OFFCURVE",
"625 -52 CURVE SMOOTH",
"626 -134 OFFCURVE",
"675 -243 OFFCURVE",
"772 -162 CURVE SMOOTH",
"776 -159 OFFCURVE",
"799 -121 OFFCURVE",
"781 -127 CURVE",
"783 -135 OFFCURVE",
"705 -218 OFFCURVE",
"675 -108 CURVE SMOOTH",
"631 52 OFFCURVE",
"725 288 OFFCURVE",
"803 430 CURVE SMOOTH",
"837 492 OFFCURVE",
"890 563 OFFCURVE",
"893 633 CURVE SMOOTH",
"896 683 OFFCURVE",
"845 698 OFFCURVE",
"800 675 CURVE SMOOTH",
"650 599 OFFCURVE",
"508 226 OFFCURVE",
"480 132 CURVE",
"480 132 LINE",
"476 178 OFFCURVE",
"484 316 OFFCURVE",
"473 415 CURVE SMOOTH",
"449 629 OFFCURVE",
"323 805 OFFCURVE",
"197 496 CURVE SMOOTH",
"162 409 OFFCURVE",
"144 319 OFFCURVE",
"129 227 CURVE",
"113 280 OFFCURVE",
"81 409 OFFCURVE",
"26 424 CURVE SMOOTH",
"20 426 OFFCURVE",
"-5 425 OFFCURVE",
"3 415 CURVE",
"49 393 OFFCURVE",
"91 205 OFFCURVE",
"99 159 CURVE SMOOTH",
"103 133 OFFCURVE",
"109 91 OFFCURVE",
"120 67 CURVE SMOOTH",
"140 19 OFFCURVE",
"161 76 OFFCURVE",
"154 129 CURVE SMOOTH",
"127 324 OFFCURVE",
"327 947 OFFCURVE",
"426 415 CURVE SMOOTH"
);
}
);
};
layerId = "197ECFA8-A16D-41AC-99D0-22A54F6A6421";
paths = (
{
closed = 1;
nodes = (
"727 -191 OFFCURVE",
"748 -182 OFFCURVE",
"772 -162 CURVE SMOOTH",
"776 -159 OFFCURVE",
"799 -121 OFFCURVE",
"781 -127 CURVE",
"782 -132 OFFCURVE",
"754 -165 OFFCURVE",
"725 -165 CURVE SMOOTH",
"706 -165 OFFCURVE",
"687 -151 OFFCURVE",
"675 -108 CURVE SMOOTH",
"667 -80 OFFCURVE",
"664 -49 OFFCURVE",
"664 -17 CURVE SMOOTH",
"664 133 OFFCURVE",
"739 313 OFFCURVE",
"803 430 CURVE SMOOTH",
"838 493 OFFCURVE",
"893 565 OFFCURVE",
"893 637 CURVE SMOOTH",
"893 669 OFFCURVE",
"870 686 OFFCURVE",
"841 686 CURVE SMOOTH",
"828 686 OFFCURVE",
"814 682 OFFCURVE",
"800 675 CURVE SMOOTH",
"650 599 OFFCURVE",
"508 226 OFFCURVE",
"480 132 CURVE",
"479 144 OFFCURVE",
"479 163 OFFCURVE",
"479 186 CURVE SMOOTH",
"479 264 LINE SMOOTH",
"479 314 OFFCURVE",
"478 369 OFFCURVE",
"473 415 CURVE SMOOTH",
"458 546 OFFCURVE",
"405 663 OFFCURVE",
"338 663 CURVE SMOOTH",
"295 663 OFFCURVE",
"246 616 OFFCURVE",
"197 496 CURVE SMOOTH",
"162 409 OFFCURVE",
"144 319 OFFCURVE",
"129 227 CURVE",
"113 280 OFFCURVE",
"81 409 OFFCURVE",
"26 424 CURVE SMOOTH",
"21 426 OFFCURVE",
"1 425 OFFCURVE",
"1 419 CURVE SMOOTH",
"1 418 OFFCURVE",
"2 416 OFFCURVE",
"3 415 CURVE",
"49 393 OFFCURVE",
"91 205 OFFCURVE",
"99 159 CURVE SMOOTH",
"103 133 OFFCURVE",
"109 91 OFFCURVE",
"120 67 CURVE SMOOTH",
"125 54 OFFCURVE",
"130 49 OFFCURVE",
"135 49 CURVE SMOOTH",
"146 49 OFFCURVE",
"155 77 OFFCURVE",
"155 108 CURVE SMOOTH",
"155 115 OFFCURVE",
"155 122 OFFCURVE",
"154 129 CURVE SMOOTH",
"152 141 OFFCURVE",
"152 155 OFFCURVE",
"152 170 CURVE SMOOTH",
"152 327 OFFCURVE",
"239 625 OFFCURVE",
"324 625 CURVE SMOOTH",
"361 625 OFFCURVE",
"398 567 OFFCURVE",
"426 415 CURVE SMOOTH",
"444 316 OFFCURVE",
"448 206 OFFCURVE",
"449 100 CURVE SMOOTH",
"449 74 OFFCURVE",
"458 61 OFFCURVE",
"469 61 CURVE SMOOTH",
"481 61 OFFCURVE",
"495 78 OFFCURVE",
"501 113 CURVE SMOOTH",
"542 348 OFFCURVE",
"759 649 OFFCURVE",
"811 649 CURVE SMOOTH",
"818 649 OFFCURVE",
"822 643 OFFCURVE",
"822 631 CURVE SMOOTH",
"822 624 OFFCURVE",
"821 614 OFFCURVE",
"818 602 CURVE SMOOTH",
"789 489 OFFCURVE",
"625 156 OFFCURVE",
"625 -45 CURVE SMOOTH",
"625 -108 OFFCURVE",
"652 -191 OFFCURVE",
"709 -191 CURVE SMOOTH"
);
}
);
width = 805;
}
);
note = M;
unicode = 004D;
},
{
glyphname = N;
lastChange = "2021-11-19 13:30:16 +0000";
layers = (
{
anchors = (
{
name = bottom;
position = "{158, 0}";
},
{
name = top;
position = "{328, 791}";
}
);
background = {
paths = (
{
closed = 1;
nodes = (
"141 645 OFFCURVE",
"92 595 OFFCURVE",
"74 542 CURVE SMOOTH",
"38 434 OFFCURVE",
"24 204 OFFCURVE",
"42 91 CURVE SMOOTH",
"46 67 OFFCURVE",
"55 31 OFFCURVE",
"84 30 CURVE SMOOTH",
"103 29 OFFCURVE",
"101 77 OFFCURVE",
"104 91 CURVE SMOOTH",
"164 435 OFFCURVE",
"564 914 OFFCURVE",
"501 698 CURVE SMOOTH",
"444 505 OFFCURVE",
"209 -2 OFFCURVE",
"261 -183 CURVE SMOOTH",
"283 -256 OFFCURVE",
"368 -300 OFFCURVE",
"429 -239 CURVE SMOOTH",
"434 -234 OFFCURVE",
"462 -189 OFFCURVE",
"440 -197 CURVE",
"443 -206 OFFCURVE",
"350 -306 OFFCURVE",
"313 -173 CURVE SMOOTH",
"260 18 OFFCURVE",
"373 301 OFFCURVE",
"466 472 CURVE SMOOTH",
"507 546 OFFCURVE",
"570 631 OFFCURVE",
"575 716 CURVE SMOOTH",
"578 775 OFFCURVE",
"513 800 OFFCURVE",
"463 766 CURVE SMOOTH",
"279 642 OFFCURVE",
"113 227 OFFCURVE",
"79 114 CURVE",
"61 357 OFFCURVE",
"137 527 OFFCURVE",
"138 559 CURVE SMOOTH"
);
}
);
};
layerId = "197ECFA8-A16D-41AC-99D0-22A54F6A6421";
paths = (
{
closed = 1;
nodes = (
"386 -268 OFFCURVE",
"409 -259 OFFCURVE",
"429 -239 CURVE SMOOTH",
"433 -235 OFFCURVE",
"448 -211 OFFCURVE",
"448 -201 CURVE SMOOTH",
"448 -197 OFFCURVE",
"446 -195 OFFCURVE",
"440 -197 CURVE",
"442 -202 OFFCURVE",
"408 -242 OFFCURVE",
"373 -242 CURVE SMOOTH",
"351 -242 OFFCURVE",
"328 -225 OFFCURVE",
"313 -173 CURVE SMOOTH",
"304 -139 OFFCURVE",
"299 -102 OFFCURVE",
"299 -64 CURVE SMOOTH",
"299 115 OFFCURVE",
"389 331 OFFCURVE",
"466 472 CURVE SMOOTH",
"507 546 OFFCURVE",
"570 631 OFFCURVE",
"575 716 CURVE SMOOTH",
"577 757 OFFCURVE",
"547 781 OFFCURVE",
"511 781 CURVE SMOOTH",
"495 781 OFFCURVE",
"478 776 OFFCURVE",
"463 766 CURVE SMOOTH",
"279 642 OFFCURVE",
"113 227 OFFCURVE",
"79 114 CURVE",
"77 140 OFFCURVE",
"76 165 OFFCURVE",
"76 189 CURVE SMOOTH",
"76 391 OFFCURVE",
"137 530 OFFCURVE",
"138 559 CURVE SMOOTH",
"139 593 OFFCURVE",
"132 605 OFFCURVE",
"123 605 CURVE SMOOTH",
"107 605 OFFCURVE",
"85 574 OFFCURVE",
"74 542 CURVE SMOOTH",
"49 466 OFFCURVE",
"34 329 OFFCURVE",
"34 215 CURVE SMOOTH",
"34 168 OFFCURVE",
"37 124 OFFCURVE",
"42 91 CURVE SMOOTH",
"46 67 OFFCURVE",
"55 31 OFFCURVE",
"84 30 CURVE SMOOTH",
"103 29 OFFCURVE",
"101 77 OFFCURVE",
"104 91 CURVE SMOOTH",
"154 375 OFFCURVE",
"436 752 OFFCURVE",
"496 752 CURVE SMOOTH",
"504 752 OFFCURVE",
"508 746 OFFCURVE",
"508 734 CURVE SMOOTH",
"508 726 OFFCURVE",
"506 714 OFFCURVE",
"501 698 CURVE SMOOTH",
"450 524 OFFCURVE",
"254 95 OFFCURVE",
"254 -121 CURVE SMOOTH",
"254 -144 OFFCURVE",
"256 -165 OFFCURVE",
"261 -183 CURVE SMOOTH",
"276 -232 OFFCURVE",
"319 -268 OFFCURVE",
"364 -268 CURVE SMOOTH"
);
}
);
width = 442;
}
);
note = N;
unicode = 004E;
},
{
glyphname = Eng;
lastChange = "2021-11-18 16:34:37 +0000";
layers = (
{
background = {
paths = (
{
closed = 1;
nodes = (
"15 -390 OFFCURVE",
"-12 -256 OFFCURVE",
"-4 -250 CURVE",
"-19 -231 OFFCURVE",
"-19 -284 OFFCURVE",
"-17 -291 CURVE SMOOTH",
"3 -375 OFFCURVE",
"99 -382 OFFCURVE",
"156 -331 CURVE SMOOTH",
"233 -259 OFFCURVE",
"352 53 OFFCURVE",
"447 328 CURVE SMOOTH",
"504 494 OFFCURVE",
"563 646 OFFCURVE",
"568 727 CURVE SMOOTH",
"571 786 OFFCURVE",
"513 800 OFFCURVE",
"463 766 CURVE SMOOTH",
"279 642 OFFCURVE",
"113 227 OFFCURVE",
"79 114 CURVE",
"61 357 OFFCURVE",
"137 527 OFFCURVE",
"138 559 CURVE SMOOTH",
"141 645 OFFCURVE",
"92 595 OFFCURVE",
"74 542 CURVE SMOOTH",
"38 434 OFFCURVE",
"24 204 OFFCURVE",
"42 91 CURVE SMOOTH",
"46 67 OFFCURVE",
"55 31 OFFCURVE",
"84 30 CURVE SMOOTH",
"103 29 OFFCURVE",
"101 77 OFFCURVE",
"104 91 CURVE SMOOTH",
"164 435 OFFCURVE",
"564 914 OFFCURVE",
"501 698 CURVE SMOOTH",
"477 615 OFFCURVE",
"458 486 OFFCURVE",
"419 343 CURVE SMOOTH",
"353 103 OFFCURVE",
"250 -171 OFFCURVE",
"116 -295 CURVE SMOOTH"
);
}
);
};
layerId = "197ECFA8-A16D-41AC-99D0-22A54F6A6421";
paths = (
{
closed = 1;
nodes = (
"102 -363 OFFCURVE",
"133 -352 OFFCURVE",
"156 -331 CURVE SMOOTH",
"233 -259 OFFCURVE",
"352 53 OFFCURVE",
"447 328 CURVE SMOOTH",
"504 494 OFFCURVE",
"563 646 OFFCURVE",
"568 727 CURVE SMOOTH",
"570 765 OFFCURVE",
"547 784 OFFCURVE",
"517 784 CURVE SMOOTH",
"500 784 OFFCURVE",
"481 778 OFFCURVE",
"463 766 CURVE SMOOTH",
"279 642 OFFCURVE",
"113 227 OFFCURVE",
"79 114 CURVE",
"77 140 OFFCURVE",
"76 165 OFFCURVE",
"76 189 CURVE SMOOTH",
"76 391 OFFCURVE",
"137 530 OFFCURVE",
"138 559 CURVE SMOOTH",
"139 593 OFFCURVE",
"132 605 OFFCURVE",
"123 605 CURVE SMOOTH",
"107 605 OFFCURVE",
"85 574 OFFCURVE",
"74 542 CURVE SMOOTH",
"49 466 OFFCURVE",
"34 329 OFFCURVE",
"34 215 CURVE SMOOTH",
"34 168 OFFCURVE",
"37 124 OFFCURVE",
"42 91 CURVE SMOOTH",
"46 67 OFFCURVE",
"55 31 OFFCURVE",
"84 30 CURVE SMOOTH",
"103 29 OFFCURVE",
"101 77 OFFCURVE",
"104 91 CURVE SMOOTH",
"154 375 OFFCURVE",
"436 752 OFFCURVE",
"496 752 CURVE SMOOTH",
"504 752 OFFCURVE",
"508 746 OFFCURVE",
"508 734 CURVE SMOOTH",
"508 726 OFFCURVE",
"506 714 OFFCURVE",
"501 698 CURVE SMOOTH",
"477 615 OFFCURVE",
"458 486 OFFCURVE",
"419 343 CURVE SMOOTH",
"353 103 OFFCURVE",
"250 -171 OFFCURVE",
"116 -295 CURVE SMOOTH",
"90 -320 OFFCURVE",
"68 -329 OFFCURVE",
"52 -329 CURVE SMOOTH",
"3 -329 OFFCURVE",
"-10 -254 OFFCURVE",
"-4 -250 CURVE",
"-15 -236 OFFCURVE",
"-18 -261 OFFCURVE",
"-18 -278 CURVE SMOOTH",
"-18 -284 OFFCURVE",
"-18 -289 OFFCURVE",
"-17 -291 CURVE",
"-5 -340 OFFCURVE",
"33 -363 OFFCURVE",
"74 -363 CURVE SMOOTH"
);
}
);
width = 442;
}
);
note = Eng;
unicode = 014A;
},
{
glyphname = O;
lastChange = "2021-11-19 13:33:24 +0000";
layers = (
{
anchors = (
{
name = bottom;
position = "{271, -162}";
},
{
name = center;
position = "{433, 340}";
},
{
name = ogonek;
position = "{314, -151}";
},
{
name = top;
position = "{548, 731}";
},
{
name = topleft;
position = "{20, 680}";
},
{
name = topright;
position = "{625, 680}";
}
);
background = {
paths = (
{
closed = 1;
nodes = (
"777 618 OFFCURVE",
"565 838 OFFCURVE",
"326 671 CURVE",
"337 685 OFFCURVE",
"375 733 OFFCURVE",
"389 738 CURVE SMOOTH",
"403 744 OFFCURVE",
"415 764 OFFCURVE",
"381 756 CURVE SMOOTH",
"349 748 OFFCURVE",
"296 686 OFFCURVE",
"251 612 CURVE",
"211 574 OFFCURVE",
"170 531 OFFCURVE",
"126 476 CURVE SMOOTH",
"-42 266 OFFCURVE",
"-4 93 OFFCURVE",
"90 105 CURVE",
"83 -129 OFFCURVE",
"212 -242 OFFCURVE",
"475 -97 CURVE SMOOTH",
"625 -14 OFFCURVE",
"789 207 OFFCURVE",
"782 448 CURVE SMOOTH"
);
},
{
closed = 1;
nodes = (
"151 426 OFFCURVE",
"104 282 OFFCURVE",
"90 140 CURVE",
"75 146 OFFCURVE",
"60 157 OFFCURVE",
"51 175 CURVE SMOOTH",
"9 252 OFFCURVE",
"75 368 OFFCURVE",
"140 457 CURVE SMOOTH",
"162 489 OFFCURVE",
"186 519 OFFCURVE",
"209 546 CURVE"
);
},
{
closed = 1;
nodes = (
"746 243 OFFCURVE",
"626 7 OFFCURVE",
"469 -79 CURVE SMOOTH",
"225 -213 OFFCURVE",
"137 -59 OFFCURVE",
"132 126 CURVE",
"143 131 OFFCURVE",
"155 139 OFFCURVE",
"166 148 CURVE SMOOTH",
"173 155 OFFCURVE",
"144 151 OFFCURVE",
"130 153 CURVE",
"135 336 OFFCURVE",
"189 496 OFFCURVE",
"270 608 CURVE",
"472 790 OFFCURVE",
"722 702 OFFCURVE",
"737 419 CURVE SMOOTH"
);
}
);
};
layerId = "197ECFA8-A16D-41AC-99D0-22A54F6A6421";
paths = (
{
closed = 1;
nodes = (
"327 -162 OFFCURVE",
"395 -141 OFFCURVE",
"475 -97 CURVE SMOOTH",
"625 -14 OFFCURVE",
"789 207 OFFCURVE",
"782 448 CURVE SMOOTH",
"778 575 OFFCURVE",
"659 731 OFFCURVE",
"498 731 CURVE SMOOTH",
"444 731 OFFCURVE",
"386 713 OFFCURVE",
"326 671 CURVE",
"337 685 OFFCURVE",
"375 733 OFFCURVE",
"389 738 CURVE SMOOTH",
"396 741 OFFCURVE",
"403 748 OFFCURVE",
"403 753 CURVE SMOOTH",
"403 756 OFFCURVE",
"401 758 OFFCURVE",
"394 758 CURVE SMOOTH",
"391 758 OFFCURVE",
"387 757 OFFCURVE",
"381 756 CURVE SMOOTH",
"349 748 OFFCURVE",
"296 686 OFFCURVE",
"251 612 CURVE",
"211 574 OFFCURVE",
"170 531 OFFCURVE",
"126 476 CURVE SMOOTH",
"42 371 OFFCURVE",
"10 276 OFFCURVE",
"10 208 CURVE SMOOTH",
"10 140 OFFCURVE",
"43 99 OFFCURVE",
"90 105 CURVE",
"85 -57 OFFCURVE",
"146 -162 OFFCURVE",
"271 -162 CURVE SMOOTH"
);
},
{
closed = 1;
nodes = (
"75 146 OFFCURVE",
"60 157 OFFCURVE",
"51 175 CURVE SMOOTH",
"42 192 OFFCURVE",
"38 211 OFFCURVE",
"38 230 CURVE SMOOTH",
"38 301 OFFCURVE",
"89 387 OFFCURVE",
"140 457 CURVE SMOOTH",
"162 489 OFFCURVE",
"186 519 OFFCURVE",
"209 546 CURVE",
"151 426 OFFCURVE",
"104 282 OFFCURVE",
"90 140 CURVE"
);
},
{
closed = 1;
nodes = (
"184 -130 OFFCURVE",
"136 -10 OFFCURVE",
"132 126 CURVE",
"143 131 OFFCURVE",
"155 139 OFFCURVE",
"166 148 CURVE SMOOTH",
"170 152 OFFCURVE",
"163 152 OFFCURVE",
"155 152 CURVE SMOOTH",
"144 152 LINE SMOOTH",
"139 152 OFFCURVE",
"134 152 OFFCURVE",
"130 153 CURVE",
"135 336 OFFCURVE",
"189 496 OFFCURVE",
"270 608 CURVE",
"342 673 OFFCURVE",
"419 703 OFFCURVE",
"490 703 CURVE SMOOTH",
"620 703 OFFCURVE",
"727 602 OFFCURVE",
"737 419 CURVE SMOOTH",
"746 243 OFFCURVE",
"626 7 OFFCURVE",
"469 -79 CURVE SMOOTH",
"405 -114 OFFCURVE",
"351 -130 OFFCURVE",
"307 -130 CURVE SMOOTH"
);
}
);
width = 770;
}
);
note = O;
unicode = 004F;
},
{
glyphname = Oslash;
lastChange = "2021-11-19 13:33:36 +0000";
layers = (
{
anchors = (
{
name = bottom;
position = "{385, 0}";
},
{
name = top;
position = "{551, 728}";
}
);
background = {
paths = (
{
closed = 1;
nodes = (
"151 426 OFFCURVE",
"104 282 OFFCURVE",
"90 140 CURVE",
"75 146 OFFCURVE",
"60 157 OFFCURVE",
"51 175 CURVE SMOOTH",
"9 252 OFFCURVE",
"75 368 OFFCURVE",
"140 457 CURVE SMOOTH",
"162 489 OFFCURVE",
"186 519 OFFCURVE",
"209 546 CURVE"
);
},
{
closed = 1;
nodes = (
"137 56 OFFCURVE",
"133 90 OFFCURVE",
"132 126 CURVE",
"143 131 OFFCURVE",
"155 139 OFFCURVE",
"166 148 CURVE SMOOTH",
"173 155 OFFCURVE",
"144 151 OFFCURVE",
"130 153 CURVE",
"135 336 OFFCURVE",
"189 496 OFFCURVE",
"270 608 CURVE",
"419 742 OFFCURVE",
"594 730 OFFCURVE",
"681 601 CURVE",
"535 475 OFFCURVE",
"281 221 OFFCURVE",
"145 25 CURVE"
);
},
{
closed = 1;
nodes = (
"720 531 OFFCURVE",
"734 479 OFFCURVE",
"737 419 CURVE SMOOTH",
"746 243 OFFCURVE",
"626 7 OFFCURVE",
"469 -79 CURVE SMOOTH",
"285 -180 OFFCURVE",
"190 -118 OFFCURVE",
"152 -2 CURVE",
"281 199 OFFCURVE",
"534 435 OFFCURVE",
"698 573 CURVE"
);
},
{
closed = 1;
nodes = (
"815 667 OFFCURVE",
"766 669 OFFCURVE",
"733 644 CURVE SMOOTH",
"726 638 OFFCURVE",
"718 632 OFFCURVE",
"710 625 CURVE",
"627 724 OFFCURVE",
"482 780 OFFCURVE",
"326 671 CURVE",
"337 685 OFFCURVE",
"375 733 OFFCURVE",
"389 738 CURVE SMOOTH",
"403 744 OFFCURVE",
"415 764 OFFCURVE",
"381 756 CURVE SMOOTH",
"349 748 OFFCURVE",
"296 686 OFFCURVE",
"251 612 CURVE",
"211 574 OFFCURVE",
"170 531 OFFCURVE",
"126 476 CURVE SMOOTH",
"-42 266 OFFCURVE",
"-4 93 OFFCURVE",
"90 105 CURVE",
"89 52 OFFCURVE",
"94 5 OFFCURVE",
"107 -34 CURVE",
"80 -78 OFFCURVE",
"62 -117 OFFCURVE",
"56 -149 CURVE SMOOTH",
"54 -156 OFFCURVE",
"75 -175 OFFCURVE",
"76 -168 CURVE SMOOTH",
"83 -135 OFFCURVE",
"97 -100 OFFCURVE",
"117 -62 CURVE",
"167 -172 OFFCURVE",
"287 -200 OFFCURVE",
"475 -97 CURVE SMOOTH",
"625 -14 OFFCURVE",
"789 207 OFFCURVE",
"782 448 CURVE SMOOTH",
"781 498 OFFCURVE",
"762 552 OFFCURVE",
"729 599 CURVE",
"754 620 OFFCURVE",
"776 638 OFFCURVE",
"794 652 CURVE SMOOTH"
);
}
);
};
layerId = "197ECFA8-A16D-41AC-99D0-22A54F6A6421";
paths = (
{
closed = 1;
nodes = (
"75 -170 OFFCURVE",
"76 -169 OFFCURVE",
"76 -168 CURVE SMOOTH",
"83 -135 OFFCURVE",
"97 -100 OFFCURVE",
"117 -62 CURVE",
"146 -125 OFFCURVE",
"197 -161 OFFCURVE",
"271 -161 CURVE SMOOTH",
"327 -161 OFFCURVE",
"395 -141 OFFCURVE",
"475 -97 CURVE SMOOTH",
"625 -14 OFFCURVE",
"789 207 OFFCURVE",
"782 448 CURVE SMOOTH",
"781 498 OFFCURVE",
"762 552 OFFCURVE",
"729 599 CURVE",
"754 620 OFFCURVE",
"776 638 OFFCURVE",
"794 652 CURVE",
"798 654 OFFCURVE",
"799 657 OFFCURVE",
"799 658 CURVE SMOOTH",
"799 661 OFFCURVE",
"794 663 OFFCURVE",
"787 663 CURVE SMOOTH",
"773 663 OFFCURVE",
"751 657 OFFCURVE",
"733 644 CURVE SMOOTH",
"726 638 OFFCURVE",
"718 632 OFFCURVE",
"710 625 CURVE",
"659 686 OFFCURVE",
"584 730 OFFCURVE",
"498 730 CURVE SMOOTH",
"445 730 OFFCURVE",
"386 713 OFFCURVE",
"326 671 CURVE",
"337 685 OFFCURVE",
"375 733 OFFCURVE",
"389 738 CURVE SMOOTH",
"396 741 OFFCURVE",
"403 748 OFFCURVE",
"403 753 CURVE SMOOTH",
"403 756 OFFCURVE",
"401 758 OFFCURVE",
"394 758 CURVE SMOOTH",
"391 758 OFFCURVE",
"387 757 OFFCURVE",
"381 756 CURVE SMOOTH",
"349 748 OFFCURVE",
"296 686 OFFCURVE",
"251 612 CURVE",
"211 574 OFFCURVE",
"170 531 OFFCURVE",
"126 476 CURVE SMOOTH",
"42 371 OFFCURVE",
"10 276 OFFCURVE",
"10 208 CURVE SMOOTH",
"10 140 OFFCURVE",
"43 99 OFFCURVE",
"90 105 CURVE",
"89 52 OFFCURVE",
"94 5 OFFCURVE",
"107 -34 CURVE",
"80 -78 OFFCURVE",
"62 -117 OFFCURVE",
"56 -149 CURVE",
"54 -155 OFFCURVE",
"69 -170 OFFCURVE",
"74 -170 CURVE SMOOTH"
);
},
{
closed = 1;
nodes = (
"75 146 OFFCURVE",
"60 157 OFFCURVE",
"51 175 CURVE SMOOTH",
"42 192 OFFCURVE",
"38 211 OFFCURVE",
"38 230 CURVE SMOOTH",
"38 301 OFFCURVE",
"89 387 OFFCURVE",
"140 457 CURVE SMOOTH",
"162 489 OFFCURVE",
"186 519 OFFCURVE",
"209 546 CURVE",
"151 426 OFFCURVE",
"104 282 OFFCURVE",
"90 140 CURVE"
);
},
{
closed = 1;
nodes = (
"225 -130 OFFCURVE",
"177 -77 OFFCURVE",
"152 -2 CURVE",
"281 199 OFFCURVE",
"534 435 OFFCURVE",
"698 573 CURVE",
"722 527 OFFCURVE",
"737 468 OFFCURVE",
"737 400 CURVE SMOOTH",
"737 227 OFFCURVE",
"620 4 OFFCURVE",
"469 -79 CURVE SMOOTH",
"404 -114 OFFCURVE",
"351 -130 OFFCURVE",
"307 -130 CURVE SMOOTH"
);
},
{
closed = 1;
nodes = (
"137 56 OFFCURVE",
"133 90 OFFCURVE",
"132 126 CURVE",
"143 131 OFFCURVE",
"155 139 OFFCURVE",
"166 148 CURVE SMOOTH",
"170 152 OFFCURVE",
"163 152 OFFCURVE",
"155 152 CURVE SMOOTH",
"144 152 LINE SMOOTH",
"139 152 OFFCURVE",
"134 152 OFFCURVE",
"130 153 CURVE",
"135 336 OFFCURVE",
"189 496 OFFCURVE",
"270 608 CURVE",
"342 673 OFFCURVE",
"420 703 OFFCURVE",
"491 703 CURVE SMOOTH",
"567 703 OFFCURVE",
"636 668 OFFCURVE",
"681 601 CURVE",
"535 475 OFFCURVE",
"281 221 OFFCURVE",
"145 25 CURVE"
);
}
);
width = 770;
}
);
note = Oslash;
unicode = 00D8;
},
{
glyphname = OE;
lastChange = "2021-11-18 16:34:37 +0000";
layers = (
{
background = {
paths = (
{
closed = 1;
nodes = (
"151 426 OFFCURVE",
"104 282 OFFCURVE",
"90 140 CURVE",
"75 146 OFFCURVE",
"60 157 OFFCURVE",
"51 175 CURVE SMOOTH",
"9 252 OFFCURVE",
"75 368 OFFCURVE",
"140 457 CURVE SMOOTH",
"162 489 OFFCURVE",
"186 519 OFFCURVE",
"209 546 CURVE"
);
},
{
closed = 1;
nodes = (
"746 243 OFFCURVE",
"621 4 OFFCURVE",
"469 -79 CURVE SMOOTH",
"225 -213 OFFCURVE",
"137 -59 OFFCURVE",
"132 126 CURVE",
"143 131 OFFCURVE",
"155 139 OFFCURVE",
"166 148 CURVE SMOOTH",
"173 155 OFFCURVE",
"144 151 OFFCURVE",
"130 153 CURVE",
"135 336 OFFCURVE",
"189 496 OFFCURVE",
"270 608 CURVE",
"472 790 OFFCURVE",
"722 702 OFFCURVE",
"737 419 CURVE SMOOTH"
);
},
{
closed = 1;
nodes = (
"1287 164 OFFCURVE",
"1273 169 OFFCURVE",
"1261 141 CURVE SMOOTH",
"1160 -90 OFFCURVE",
"708 -163 OFFCURVE",
"759 274 CURVE SMOOTH",
"760 280 OFFCURVE",
"762 285 OFFCURVE",
"763 291 CURVE",
"793 296 OFFCURVE",
"823 306 OFFCURVE",
"846 311 CURVE SMOOTH",
"1133 374 OFFCURVE",
"1321 445 OFFCURVE",
"846 340 CURVE SMOOTH",
"826 335 OFFCURVE",
"797 331 OFFCURVE",
"772 329 CURVE",
"773 333 OFFCURVE",
"774 337 OFFCURVE",
"774 341 CURVE",
"890 702 OFFCURVE",
"1316 756 OFFCURVE",
"1215 580 CURVE SMOOTH",
"1187 529 OFFCURVE",
"1246 558 OFFCURVE",
"1264 628 CURVE SMOOTH",
"1307 801 OFFCURVE",
"939 692 OFFCURVE",
"782 443 CURVE",
"782 448 LINE SMOOTH",
"778 618 OFFCURVE",
"565 838 OFFCURVE",
"326 671 CURVE",
"337 685 OFFCURVE",
"375 733 OFFCURVE",
"389 738 CURVE SMOOTH",
"403 744 OFFCURVE",
"415 764 OFFCURVE",
"381 756 CURVE SMOOTH",
"349 748 OFFCURVE",
"296 686 OFFCURVE",
"251 612 CURVE",
"211 574 OFFCURVE",
"170 531 OFFCURVE",
"126 476 CURVE SMOOTH",
"-42 266 OFFCURVE",
"-4 93 OFFCURVE",
"90 105 CURVE",
"83 -129 OFFCURVE",
"212 -242 OFFCURVE",
"475 -97 CURVE SMOOTH",
"560 -50 OFFCURVE",
"650 42 OFFCURVE",
"711 157 CURVE",
"744 -190 OFFCURVE",
"1203 -80 OFFCURVE",
"1278 138 CURVE SMOOTH"
);
}
);
};
layerId = "197ECFA8-A16D-41AC-99D0-22A54F6A6421";
paths = (
{
closed = 1;
nodes = (
"327 -162 OFFCURVE",
"395 -141 OFFCURVE",
"475 -97 CURVE SMOOTH",
"560 -50 OFFCURVE",
"650 42 OFFCURVE",
"711 157 CURVE",
"726 -3 OFFCURVE",
"832 -66 OFFCURVE",
"949 -66 CURVE SMOOTH",
"1085 -66 OFFCURVE",
"1238 20 OFFCURVE",
"1278 138 CURVE SMOOTH",
"1280 144 OFFCURVE",
"1281 148 OFFCURVE",
"1281 152 CURVE SMOOTH",
"1281 157 OFFCURVE",
"1279 160 OFFCURVE",
"1276 160 CURVE SMOOTH",
"1273 160 OFFCURVE",
"1267 154 OFFCURVE",
"1261 141 CURVE SMOOTH",
"1213 31 OFFCURVE",
"1085 -44 OFFCURVE",
"969 -44 CURVE SMOOTH",
"856 -44 OFFCURVE",
"755 28 OFFCURVE",
"755 209 CURVE SMOOTH",
"755 229 OFFCURVE",
"756 251 OFFCURVE",
"759 274 CURVE SMOOTH",
"760 280 OFFCURVE",
"762 285 OFFCURVE",
"763 291 CURVE",
"793 296 OFFCURVE",
"823 306 OFFCURVE",
"846 311 CURVE SMOOTH",
"1027 351 OFFCURVE",
"1168 394 OFFCURVE",
"1129 394 CURVE SMOOTH",
"1107 394 OFFCURVE",
"1022 379 OFFCURVE",
"846 340 CURVE SMOOTH",
"826 335 OFFCURVE",
"797 331 OFFCURVE",
"772 329 CURVE",
"773 333 OFFCURVE",
"774 337 OFFCURVE",
"774 341 CURVE",
"848 572 OFFCURVE",
"1049 677 OFFCURVE",
"1158 677 CURVE SMOOTH",
"1201 677 OFFCURVE",
"1230 660 OFFCURVE",
"1230 628 CURVE SMOOTH",
"1230 614 OFFCURVE",
"1226 598 OFFCURVE",
"1215 580 CURVE SMOOTH",
"1210 570 OFFCURVE",
"1207 564 OFFCURVE",
"1207 559 CURVE SMOOTH",
"1207 556 OFFCURVE",
"1209 554 OFFCURVE",
"1212 554 CURVE SMOOTH",
"1223 554 OFFCURVE",
"1252 582 OFFCURVE",
"1264 628 CURVE SMOOTH",
"1266 637 OFFCURVE",
"1267 646 OFFCURVE",
"1267 654 CURVE SMOOTH",
"1267 694 OFFCURVE",
"1238 712 OFFCURVE",
"1192 712 CURVE SMOOTH",
"1084 712 OFFCURVE",
"886 609 OFFCURVE",
"782 443 CURVE",
"782 448 LINE SMOOTH",
"779 575 OFFCURVE",
"659 731 OFFCURVE",
"498 731 CURVE SMOOTH",
"445 731 OFFCURVE",
"386 713 OFFCURVE",
"326 671 CURVE",
"337 685 OFFCURVE",
"375 733 OFFCURVE",
"389 738 CURVE SMOOTH",
"396 741 OFFCURVE",
"403 748 OFFCURVE",
"403 753 CURVE SMOOTH",
"403 756 OFFCURVE",
"401 758 OFFCURVE",
"394 758 CURVE SMOOTH",
"391 758 OFFCURVE",
"387 757 OFFCURVE",
"381 756 CURVE SMOOTH",
"349 748 OFFCURVE",
"296 686 OFFCURVE",
"251 612 CURVE",
"211 574 OFFCURVE",
"170 531 OFFCURVE",
"126 476 CURVE SMOOTH",
"42 371 OFFCURVE",
"10 276 OFFCURVE",
"10 208 CURVE SMOOTH",
"10 140 OFFCURVE",
"43 99 OFFCURVE",
"90 105 CURVE",
"85 -57 OFFCURVE",
"146 -162 OFFCURVE",
"271 -162 CURVE SMOOTH"
);
},
{
closed = 1;
nodes = (
"75 146 OFFCURVE",
"60 157 OFFCURVE",
"51 175 CURVE SMOOTH",
"42 192 OFFCURVE",
"38 211 OFFCURVE",
"38 230 CURVE SMOOTH",
"38 301 OFFCURVE",
"89 387 OFFCURVE",
"140 457 CURVE SMOOTH",
"162 489 OFFCURVE",
"186 519 OFFCURVE",
"209 546 CURVE",
"151 426 OFFCURVE",
"104 282 OFFCURVE",
"90 140 CURVE"
);
},
{
closed = 1;
nodes = (
"184 -130 OFFCURVE",
"136 -10 OFFCURVE",
"132 126 CURVE",
"143 131 OFFCURVE",
"155 139 OFFCURVE",
"166 148 CURVE SMOOTH",
"170 152 OFFCURVE",
"163 152 OFFCURVE",
"155 152 CURVE SMOOTH",
"144 152 LINE SMOOTH",
"139 152 OFFCURVE",
"134 152 OFFCURVE",
"130 153 CURVE",
"135 336 OFFCURVE",
"189 496 OFFCURVE",
"270 608 CURVE",
"342 673 OFFCURVE",
"419 703 OFFCURVE",
"490 703 CURVE SMOOTH",
"620 703 OFFCURVE",
"727 602 OFFCURVE",
"737 419 CURVE SMOOTH",
"746 243 OFFCURVE",
"621 4 OFFCURVE",
"469 -79 CURVE SMOOTH",
"405 -114 OFFCURVE",
"351 -130 OFFCURVE",
"307 -130 CURVE SMOOTH"
);
}
);
width = 1302;
}
);
note = OE;
unicode = 0152;
},
{
glyphname = P;
lastChange = "2021-11-18 16:34:37 +0000";
layers = (
{
background = {
paths = (
{
closed = 1;
nodes = (
"-28 195 OFFCURVE",
"22 323 OFFCURVE",
"175 402 CURVE",
"157 335 OFFCURVE",
"147 273 OFFCURVE",
"142 216 CURVE"
);
},
{
closed = 1;
nodes = (
"331 674 OFFCURVE",
"335 674 OFFCURVE",
"340 676 CURVE SMOOTH",
"480 729 OFFCURVE",
"798 729 OFFCURVE",
"630 502 CURVE SMOOTH",
"540 380 OFFCURVE",
"386 264 OFFCURVE",
"177 222 CURVE",
"187 281 OFFCURVE",
"204 349 OFFCURVE",
"229 426 CURVE",
"278 445 OFFCURVE",
"333 458 OFFCURVE",
"394 461 CURVE SMOOTH",
"441 463 OFFCURVE",
"444 479 OFFCURVE",
"421 477 CURVE SMOOTH",
"354 474 OFFCURVE",
"291 460 OFFCURVE",
"234 441 CURVE",
"258 511 OFFCURVE",
"289 589 OFFCURVE",
"328 675 CURVE"
);
},
{
closed = 1;
nodes = (
"387 796 OFFCURVE",
"346 814 OFFCURVE",
"331 787 CURVE SMOOTH",
"258 654 OFFCURVE",
"210 531 OFFCURVE",
"179 420 CURVE",
"-17 333 OFFCURVE",
"-99 183 OFFCURVE",
"141 201 CURVE",
"120 -102 OFFCURVE",
"257 -264 OFFCURVE",
"377 -214 CURVE SMOOTH",
"398 -205 OFFCURVE",
"383 -170 OFFCURVE",
"368 -188 CURVE SMOOTH",
"347 -212 OFFCURVE",
"121 -170 OFFCURVE",
"174 204 CURVE",
"379 229 OFFCURVE",
"558 347 OFFCURVE",
"656 468 CURVE SMOOTH",
"776 616 OFFCURVE",
"719 759 OFFCURVE",
"416 708 CURVE SMOOTH",
"370 701 OFFCURVE",
"369 705 OFFCURVE",
"340 700 CURVE",
"350 721 OFFCURVE",
"361 743 OFFCURVE",
"372 765 CURVE SMOOTH"
);
}
);
};
layerId = "197ECFA8-A16D-41AC-99D0-22A54F6A6421";
paths = (
{
closed = 1;
nodes = (
"348 -223 OFFCURVE",
"363 -220 OFFCURVE",
"377 -214 CURVE SMOOTH",
"385 -211 OFFCURVE",
"388 -204 OFFCURVE",
"388 -198 CURVE SMOOTH",
"388 -190 OFFCURVE",
"383 -183 OFFCURVE",
"377 -183 CURVE SMOOTH",
"374 -183 OFFCURVE",
"371 -184 OFFCURVE",
"368 -188 CURVE SMOOTH",
"365 -191 OFFCURVE",
"358 -193 OFFCURVE",
"348 -193 CURVE SMOOTH",
"296 -193 OFFCURVE",
"166 -135 OFFCURVE",
"166 97 CURVE SMOOTH",
"166 129 OFFCURVE",
"168 165 OFFCURVE",
"174 204 CURVE",
"379 229 OFFCURVE",
"558 347 OFFCURVE",
"656 468 CURVE SMOOTH",
"694 515 OFFCURVE",
"715 562 OFFCURVE",
"715 602 CURVE SMOOTH",
"715 670 OFFCURVE",
"657 719 OFFCURVE",
"530 719 CURVE SMOOTH",
"497 719 OFFCURVE",
"459 715 OFFCURVE",
"416 708 CURVE SMOOTH",
"370 701 OFFCURVE",
"369 705 OFFCURVE",
"340 700 CURVE",
"350 721 OFFCURVE",
"361 743 OFFCURVE",
"372 765 CURVE SMOOTH",
"374 770 OFFCURVE",
"375 774 OFFCURVE",
"375 778 CURVE SMOOTH",
"375 791 OFFCURVE",
"364 800 OFFCURVE",
"352 800 CURVE SMOOTH",
"344 800 OFFCURVE",
"336 796 OFFCURVE",
"331 787 CURVE SMOOTH",
"258 654 OFFCURVE",
"210 531 OFFCURVE",
"179 420 CURVE",
"68 371 OFFCURVE",
"-7 301 OFFCURVE",
"-7 254 CURVE SMOOTH",
"-7 222 OFFCURVE",
"26 200 OFFCURVE",
"104 200 CURVE SMOOTH",
"115 200 OFFCURVE",
"128 200 OFFCURVE",
"141 201 CURVE",
"140 180 OFFCURVE",
"139 160 OFFCURVE",
"139 141 CURVE SMOOTH",
"139 -89 OFFCURVE",
"234 -223 OFFCURVE",
"333 -223 CURVE SMOOTH"
);
},
{
closed = 1;
nodes = (
"58 214 OFFCURVE",
"35 231 OFFCURVE",
"35 257 CURVE SMOOTH",
"35 298 OFFCURVE",
"89 358 OFFCURVE",
"175 402 CURVE",
"157 335 OFFCURVE",
"147 273 OFFCURVE",
"142 216 CURVE",
"130 214 OFFCURVE",
"118 214 OFFCURVE",
"108 214 CURVE SMOOTH"
);
},
{
closed = 1;
nodes = (
"187 281 OFFCURVE",
"204 349 OFFCURVE",
"229 426 CURVE",
"278 445 OFFCURVE",
"333 458 OFFCURVE",
"394 461 CURVE SMOOTH",
"423 462 OFFCURVE",
"435 469 OFFCURVE",
"435 473 CURVE SMOOTH",
"435 476 OFFCURVE",
"430 478 OFFCURVE",
"421 477 CURVE SMOOTH",
"354 474 OFFCURVE",
"291 460 OFFCURVE",
"234 441 CURVE",
"258 511 OFFCURVE",
"289 589 OFFCURVE",
"328 675 CURVE",
"331 674 OFFCURVE",
"335 674 OFFCURVE",
"340 676 CURVE SMOOTH",
"386 693 OFFCURVE",
"450 705 OFFCURVE",
"511 705 CURVE SMOOTH",
"599 705 OFFCURVE",
"678 680 OFFCURVE",
"678 612 CURVE SMOOTH",
"678 584 OFFCURVE",
"664 547 OFFCURVE",
"630 502 CURVE SMOOTH",
"540 380 OFFCURVE",
"386 264 OFFCURVE",
"177 222 CURVE"
);
}
);
width = 532;
}
);
note = P;
unicode = 0050;
},
{
glyphname = Thorn;
lastChange = "2021-11-18 16:34:37 +0000";
layers = (
{
background = {
paths = (
{
closed = 1;
nodes = (
"-58 86 OFFCURVE",
"-8 214 OFFCURVE",
"145 293 CURVE",
"127 226 OFFCURVE",
"117 164 OFFCURVE",
"112 107 CURVE"
);
},
{
closed = 1;
nodes = (
"287 554 OFFCURVE",
"291 554 OFFCURVE",
"296 556 CURVE SMOOTH",
"436 609 OFFCURVE",
"768 620 OFFCURVE",
"600 393 CURVE SMOOTH",
"510 271 OFFCURVE",
"356 155 OFFCURVE",
"147 113 CURVE",
"157 172 OFFCURVE",
"172 231 OFFCURVE",
"197 308 CURVE",
"215 316 OFFCURVE",
"249 324 OFFCURVE",
"267 327 CURVE SMOOTH",
"292 331 OFFCURVE",
"284 351 OFFCURVE",
"263 347 CURVE SMOOTH",
"246 344 OFFCURVE",
"227 340 OFFCURVE",
"204 332 CURVE",
"228 402 OFFCURVE",
"245 469 OFFCURVE",
"284 555 CURVE"
);
},
{
closed = 1;
nodes = (
"387 796 OFFCURVE",
"346 814 OFFCURVE",
"331 787 CURVE SMOOTH",
"258 654 OFFCURVE",
"180 422 OFFCURVE",
"149 311 CURVE",
"-47 224 OFFCURVE",
"-129 74 OFFCURVE",
"111 92 CURVE",
"111 92 OFFCURVE",
"96 26 OFFCURVE",
"118 -45 CURVE SMOOTH",
"141 -120 OFFCURVE",
"205 -156 OFFCURVE",
"271 -128 CURVE SMOOTH",
"292 -119 OFFCURVE",
"277 -84 OFFCURVE",
"262 -102 CURVE SMOOTH",
"250 -116 OFFCURVE",
"203 -112 OFFCURVE",
"170 -47 CURVE SMOOTH",
"146 1 OFFCURVE",
"135 62 OFFCURVE",
"144 95 CURVE",
"349 120 OFFCURVE",
"528 238 OFFCURVE",
"626 359 CURVE SMOOTH",
"746 507 OFFCURVE",
"689 650 OFFCURVE",
"386 599 CURVE SMOOTH",
"340 592 OFFCURVE",
"325 585 OFFCURVE",
"296 580 CURVE",
"306 601 OFFCURVE",
"361 743 OFFCURVE",
"372 765 CURVE SMOOTH"
);
}
);
};
layerId = "197ECFA8-A16D-41AC-99D0-22A54F6A6421";
paths = (
{
closed = 1;
nodes = (
"241 -137 OFFCURVE",
"256 -134 OFFCURVE",
"271 -128 CURVE SMOOTH",
"279 -125 OFFCURVE",
"282 -118 OFFCURVE",
"282 -112 CURVE SMOOTH",
"282 -104 OFFCURVE",
"277 -97 OFFCURVE",
"271 -97 CURVE SMOOTH",
"268 -97 OFFCURVE",
"265 -98 OFFCURVE",
"262 -102 CURVE SMOOTH",
"259 -106 OFFCURVE",
"252 -109 OFFCURVE",
"244 -109 CURVE SMOOTH",
"224 -109 OFFCURVE",
"193 -93 OFFCURVE",
"170 -47 CURVE SMOOTH",
"152 -10 OFFCURVE",
"141 34 OFFCURVE",
"141 68 CURVE SMOOTH",
"141 78 OFFCURVE",
"142 87 OFFCURVE",
"144 95 CURVE",
"349 120 OFFCURVE",
"528 238 OFFCURVE",
"626 359 CURVE SMOOTH",
"664 406 OFFCURVE",
"685 453 OFFCURVE",
"685 493 CURVE SMOOTH",
"685 561 OFFCURVE",
"627 610 OFFCURVE",
"500 610 CURVE SMOOTH",
"467 610 OFFCURVE",
"429 606 OFFCURVE",
"386 599 CURVE SMOOTH",
"340 592 OFFCURVE",
"325 585 OFFCURVE",
"296 580 CURVE",
"306 601 OFFCURVE",
"361 743 OFFCURVE",
"372 765 CURVE SMOOTH",
"374 770 OFFCURVE",
"375 774 OFFCURVE",
"375 778 CURVE SMOOTH",
"375 791 OFFCURVE",
"364 800 OFFCURVE",
"352 800 CURVE SMOOTH",
"344 800 OFFCURVE",
"336 796 OFFCURVE",
"331 787 CURVE SMOOTH",
"258 654 OFFCURVE",
"180 422 OFFCURVE",
"149 311 CURVE",
"38 262 OFFCURVE",
"-37 192 OFFCURVE",
"-37 145 CURVE SMOOTH",
"-37 113 OFFCURVE",
"-4 91 OFFCURVE",
"74 91 CURVE SMOOTH",
"85 91 OFFCURVE",
"98 91 OFFCURVE",
"111 92 CURVE",
"111 92 OFFCURVE",
"106 70 OFFCURVE",
"106 38 CURVE SMOOTH",
"106 14 OFFCURVE",
"109 -15 OFFCURVE",
"118 -45 CURVE SMOOTH",
"136 -103 OFFCURVE",
"178 -137 OFFCURVE",
"226 -137 CURVE SMOOTH"
);
},
{
closed = 1;
nodes = (
"28 105 OFFCURVE",
"5 122 OFFCURVE",
"5 148 CURVE SMOOTH",
"5 189 OFFCURVE",
"59 249 OFFCURVE",
"145 293 CURVE",
"127 226 OFFCURVE",
"117 164 OFFCURVE",
"112 107 CURVE",
"100 105 OFFCURVE",
"88 105 OFFCURVE",
"78 105 CURVE SMOOTH"
);
},
{
closed = 1;
nodes = (
"157 172 OFFCURVE",
"172 231 OFFCURVE",
"197 308 CURVE",
"215 316 OFFCURVE",
"249 324 OFFCURVE",
"267 327 CURVE SMOOTH",
"278 329 OFFCURVE",
"283 334 OFFCURVE",
"283 338 CURVE SMOOTH",
"283 343 OFFCURVE",
"277 348 OFFCURVE",
"268 348 CURVE SMOOTH",
"267 348 OFFCURVE",
"265 347 OFFCURVE",
"263 347 CURVE SMOOTH",
"246 344 OFFCURVE",
"227 340 OFFCURVE",
"204 332 CURVE",
"228 402 OFFCURVE",
"245 469 OFFCURVE",
"284 555 CURVE",
"287 554 OFFCURVE",
"291 554 OFFCURVE",
"296 556 CURVE SMOOTH",
"345 575 OFFCURVE",
"417 588 OFFCURVE",
"483 588 CURVE SMOOTH",
"569 588 OFFCURVE",
"646 565 OFFCURVE",
"646 500 CURVE SMOOTH",
"646 472 OFFCURVE",
"633 437 OFFCURVE",
"600 393 CURVE SMOOTH",
"510 271 OFFCURVE",
"356 155 OFFCURVE",
"147 113 CURVE"
);
}
);
width = 833;
}
);
note = Thorn;
unicode = 00DE;
},
{
glyphname = Q;
lastChange = "2021-11-18 16:34:37 +0000";
layers = (
{
background = {
paths = (
{
closed = 1;
nodes = (
"151 426 OFFCURVE",
"104 282 OFFCURVE",
"90 140 CURVE",
"75 146 OFFCURVE",
"60 157 OFFCURVE",
"51 175 CURVE SMOOTH",
"9 252 OFFCURVE",
"75 368 OFFCURVE",
"140 457 CURVE SMOOTH",
"162 489 OFFCURVE",
"186 519 OFFCURVE",
"209 546 CURVE"
);
},
{
closed = 1;
nodes = (
"579 55 OFFCURVE",
"684 289 OFFCURVE",
"680 475 CURVE SMOOTH",
"677 637 OFFCURVE",
"565 838 OFFCURVE",
"326 671 CURVE",
"337 685 OFFCURVE",
"375 733 OFFCURVE",
"389 738 CURVE SMOOTH",
"403 744 OFFCURVE",
"415 764 OFFCURVE",
"381 756 CURVE SMOOTH",
"349 748 OFFCURVE",
"296 686 OFFCURVE",
"251 612 CURVE",
"211 574 OFFCURVE",
"170 531 OFFCURVE",
"126 476 CURVE SMOOTH",
"-42 266 OFFCURVE",
"-4 93 OFFCURVE",
"90 105 CURVE",
"89 53 OFFCURVE",
"92 3 OFFCURVE",
"104 -47 CURVE SMOOTH",
"149 -243 OFFCURVE",
"291 -266 OFFCURVE",
"403 -166 CURVE SMOOTH",
"415 -155 OFFCURVE",
"427 -142 OFFCURVE",
"439 -128 CURVE",
"494 -209 OFFCURVE",
"562 -273 OFFCURVE",
"644 -276 CURVE SMOOTH",
"710 -278 OFFCURVE",
"752 -229 OFFCURVE",
"754 -166 CURVE SMOOTH",
"756 -122 OFFCURVE",
"737 -74 OFFCURVE",
"710 -40 CURVE SMOOTH",
"702 -30 OFFCURVE",
"691 -29 OFFCURVE",
"699 -41 CURVE SMOOTH",
"723 -79 OFFCURVE",
"738 -124 OFFCURVE",
"737 -169 CURVE SMOOTH",
"735 -206 OFFCURVE",
"721 -245 OFFCURVE",
"678 -243 CURVE SMOOTH",
"647 -242 OFFCURVE",
"613 -221 OFFCURVE",
"589 -204 CURVE SMOOTH",
"557 -180 OFFCURVE",
"516 -135 OFFCURVE",
"475 -84 CURVE"
);
},
{
closed = 1;
nodes = (
"284 219 OFFCURVE",
"291 175 OFFCURVE",
"310 131 CURVE SMOOTH",
"336 69 OFFCURVE",
"375 -28 OFFCURVE",
"429 -112 CURVE",
"416 -127 OFFCURVE",
"403 -140 OFFCURVE",
"390 -152 CURVE SMOOTH",
"272 -257 OFFCURVE",
"177 -168 OFFCURVE",
"139 -7 CURVE SMOOTH",
"128 38 OFFCURVE",
"133 81 OFFCURVE",
"132 126 CURVE",
"143 131 OFFCURVE",
"155 139 OFFCURVE",
"166 148 CURVE SMOOTH",
"173 155 OFFCURVE",
"144 151 OFFCURVE",
"130 153 CURVE",
"135 336 OFFCURVE",
"189 496 OFFCURVE",
"270 608 CURVE",
"472 790 OFFCURVE",
"627 705 OFFCURVE",
"637 437 CURVE SMOOTH",
"642 302 OFFCURVE",
"560 74 OFFCURVE",
"462 -67 CURVE",
"406 5 OFFCURVE",
"353 87 OFFCURVE",
"326 139 CURVE SMOOTH"
);
}
);
};
layerId = "197ECFA8-A16D-41AC-99D0-22A54F6A6421";
paths = (
{
closed = 1;
nodes = (
"714 -276 OFFCURVE",
"754 -225 OFFCURVE",
"754 -160 CURVE SMOOTH",
"754 -117 OFFCURVE",
"736 -72 OFFCURVE",
"710 -40 CURVE SMOOTH",
"706 -35 OFFCURVE",
"701 -32 OFFCURVE",
"698 -32 CURVE SMOOTH",
"697 -32 OFFCURVE",
"696 -33 OFFCURVE",
"696 -34 CURVE SMOOTH",
"696 -36 OFFCURVE",
"697 -38 OFFCURVE",
"699 -41 CURVE SMOOTH",
"722 -78 OFFCURVE",
"737 -121 OFFCURVE",
"737 -165 CURVE SMOOTH",
"737 -202 OFFCURVE",
"724 -243 OFFCURVE",
"681 -243 CURVE SMOOTH",
"649 -243 OFFCURVE",
"614 -222 OFFCURVE",
"589 -204 CURVE SMOOTH",
"557 -180 OFFCURVE",
"516 -135 OFFCURVE",
"475 -84 CURVE",
"577 52 OFFCURVE",
"680 280 OFFCURVE",
"680 465 CURVE SMOOTH",
"680 586 OFFCURVE",
"620 734 OFFCURVE",
"490 734 CURVE SMOOTH",
"444 734 OFFCURVE",
"390 715 OFFCURVE",
"326 671 CURVE",
"337 685 OFFCURVE",
"375 733 OFFCURVE",
"389 738 CURVE SMOOTH",
"396 741 OFFCURVE",
"403 748 OFFCURVE",
"403 753 CURVE SMOOTH",
"403 756 OFFCURVE",
"401 758 OFFCURVE",
"394 758 CURVE SMOOTH",
"391 758 OFFCURVE",
"387 757 OFFCURVE",
"381 756 CURVE SMOOTH",
"349 748 OFFCURVE",
"296 686 OFFCURVE",
"251 612 CURVE",
"211 574 OFFCURVE",
"170 531 OFFCURVE",
"126 476 CURVE SMOOTH",
"42 371 OFFCURVE",
"10 276 OFFCURVE",
"10 208 CURVE SMOOTH",
"10 140 OFFCURVE",
"43 99 OFFCURVE",
"90 105 CURVE",
"89 53 OFFCURVE",
"92 3 OFFCURVE",
"104 -47 CURVE SMOOTH",
"132 -169 OFFCURVE",
"198 -224 OFFCURVE",
"270 -224 CURVE SMOOTH",
"314 -224 OFFCURVE",
"361 -204 OFFCURVE",
"403 -166 CURVE SMOOTH",
"415 -155 OFFCURVE",
"427 -142 OFFCURVE",
"439 -128 CURVE",
"495 -210 OFFCURVE",
"564 -276 OFFCURVE",
"648 -276 CURVE SMOOTH"
);
},
{
closed = 1;
nodes = (
"75 146 OFFCURVE",
"60 157 OFFCURVE",
"51 175 CURVE SMOOTH",
"42 192 OFFCURVE",
"38 211 OFFCURVE",
"38 230 CURVE SMOOTH",
"38 301 OFFCURVE",
"89 387 OFFCURVE",
"140 457 CURVE SMOOTH",
"162 489 OFFCURVE",
"186 519 OFFCURVE",
"209 546 CURVE",
"151 426 OFFCURVE",
"104 282 OFFCURVE",
"90 140 CURVE"
);
},
{
closed = 1;
nodes = (
"220 -197 OFFCURVE",
"166 -120 OFFCURVE",
"139 -7 CURVE SMOOTH",
"133 18 OFFCURVE",
"132 43 OFFCURVE",
"132 67 CURVE SMOOTH",
"132 126 LINE",
"143 131 OFFCURVE",
"155 139 OFFCURVE",
"166 148 CURVE SMOOTH",
"170 152 OFFCURVE",
"163 152 OFFCURVE",
"155 152 CURVE SMOOTH",
"144 152 LINE SMOOTH",
"139 152 OFFCURVE",
"134 152 OFFCURVE",
"130 153 CURVE",
"135 336 OFFCURVE",
"189 496 OFFCURVE",
"270 608 CURVE",
"343 674 OFFCURVE",
"410 705 OFFCURVE",
"466 705 CURVE SMOOTH",
"565 705 OFFCURVE",
"631 608 OFFCURVE",
"637 437 CURVE SMOOTH",
"642 302 OFFCURVE",
"560 74 OFFCURVE",
"462 -67 CURVE",
"406 5 OFFCURVE",
"353 87 OFFCURVE",
"326 139 CURVE SMOOTH",
"303 182 OFFCURVE",
"295 189 OFFCURVE",
"295 180 CURVE SMOOTH",
"295 172 OFFCURVE",
"301 151 OFFCURVE",
"310 131 CURVE SMOOTH",
"336 69 OFFCURVE",
"375 -28 OFFCURVE",
"429 -112 CURVE",
"416 -127 OFFCURVE",
"403 -140 OFFCURVE",
"390 -152 CURVE SMOOTH",
"355 -183 OFFCURVE",
"322 -197 OFFCURVE",
"291 -197 CURVE SMOOTH"
);
}
);
width = 726;
}
);
note = Q;
unicode = 0051;
},
{
glyphname = R;
lastChange = "2021-11-19 13:33:53 +0000";
layers = (
{
anchors = (
{
name = bottom;
position = "{524, -143}";
},
{
name = top;
position = "{704, 721}";
}
);
background = {
paths = (
{
closed = 1;
nodes = (
"415 666 OFFCURVE",
"373 589 OFFCURVE",
"390 605 CURVE SMOOTH",
"405 619 OFFCURVE",
"423 625 OFFCURVE",
"437 611 CURVE SMOOTH",
"486 561 OFFCURVE",
"480 418 OFFCURVE",
"448 269 CURVE",
"439 263 OFFCURVE",
"436 257 OFFCURVE",
"445 255 CURVE",
"440 234 OFFCURVE",
"435 213 OFFCURVE",
"430 193 CURVE SMOOTH",
"380 2 OFFCURVE",
"165 -420 OFFCURVE",
"51 -129 CURVE SMOOTH",
"10 -25 OFFCURVE",
"19 138 OFFCURVE",
"107 244 CURVE SMOOTH",
"145 289 OFFCURVE",
"109 262 OFFCURVE",
"96 248 CURVE SMOOTH",
"72 220 OFFCURVE",
"42 171 OFFCURVE",
"27 136 CURVE SMOOTH",
"-5 57 OFFCURVE",
"-18 -45 OFFCURVE",
"12 -121 CURVE SMOOTH",
"112 -366 OFFCURVE",
"323 -198 OFFCURVE",
"408 8 CURVE SMOOTH",
"437 78 OFFCURVE",
"466 168 OFFCURVE",
"487 260 CURVE",
"494 262 LINE",
"549 130 OFFCURVE",
"658 -131 OFFCURVE",
"825 -137 CURVE SMOOTH",
"890 -139 OFFCURVE",
"933 -90 OFFCURVE",
"935 -27 CURVE SMOOTH",
"937 17 OFFCURVE",
"918 65 OFFCURVE",
"891 99 CURVE SMOOTH",
"883 109 OFFCURVE",
"871 110 OFFCURVE",
"879 98 CURVE SMOOTH",
"904 61 OFFCURVE",
"919 15 OFFCURVE",
"917 -30 CURVE SMOOTH",
"916 -66 OFFCURVE",
"902 -105 OFFCURVE",
"858 -104 CURVE SMOOTH",
"828 -103 OFFCURVE",
"794 -82 OFFCURVE",
"770 -64 CURVE SMOOTH",
"693 -8 OFFCURVE",
"566 170 OFFCURVE",
"512 267 CURVE",
"531 273 OFFCURVE",
"554 281 OFFCURVE",
"583 292 CURVE SMOOTH",
"1123 500 OFFCURVE",
"845 805 OFFCURVE",
"451 700 CURVE SMOOTH",
"279 654 OFFCURVE",
"92 528 OFFCURVE",
"77 407 CURVE SMOOTH",
"69 346 OFFCURVE",
"100 325 OFFCURVE",
"108 393 CURVE SMOOTH",
"118 475 OFFCURVE",
"272 630 OFFCURVE",
"447 677 CURVE SMOOTH",
"818 776 OFFCURVE",
"1074 470 OFFCURVE",
"502 287 CURVE",
"499 291 OFFCURVE",
"497 295 OFFCURVE",
"495 298 CURVE",
"524 447 OFFCURVE",
"526 590 OFFCURVE",
"455 639 CURVE SMOOTH"
);
}
);
};
layerId = "197ECFA8-A16D-41AC-99D0-22A54F6A6421";
paths = (
{
closed = 1;
nodes = (
"245 -243 OFFCURVE",
"353 -125 OFFCURVE",
"408 8 CURVE SMOOTH",
"437 78 OFFCURVE",
"466 168 OFFCURVE",
"487 260 CURVE",
"494 262 LINE",
"549 129 OFFCURVE",
"660 -137 OFFCURVE",
"829 -137 CURVE SMOOTH",
"894 -137 OFFCURVE",
"935 -86 OFFCURVE",
"935 -21 CURVE SMOOTH",
"935 22 OFFCURVE",
"917 67 OFFCURVE",
"891 99 CURVE SMOOTH",
"887 104 OFFCURVE",
"882 107 OFFCURVE",
"879 107 CURVE SMOOTH",
"877 107 OFFCURVE",
"876 106 OFFCURVE",
"876 104 CURVE SMOOTH",
"876 103 OFFCURVE",
"877 101 OFFCURVE",
"879 98 CURVE SMOOTH",
"903 63 OFFCURVE",
"917 20 OFFCURVE",
"917 -22 CURVE SMOOTH",
"917 -60 OFFCURVE",
"905 -104 OFFCURVE",
"860 -104 CURVE SMOOTH",
"829 -104 OFFCURVE",
"794 -82 OFFCURVE",
"770 -64 CURVE SMOOTH",
"693 -8 OFFCURVE",
"566 170 OFFCURVE",
"512 267 CURVE",
"531 273 OFFCURVE",
"554 281 OFFCURVE",
"583 292 CURVE SMOOTH",
"798 375 OFFCURVE",
"883 473 OFFCURVE",
"883 554 CURVE SMOOTH",
"883 649 OFFCURVE",
"769 721 OFFCURVE",
"608 721 CURVE SMOOTH",
"559 721 OFFCURVE",
"506 715 OFFCURVE",
"451 700 CURVE SMOOTH",
"279 654 OFFCURVE",
"92 528 OFFCURVE",
"77 407 CURVE SMOOTH",
"76 400 OFFCURVE",
"75 393 OFFCURVE",
"75 387 CURVE SMOOTH",
"75 364 OFFCURVE",
"82 351 OFFCURVE",
"90 351 CURVE SMOOTH",
"97 351 OFFCURVE",
"105 363 OFFCURVE",
"108 393 CURVE SMOOTH",
"118 475 OFFCURVE",
"272 630 OFFCURVE",
"447 677 CURVE SMOOTH",
"497 690 OFFCURVE",
"544 696 OFFCURVE",
"588 696 CURVE SMOOTH",
"733 696 OFFCURVE",
"837 630 OFFCURVE",
"837 545 CURVE SMOOTH",
"837 463 OFFCURVE",
"743 364 OFFCURVE",
"502 287 CURVE",
"499 291 OFFCURVE",
"497 295 OFFCURVE",
"495 298 CURVE",
"507 358 OFFCURVE",
"514 416 OFFCURVE",
"514 468 CURVE SMOOTH",
"514 546 OFFCURVE",
"498 610 OFFCURVE",
"455 639 CURVE SMOOTH",
"449 643 OFFCURVE",
"443 645 OFFCURVE",
"437 645 CURVE SMOOTH",
"404 645 OFFCURVE",
"376 591 OFFCURVE",
"390 605 CURVE SMOOTH",
"399 613 OFFCURVE",
"409 619 OFFCURVE",
"419 619 CURVE SMOOTH",
"425 619 OFFCURVE",
"431 617 OFFCURVE",
"437 611 CURVE SMOOTH",
"462 585 OFFCURVE",
"473 535 OFFCURVE",
"473 471 CURVE SMOOTH",
"473 412 OFFCURVE",
"464 341 OFFCURVE",
"448 269 CURVE",
"443 266 OFFCURVE",
"440 262 OFFCURVE",
"440 259 CURVE SMOOTH",
"440 257 OFFCURVE",
"441 256 OFFCURVE",
"445 255 CURVE",
"430 193 LINE SMOOTH",
"395 47 OFFCURVE",
"260 -228 OFFCURVE",
"148 -228 CURVE SMOOTH",
"112 -228 OFFCURVE",
"79 -200 OFFCURVE",
"51 -129 CURVE SMOOTH",
"36 -90 OFFCURVE",
"27 -44 OFFCURVE",
"27 5 CURVE SMOOTH",
"27 88 OFFCURVE",
"52 177 OFFCURVE",
"107 244 CURVE SMOOTH",
"119 259 OFFCURVE",
"124 266 OFFCURVE",
"124 268 CURVE SMOOTH",
"124 269 OFFCURVE",
"124 269 OFFCURVE",
"123 269 CURVE SMOOTH",
"119 269 OFFCURVE",
"104 256 OFFCURVE",
"96 248 CURVE SMOOTH",
"72 220 OFFCURVE",
"42 171 OFFCURVE",
"27 136 CURVE SMOOTH",
"8 88 OFFCURVE",
"-5 31 OFFCURVE",
"-5 -23 CURVE SMOOTH",
"-5 -57 OFFCURVE",
"0 -91 OFFCURVE",
"12 -121 CURVE SMOOTH",
"47 -208 OFFCURVE",
"97 -243 OFFCURVE",
"149 -243 CURVE SMOOTH"
);
}
);
width = 903;
}
);
note = R;
unicode = 0052;
},
{
glyphname = S;
lastChange = "2021-11-19 13:34:09 +0000";
layers = (
{
anchors = (
{
name = bottom;
position = "{71, -57}";
},
{
name = top;
position = "{297, 680}";
}
);
background = {
paths = (
{
closed = 1;
nodes = (
"165 -47 OFFCURVE",
"66 -56 OFFCURVE",
"35 -26 CURVE",
"81 1 OFFCURVE",
"128 23 OFFCURVE",
"171 38 CURVE"
);
},
{
closed = 1;
nodes = (
"-47 -45 OFFCURVE",
"-53 -83 OFFCURVE",
"-33 -69 CURVE SMOOTH",
"-16 -57 OFFCURVE",
"2 -45 OFFCURVE",
"20 -35 CURVE",
"24 -39 OFFCURVE",
"29 -43 OFFCURVE",
"35 -46 CURVE SMOOTH",
"85 -75 OFFCURVE",
"184 -60 OFFCURVE",
"208 18 CURVE SMOOTH",
"211 29 OFFCURVE",
"212 39 OFFCURVE",
"210 50 CURVE",
"233 56 OFFCURVE",
"254 58 OFFCURVE",
"272 58 CURVE SMOOTH",
"307 57 OFFCURVE",
"301 70 OFFCURVE",
"283 72 CURVE SMOOTH",
"259 73 OFFCURVE",
"233 72 OFFCURVE",
"207 67 CURVE",
"180 154 OFFCURVE",
"34 234 OFFCURVE",
"55 375 CURVE SMOOTH",
"78 528 OFFCURVE",
"192 636 OFFCURVE",
"319 654 CURVE SMOOTH",
"373 662 OFFCURVE",
"451 636 OFFCURVE",
"425 566 CURVE SMOOTH",
"417 543 OFFCURVE",
"423 538 OFFCURVE",
"438 561 CURVE SMOOTH",
"460 594 OFFCURVE",
"451 661 OFFCURVE",
"353 680 CURVE SMOOTH",
"312 688 OFFCURVE",
"256 681 OFFCURVE",
"217 666 CURVE SMOOTH",
"102 621 OFFCURVE",
"0 518 OFFCURVE",
"13 378 CURVE SMOOTH",
"29 205 OFFCURVE",
"161 154 OFFCURVE",
"171 63 CURVE SMOOTH",
"171 60 LINE",
"122 47 OFFCURVE",
"71 26 OFFCURVE",
"19 -3 CURVE",
"8 10 OFFCURVE",
"3 2 OFFCURVE",
"6 -11 CURVE",
"-5 -17 OFFCURVE",
"-16 -24 OFFCURVE",
"-27 -31 CURVE SMOOTH"
);
}
);
};
layerId = "197ECFA8-A16D-41AC-99D0-22A54F6A6421";
paths = (
{
closed = 1;
nodes = (
"-16 -57 OFFCURVE",
"2 -45 OFFCURVE",
"20 -35 CURVE",
"24 -39 OFFCURVE",
"29 -43 OFFCURVE",
"35 -46 CURVE SMOOTH",
"50 -55 OFFCURVE",
"71 -60 OFFCURVE",
"92 -60 CURVE SMOOTH",
"139 -60 OFFCURVE",
"191 -36 OFFCURVE",
"208 18 CURVE SMOOTH",
"210 25 OFFCURVE",
"211 32 OFFCURVE",
"211 39 CURVE SMOOTH",
"211 42 OFFCURVE",
"211 46 OFFCURVE",
"210 50 CURVE",
"235 57 OFFCURVE",
"258 58 OFFCURVE",
"277 58 CURVE SMOOTH",
"291 58 OFFCURVE",
"297 61 OFFCURVE",
"297 64 CURVE SMOOTH",
"297 68 OFFCURVE",
"292 71 OFFCURVE",
"283 72 CURVE SMOOTH",
"259 73 OFFCURVE",
"233 72 OFFCURVE",
"207 67 CURVE",
"182 148 OFFCURVE",
"53 223 OFFCURVE",
"53 348 CURVE SMOOTH",
"53 356 OFFCURVE",
"54 366 OFFCURVE",
"55 375 CURVE SMOOTH",
"78 528 OFFCURVE",
"192 636 OFFCURVE",
"319 654 CURVE SMOOTH",
"325 655 OFFCURVE",
"332 655 OFFCURVE",
"338 655 CURVE SMOOTH",
"382 655 OFFCURVE",
"430 635 OFFCURVE",
"430 592 CURVE SMOOTH",
"430 584 OFFCURVE",
"429 576 OFFCURVE",
"425 566 CURVE SMOOTH",
"423 559 OFFCURVE",
"421 553 OFFCURVE",
"421 550 CURVE SMOOTH",
"421 547 OFFCURVE",
"422 546 OFFCURVE",
"424 546 CURVE SMOOTH",
"426 546 OFFCURVE",
"431 551 OFFCURVE",
"438 561 CURVE SMOOTH",
"444 570 OFFCURVE",
"448 582 OFFCURVE",
"448 595 CURVE SMOOTH",
"448 628 OFFCURVE",
"423 666 OFFCURVE",
"353 680 CURVE SMOOTH",
"341 682 OFFCURVE",
"328 683 OFFCURVE",
"315 683 CURVE SMOOTH",
"281 683 OFFCURVE",
"245 677 OFFCURVE",
"217 666 CURVE SMOOTH",
"109 624 OFFCURVE",
"12 530 OFFCURVE",
"12 402 CURVE SMOOTH",
"12 394 OFFCURVE",
"12 386 OFFCURVE",
"13 378 CURVE SMOOTH",
"29 205 OFFCURVE",
"171 155 OFFCURVE",
"171 63 CURVE SMOOTH",
"171 60 LINE",
"122 47 OFFCURVE",
"71 26 OFFCURVE",
"19 -3 CURVE",
"15 2 OFFCURVE",
"12 4 OFFCURVE",
"10 4 CURVE SMOOTH",
"7 4 OFFCURVE",
"5 1 OFFCURVE",
"5 -4 CURVE SMOOTH",
"5 -6 OFFCURVE",
"5 -9 OFFCURVE",
"6 -11 CURVE",
"-5 -17 OFFCURVE",
"-16 -24 OFFCURVE",
"-27 -31 CURVE SMOOTH",
"-38 -39 OFFCURVE",
"-45 -55 OFFCURVE",
"-45 -64 CURVE SMOOTH",
"-45 -71 OFFCURVE",
"-42 -75 OFFCURVE",
"-33 -69 CURVE SMOOTH"
);
},
{
closed = 1;
nodes = (
"63 -42 OFFCURVE",
"45 -36 OFFCURVE",
"35 -26 CURVE",
"81 1 OFFCURVE",
"128 23 OFFCURVE",
"171 38 CURVE",
"167 -19 OFFCURVE",
"122 -42 OFFCURVE",
"83 -42 CURVE SMOOTH"
);
}
);
width = 248;
}
);
note = S;
unicode = 0053;
},
{
glyphname = Germandbls;
lastChange = "2021-11-18 16:34:37 +0000";
layers = (
{
background = {
paths = (
{
closed = 1;
nodes = (
"97 64 OFFCURVE",
"109 187 OFFCURVE",
"138 430 CURVE SMOOTH",
"154 573 OFFCURVE",
"166 671 OFFCURVE",
"205 709 CURVE SMOOTH",
"261 763 OFFCURVE",
"439 708 OFFCURVE",
"432 664 CURVE SMOOTH",
"424 623 OFFCURVE",
"320 535 OFFCURVE",
"291 486 CURVE SMOOTH",
"232 392 OFFCURVE",
"251 398 OFFCURVE",
"296 380 CURVE SMOOTH",
"339 364 OFFCURVE",
"405 324 OFFCURVE",
"410 256 CURVE SMOOTH",
"415 166 OFFCURVE",
"347 57 OFFCURVE",
"256 31 CURVE SMOOTH",
"235 26 OFFCURVE",
"209 21 OFFCURVE",
"192 34 CURVE SMOOTH",
"182 41 OFFCURVE",
"174 56 OFFCURVE",
"175 68 CURVE SMOOTH",
"174 73 OFFCURVE",
"175 107 OFFCURVE",
"163 103 CURVE SMOOTH",
"154 101 OFFCURVE",
"151 91 OFFCURVE",
"150 84 CURVE",
"138 36 OFFCURVE",
"197 12 OFFCURVE",
"234 9 CURVE SMOOTH",
"266 7 OFFCURVE",
"305 18 OFFCURVE",
"333 33 CURVE SMOOTH",
"504 123 OFFCURVE",
"505 341 OFFCURVE",
"308 396 CURVE SMOOTH",
"287 402 OFFCURVE",
"285 419 OFFCURVE",
"301 445 CURVE SMOOTH",
"343 516 OFFCURVE",
"456 592 OFFCURVE",
"469 639 CURVE SMOOTH",
"496 752 OFFCURVE",
"235 775 OFFCURVE",
"178 728 CURVE SMOOTH",
"58 627 OFFCURVE",
"106 201 OFFCURVE",
"35 -38 CURVE",
"24 -76 OFFCURVE",
"45 -77 OFFCURVE",
"59 -45 CURVE"
);
}
);
};
layerId = "197ECFA8-A16D-41AC-99D0-22A54F6A6421";
paths = (
{
closed = 1;
nodes = (
"44 -68 OFFCURVE",
"52 -60 OFFCURVE",
"59 -45 CURVE",
"97 64 OFFCURVE",
"109 187 OFFCURVE",
"138 430 CURVE SMOOTH",
"154 573 OFFCURVE",
"166 671 OFFCURVE",
"205 709 CURVE SMOOTH",
"222 725 OFFCURVE",
"249 731 OFFCURVE",
"279 731 CURVE SMOOTH",
"350 731 OFFCURVE",
"437 695 OFFCURVE",
"432 664 CURVE SMOOTH",
"424 623 OFFCURVE",
"320 535 OFFCURVE",
"291 486 CURVE SMOOTH",
"265 444 OFFCURVE",
"254 422 OFFCURVE",
"254 409 CURVE SMOOTH",
"254 393 OFFCURVE",
"271 390 OFFCURVE",
"296 380 CURVE SMOOTH",
"341 363 OFFCURVE",
"410 320 OFFCURVE",
"410 247 CURVE SMOOTH",
"410 159 OFFCURVE",
"344 56 OFFCURVE",
"256 31 CURVE SMOOTH",
"245 28 OFFCURVE",
"232 26 OFFCURVE",
"221 26 CURVE SMOOTH",
"210 26 OFFCURVE",
"200 28 OFFCURVE",
"192 34 CURVE SMOOTH",
"182 41 OFFCURVE",
"174 56 OFFCURVE",
"175 68 CURVE",
"174 73 OFFCURVE",
"175 103 OFFCURVE",
"165 103 CURVE SMOOTH",
"154 103 OFFCURVE",
"151 91 OFFCURVE",
"150 84 CURVE SMOOTH",
"149 80 OFFCURVE",
"148 76 OFFCURVE",
"148 72 CURVE SMOOTH",
"148 29 OFFCURVE",
"209 9 OFFCURVE",
"242 9 CURVE SMOOTH",
"272 9 OFFCURVE",
"307 19 OFFCURVE",
"333 33 CURVE SMOOTH",
"416 77 OFFCURVE",
"459 150 OFFCURVE",
"459 220 CURVE SMOOTH",
"459 296 OFFCURVE",
"410 368 OFFCURVE",
"308 396 CURVE SMOOTH",
"296 399 OFFCURVE",
"290 406 OFFCURVE",
"290 416 CURVE SMOOTH",
"290 424 OFFCURVE",
"294 434 OFFCURVE",
"301 445 CURVE SMOOTH",
"343 516 OFFCURVE",
"456 592 OFFCURVE",
"469 639 CURVE SMOOTH",
"470 644 OFFCURVE",
"471 650 OFFCURVE",
"471 655 CURVE SMOOTH",
"471 721 OFFCURVE",
"366 751 OFFCURVE",
"280 751 CURVE SMOOTH",
"236 751 OFFCURVE",
"196 743 OFFCURVE",
"178 728 CURVE SMOOTH",
"58 627 OFFCURVE",
"106 201 OFFCURVE",
"35 -38 CURVE SMOOTH",
"33 -45 OFFCURVE",
"32 -51 OFFCURVE",
"32 -56 CURVE SMOOTH",
"32 -64 OFFCURVE",
"35 -68 OFFCURVE",
"39 -68 CURVE SMOOTH"
);
}
);
width = 527;
}
);
unicode = 1E9E;
},
{
glyphname = Schwa;
lastChange = "2021-11-18 16:34:37 +0000";
layers = (
{
background = {
paths = (
{
closed = 1;
nodes = (
"0 342 OFFCURVE",
"18 334 OFFCURVE",
"44 382 CURVE SMOOTH",
"260 807 OFFCURVE",
"519 691 OFFCURVE",
"458 308 CURVE SMOOTH",
"422 79 OFFCURVE",
"335 -8 OFFCURVE",
"281 -8 CURVE SMOOTH",
"226 -8 OFFCURVE",
"192 73 OFFCURVE",
"251 181 CURVE SMOOTH",
"272 207 OFFCURVE",
"302 246 OFFCURVE",
"354 288 CURVE SMOOTH",
"384 313 OFFCURVE",
"422 339 OFFCURVE",
"470 363 CURVE SMOOTH",
"512 384 OFFCURVE",
"507 394 OFFCURVE",
"460 379 CURVE SMOOTH",
"419 366 OFFCURVE",
"378 345 OFFCURVE",
"341 319 CURVE SMOOTH",
"283 279 OFFCURVE",
"236 228 OFFCURVE",
"212 179 CURVE SMOOTH",
"144 53 OFFCURVE",
"199 -27 OFFCURVE",
"279 -27 CURVE SMOOTH",
"366 -28 OFFCURVE",
"483 66 OFFCURVE",
"511 341 CURVE SMOOTH",
"557 800 OFFCURVE",
"180 756 OFFCURVE",
"23 397 CURVE SMOOTH"
);
}
);
};
layerId = "197ECFA8-A16D-41AC-99D0-22A54F6A6421";
paths = (
{
closed = 1;
nodes = (
"367 -27 OFFCURVE",
"483 67 OFFCURVE",
"511 341 CURVE SMOOTH",
"514 367 OFFCURVE",
"515 391 OFFCURVE",
"515 414 CURVE SMOOTH",
"515 594 OFFCURVE",
"438 676 OFFCURVE",
"341 676 CURVE SMOOTH",
"233 676 OFFCURVE",
"101 575 OFFCURVE",
"23 397 CURVE SMOOTH",
"16 379 OFFCURVE",
"12 366 OFFCURVE",
"12 359 CURVE SMOOTH",
"12 353 OFFCURVE",
"14 350 OFFCURVE",
"17 350 CURVE SMOOTH",
"22 350 OFFCURVE",
"32 361 OFFCURVE",
"44 382 CURVE SMOOTH",
"139 570 OFFCURVE",
"243 652 OFFCURVE",
"324 652 CURVE SMOOTH",
"408 652 OFFCURVE",
"467 565 OFFCURVE",
"467 416 CURVE SMOOTH",
"467 383 OFFCURVE",
"464 347 OFFCURVE",
"458 308 CURVE SMOOTH",
"422 79 OFFCURVE",
"335 -8 OFFCURVE",
"281 -8 CURVE SMOOTH",
"246 -8 OFFCURVE",
"220 24 OFFCURVE",
"220 75 CURVE SMOOTH",
"220 105 OFFCURVE",
"229 141 OFFCURVE",
"251 181 CURVE",
"272 207 OFFCURVE",
"302 246 OFFCURVE",
"354 288 CURVE SMOOTH",
"384 313 OFFCURVE",
"422 339 OFFCURVE",
"470 363 CURVE SMOOTH",
"498 377 OFFCURVE",
"505 386 OFFCURVE",
"493 386 CURVE SMOOTH",
"486 386 OFFCURVE",
"476 384 OFFCURVE",
"460 379 CURVE SMOOTH",
"419 366 OFFCURVE",
"378 345 OFFCURVE",
"341 319 CURVE SMOOTH",
"283 279 OFFCURVE",
"236 228 OFFCURVE",
"212 179 CURVE SMOOTH",
"190 139 OFFCURVE",
"181 104 OFFCURVE",
"181 74 CURVE SMOOTH",
"181 10 OFFCURVE",
"225 -27 OFFCURVE",
"280 -27 CURVE SMOOTH"
);
}
);
width = 525;
}
);
unicode = 018F;
},
{
glyphname = T;
lastChange = "2021-11-19 13:34:29 +0000";
layers = (
{
anchors = (
{
name = bottom;
position = "{143, -152}";
},
{
name = center;
position = "{519, 411}";
},
{
name = top;
position = "{545, 748}";
}
);
background = {
paths = (
{
closed = 1;
nodes = (
"569 754 OFFCURVE",
"524 758 OFFCURVE",
"522 724 CURVE SMOOTH",
"521 705 OFFCURVE",
"519 686 OFFCURVE",
"518 668 CURVE",
"478 664 OFFCURVE",
"441 658 OFFCURVE",
"411 652 CURVE SMOOTH",
"261 623 OFFCURVE",
"-18 510 OFFCURVE",
"15 343 CURVE SMOOTH",
"21 312 OFFCURVE",
"33 279 OFFCURVE",
"65 259 CURVE SMOOTH",
"84 248 OFFCURVE",
"96 260 OFFCURVE",
"78 272 CURVE SMOOTH",
"57 285 OFFCURVE",
"46 308 OFFCURVE",
"40 338 CURVE SMOOTH",
"10 492 OFFCURVE",
"274 602 OFFCURVE",
"515 633 CURVE",
"436 -267 OFFCURVE",
"71 -156 OFFCURVE",
"62 -115 CURVE SMOOTH",
"58 -92 OFFCURVE",
"14 -103 OFFCURVE",
"28 -122 CURVE SMOOTH",
"144 -273 OFFCURVE",
"519 -48 OFFCURVE",
"564 639 CURVE",
"713 652 OFFCURVE",
"844 633 OFFCURVE",
"879 573 CURVE SMOOTH",
"889 555 OFFCURVE",
"905 564 OFFCURVE",
"894 582 CURVE SMOOTH",
"846 665 OFFCURVE",
"698 680 OFFCURVE",
"566 672 CURVE",
"567 688 OFFCURVE",
"568 705 OFFCURVE",
"568 722 CURVE SMOOTH"
);
}
);
};
layerId = "197ECFA8-A16D-41AC-99D0-22A54F6A6421";
paths = (
{
closed = 1;
nodes = (
"279 -167 OFFCURVE",
"528 87 OFFCURVE",
"564 639 CURVE",
"593 642 OFFCURVE",
"622 643 OFFCURVE",
"650 643 CURVE SMOOTH",
"761 643 OFFCURVE",
"851 621 OFFCURVE",
"879 573 CURVE SMOOTH",
"883 566 OFFCURVE",
"888 563 OFFCURVE",
"892 563 CURVE SMOOTH",
"895 563 OFFCURVE",
"898 566 OFFCURVE",
"898 571 CURVE SMOOTH",
"898 574 OFFCURVE",
"897 578 OFFCURVE",
"894 582 CURVE SMOOTH",
"853 652 OFFCURVE",
"741 674 OFFCURVE",
"627 674 CURVE SMOOTH",
"606 674 OFFCURVE",
"586 673 OFFCURVE",
"566 672 CURVE",
"567 688 OFFCURVE",
"568 705 OFFCURVE",
"568 722 CURVE SMOOTH",
"569 739 OFFCURVE",
"556 748 OFFCURVE",
"545 748 CURVE SMOOTH",
"534 748 OFFCURVE",
"523 740 OFFCURVE",
"522 724 CURVE SMOOTH",
"521 705 OFFCURVE",
"519 686 OFFCURVE",
"518 668 CURVE",
"478 664 OFFCURVE",
"441 658 OFFCURVE",
"411 652 CURVE SMOOTH",
"269 625 OFFCURVE",
"12 522 OFFCURVE",
"12 370 CURVE SMOOTH",
"12 361 OFFCURVE",
"13 352 OFFCURVE",
"15 343 CURVE SMOOTH",
"21 312 OFFCURVE",
"33 279 OFFCURVE",
"65 259 CURVE SMOOTH",
"70 256 OFFCURVE",
"75 255 OFFCURVE",
"79 255 CURVE SMOOTH",
"84 255 OFFCURVE",
"87 257 OFFCURVE",
"87 261 CURVE SMOOTH",
"87 264 OFFCURVE",
"84 268 OFFCURVE",
"78 272 CURVE SMOOTH",
"57 285 OFFCURVE",
"46 308 OFFCURVE",
"40 338 CURVE SMOOTH",
"38 346 OFFCURVE",
"38 354 OFFCURVE",
"38 362 CURVE SMOOTH",
"38 503 OFFCURVE",
"287 604 OFFCURVE",
"515 633 CURVE",
"457 -22 OFFCURVE",
"248 -141 OFFCURVE",
"126 -141 CURVE SMOOTH",
"71 -141 OFFCURVE",
"34 -117 OFFCURVE",
"34 -107 CURVE SMOOTH",
"34 -104 OFFCURVE",
"37 -102 OFFCURVE",
"44 -102 CURVE SMOOTH",
"32 -102 OFFCURVE",
"20 -111 OFFCURVE",
"28 -122 CURVE SMOOTH",
"51 -152 OFFCURVE",
"84 -167 OFFCURVE",
"122 -167 CURVE SMOOTH"
);
}
);
width = 562;
}
);
note = T;
unicode = 0054;
},
{
glyphname = U;
lastChange = "2021-11-19 13:34:49 +0000";
layers = (
{
anchors = (
{
name = bottom;
position = "{203, -60}";
},
{
name = ogonek;
position = "{509, -40}";
},
{
name = top;
position = "{358, 680}";
},
{
name = topright;
position = "{491, 635}";
}
);
background = {
paths = (
{
closed = 1;
nodes = (
"594 127 OFFCURVE",
"584 136 OFFCURVE",
"568 108 CURVE SMOOTH",
"550 76 OFFCURVE",
"454 -112 OFFCURVE",
"414 6 CURVE SMOOTH",
"390 76 OFFCURVE",
"448 394 OFFCURVE",
"519 565 CURVE SMOOTH",
"565 678 OFFCURVE",
"483 677 OFFCURVE",
"472 619 CURVE SMOOTH",
"438 436 OFFCURVE",
"311 165 OFFCURVE",
"241 69 CURVE SMOOTH",
"170 -30 OFFCURVE",
"54 -166 OFFCURVE",
"58 52 CURVE SMOOTH",
"62 258 OFFCURVE",
"171 480 OFFCURVE",
"175 664 CURVE SMOOTH",
"176 704 OFFCURVE",
"167 765 OFFCURVE",
"130 785 CURVE SMOOTH",
"82 812 OFFCURVE",
"30 737 OFFCURVE",
"35 695 CURVE",
"35 675 OFFCURVE",
"76 761 OFFCURVE",
"112 747 CURVE SMOOTH",
"172 723 OFFCURVE",
"106 466 OFFCURVE",
"94 425 CURVE SMOOTH",
"74 358 OFFCURVE",
"14 162 OFFCURVE",
"12 40 CURVE SMOOTH",
"6 -282 OFFCURVE",
"303 45 OFFCURVE",
"398 316 CURVE",
"378 212 OFFCURVE",
"352 34 OFFCURVE",
"410 -30 CURVE SMOOTH",
"455 -80 OFFCURVE",
"518 -23 OFFCURVE",
"543 20 CURVE SMOOTH",
"551 33 OFFCURVE",
"585 88 OFFCURVE",
"591 115 CURVE SMOOTH"
);
}
);
};
layerId = "197ECFA8-A16D-41AC-99D0-22A54F6A6421";
paths = (
{
closed = 1;
nodes = (
"164 -94 OFFCURVE",
"331 125 OFFCURVE",
"398 316 CURVE",
"387 260 OFFCURVE",
"375 181 OFFCURVE",
"375 111 CURVE SMOOTH",
"375 52 OFFCURVE",
"383 -1 OFFCURVE",
"410 -30 CURVE SMOOTH",
"422 -44 OFFCURVE",
"436 -49 OFFCURVE",
"450 -49 CURVE SMOOTH",
"487 -49 OFFCURVE",
"525 -11 OFFCURVE",
"543 20 CURVE SMOOTH",
"551 33 OFFCURVE",
"585 88 OFFCURVE",
"591 115 CURVE SMOOTH",
"593 121 OFFCURVE",
"591 127 OFFCURVE",
"586 127 CURVE SMOOTH",
"582 127 OFFCURVE",
"576 122 OFFCURVE",
"568 108 CURVE SMOOTH",
"554 83 OFFCURVE",
"495 -32 OFFCURVE",
"450 -32 CURVE SMOOTH",
"436 -32 OFFCURVE",
"423 -22 OFFCURVE",
"414 6 CURVE SMOOTH",
"410 17 OFFCURVE",
"408 34 OFFCURVE",
"408 56 CURVE SMOOTH",
"408 172 OFFCURVE",
"459 421 OFFCURVE",
"519 565 CURVE SMOOTH",
"529 589 OFFCURVE",
"533 608 OFFCURVE",
"533 623 CURVE SMOOTH",
"533 647 OFFCURVE",
"522 658 OFFCURVE",
"509 658 CURVE SMOOTH",
"494 658 OFFCURVE",
"477 643 OFFCURVE",
"472 619 CURVE SMOOTH",
"438 436 OFFCURVE",
"311 165 OFFCURVE",
"241 69 CURVE SMOOTH",
"198 9 OFFCURVE",
"138 -65 OFFCURVE",
"99 -65 CURVE SMOOTH",
"75 -65 OFFCURVE",
"58 -36 OFFCURVE",
"58 41 CURVE SMOOTH",
"58 253 OFFCURVE",
"175 483 OFFCURVE",
"175 670 CURVE SMOOTH",
"175 710 OFFCURVE",
"165 766 OFFCURVE",
"130 785 CURVE SMOOTH",
"123 789 OFFCURVE",
"116 791 OFFCURVE",
"109 791 CURVE SMOOTH",
"68 791 OFFCURVE",
"31 731 OFFCURVE",
"35 695 CURVE",
"35 677 OFFCURVE",
"70 749 OFFCURVE",
"104 749 CURVE SMOOTH",
"128 749 OFFCURVE",
"137 716 OFFCURVE",
"137 673 CURVE SMOOTH",
"137 587 OFFCURVE",
"102 454 OFFCURVE",
"94 425 CURVE SMOOTH",
"73 356 OFFCURVE",
"12 151 OFFCURVE",
"12 30 CURVE SMOOTH",
"12 -58 OFFCURVE",
"36 -94 OFFCURVE",
"73 -94 CURVE SMOOTH"
);
}
);
width = 546;
}
);
note = U;
unicode = 0055;
},
{
glyphname = V;
lastChange = "2021-11-18 16:34:37 +0000";
layers = (
{
background = {
paths = (
{
closed = 1;
nodes = (
"932 803 OFFCURVE",
"867 826 OFFCURVE",
"802 804 CURVE SMOOTH",
"540 713 OFFCURVE",
"381 263 OFFCURVE",
"310 20 CURVE",
"344 266 OFFCURVE",
"324 653 OFFCURVE",
"184 653 CURVE SMOOTH",
"119 653 OFFCURVE",
"18 563 OFFCURVE",
"-6 509 CURVE SMOOTH",
"-8 504 OFFCURVE",
"-4 497 OFFCURVE",
"4 506 CURVE SMOOTH",
"48 552 OFFCURVE",
"85 610 OFFCURVE",
"154 610 CURVE SMOOTH",
"316 610 OFFCURVE",
"274 100 OFFCURVE",
"276 0 CURVE SMOOTH",
"277 -47 OFFCURVE",
"316 -24 OFFCURVE",
"326 8 CURVE SMOOTH",
"440 383 OFFCURVE",
"624 710 OFFCURVE",
"826 780 CURVE SMOOTH",
"898 805 OFFCURVE",
"926 772 OFFCURVE",
"926 730 CURVE SMOOTH",
"926 688 OFFCURVE",
"944 718 OFFCURVE",
"943 738 CURVE"
);
}
);
};
layerId = "197ECFA8-A16D-41AC-99D0-22A54F6A6421";
paths = (
{
closed = 1;
nodes = (
"304 -27 OFFCURVE",
"320 -11 OFFCURVE",
"326 8 CURVE SMOOTH",
"440 383 OFFCURVE",
"624 710 OFFCURVE",
"826 780 CURVE SMOOTH",
"843 786 OFFCURVE",
"858 789 OFFCURVE",
"870 789 CURVE SMOOTH",
"910 789 OFFCURVE",
"926 762 OFFCURVE",
"926 730 CURVE SMOOTH",
"926 714 OFFCURVE",
"928 709 OFFCURVE",
"932 709 CURVE SMOOTH",
"937 709 OFFCURVE",
"943 724 OFFCURVE",
"943 736 CURVE SMOOTH",
"943 738 LINE SMOOTH",
"935 787 OFFCURVE",
"896 812 OFFCURVE",
"849 812 CURVE SMOOTH",
"834 812 OFFCURVE",
"818 809 OFFCURVE",
"802 804 CURVE SMOOTH",
"540 713 OFFCURVE",
"381 263 OFFCURVE",
"310 20 CURVE",
"319 86 OFFCURVE",
"324 163 OFFCURVE",
"324 240 CURVE SMOOTH",
"324 447 OFFCURVE",
"286 653 OFFCURVE",
"184 653 CURVE SMOOTH",
"119 653 OFFCURVE",
"18 563 OFFCURVE",
"-6 509 CURVE SMOOTH",
"-8 504 OFFCURVE",
"-4 497 OFFCURVE",
"4 506 CURVE SMOOTH",
"48 552 OFFCURVE",
"85 610 OFFCURVE",
"154 610 CURVE SMOOTH",
"262 610 OFFCURVE",
"279 381 OFFCURVE",
"279 200 CURVE SMOOTH",
"279 111 OFFCURVE",
"275 33 OFFCURVE",
"276 0 CURVE SMOOTH",
"276 -19 OFFCURVE",
"283 -27 OFFCURVE",
"292 -27 CURVE SMOOTH"
);
}
);
width = 444;
}
);
note = V;
unicode = 0056;
},
{
glyphname = W;
lastChange = "2021-11-19 13:35:01 +0000";
layers = (
{
anchors = (
{
name = bottom;
position = "{403, 0}";
},
{
name = top;
position = "{420, 680}";
}
);
background = {
paths = (
{
closed = 1;
nodes = (
"387 443 OFFCURVE",
"386 421 OFFCURVE",
"400 400 CURVE",
"381 300 OFFCURVE",
"344 157 OFFCURVE",
"299 71 CURVE SMOOTH",
"242 -37 OFFCURVE",
"149 -174 OFFCURVE",
"123 42 CURVE SMOOTH",
"103 211 OFFCURVE",
"229 727 OFFCURVE",
"89 765 CURVE SMOOTH",
"36 779 OFFCURVE",
"-3 703 OFFCURVE",
"8 662 CURVE",
"10 642 OFFCURVE",
"44 748 OFFCURVE",
"82 739 CURVE SMOOTH",
"164 720 OFFCURVE",
"62 122 OFFCURVE",
"76 11 CURVE SMOOTH",
"114 -307 OFFCURVE",
"363 43 OFFCURVE",
"436 376 CURVE",
"444 332 OFFCURVE",
"458 273 OFFCURVE",
"480 204 CURVE SMOOTH",
"543 7 OFFCURVE",
"699 -119 OFFCURVE",
"763 222 CURVE SMOOTH",
"781 318 OFFCURVE",
"782 411 OFFCURVE",
"779 504 CURVE",
"805 458 OFFCURVE",
"822 449 OFFCURVE",
"853 434 CURVE SMOOTH",
"859 431 OFFCURVE",
"883 443 OFFCURVE",
"873 451 CURVE",
"845 461 OFFCURVE",
"812 539 OFFCURVE",
"796 580 CURVE SMOOTH",
"787 604 OFFCURVE",
"773 642 OFFCURVE",
"759 661 CURVE SMOOTH",
"730 700 OFFCURVE",
"720 639 OFFCURVE",
"737 590 CURVE SMOOTH",
"799 411 OFFCURVE",
"717 -274 OFFCURVE",
"522 203 CURVE SMOOTH",
"485 292 OFFCURVE",
"466 414 OFFCURVE",
"444 515 CURVE SMOOTH",
"433 569 OFFCURVE",
"385 545 OFFCURVE",
"386 478 CURVE SMOOTH"
);
}
);
};
layerId = "197ECFA8-A16D-41AC-99D0-22A54F6A6421";
paths = (
{
closed = 1;
nodes = (
"239 -114 OFFCURVE",
"383 135 OFFCURVE",
"436 376 CURVE",
"444 332 OFFCURVE",
"458 273 OFFCURVE",
"480 204 CURVE SMOOTH",
"515 96 OFFCURVE",
"577 9 OFFCURVE",
"637 9 CURVE SMOOTH",
"686 9 OFFCURVE",
"734 68 OFFCURVE",
"763 222 CURVE SMOOTH",
"776 293 OFFCURVE",
"780 362 OFFCURVE",
"780 431 CURVE SMOOTH",
"780 455 OFFCURVE",
"780 480 OFFCURVE",
"779 504 CURVE",
"805 458 OFFCURVE",
"822 449 OFFCURVE",
"853 434 CURVE SMOOTH",
"858 432 OFFCURVE",
"875 439 OFFCURVE",
"875 447 CURVE SMOOTH",
"875 448 OFFCURVE",
"875 450 OFFCURVE",
"873 451 CURVE SMOOTH",
"845 461 OFFCURVE",
"812 539 OFFCURVE",
"796 580 CURVE SMOOTH",
"787 604 OFFCURVE",
"773 642 OFFCURVE",
"759 661 CURVE SMOOTH",
"753 670 OFFCURVE",
"747 673 OFFCURVE",
"743 673 CURVE SMOOTH",
"734 673 OFFCURVE",
"729 658 OFFCURVE",
"729 639 CURVE SMOOTH",
"729 624 OFFCURVE",
"731 606 OFFCURVE",
"737 590 CURVE SMOOTH",
"751 551 OFFCURVE",
"757 487 OFFCURVE",
"757 416 CURVE SMOOTH",
"757 246 OFFCURVE",
"719 37 OFFCURVE",
"647 37 CURVE SMOOTH",
"612 37 OFFCURVE",
"571 84 OFFCURVE",
"522 203 CURVE SMOOTH",
"485 292 OFFCURVE",
"466 414 OFFCURVE",
"444 515 CURVE SMOOTH",
"440 535 OFFCURVE",
"430 545 OFFCURVE",
"420 545 CURVE SMOOTH",
"404 545 OFFCURVE",
"385 520 OFFCURVE",
"386 478 CURVE SMOOTH",
"387 443 OFFCURVE",
"386 421 OFFCURVE",
"400 400 CURVE",
"381 300 OFFCURVE",
"344 157 OFFCURVE",
"299 71 CURVE SMOOTH",
"264 5 OFFCURVE",
"216 -72 OFFCURVE",
"177 -72 CURVE SMOOTH",
"153 -72 OFFCURVE",
"133 -42 OFFCURVE",
"123 42 CURVE SMOOTH",
"121 55 OFFCURVE",
"121 71 OFFCURVE",
"121 88 CURVE SMOOTH",
"121 209 OFFCURVE",
"156 416 OFFCURVE",
"156 570 CURVE SMOOTH",
"156 672 OFFCURVE",
"141 751 OFFCURVE",
"89 765 CURVE SMOOTH",
"85 766 OFFCURVE",
"81 767 OFFCURVE",
"76 767 CURVE SMOOTH",
"36 767 OFFCURVE",
"6 715 OFFCURVE",
"6 677 CURVE SMOOTH",
"6 672 OFFCURVE",
"7 667 OFFCURVE",
"8 662 CURVE SMOOTH",
"10 643 OFFCURVE",
"41 740 OFFCURVE",
"77 740 CURVE SMOOTH",
"105 740 OFFCURVE",
"114 683 OFFCURVE",
"114 599 CURVE SMOOTH",
"114 428 OFFCURVE",
"75 148 OFFCURVE",
"75 39 CURVE SMOOTH",
"75 28 OFFCURVE",
"75 18 OFFCURVE",
"76 11 CURVE SMOOTH",
"87 -77 OFFCURVE",
"113 -114 OFFCURVE",
"148 -114 CURVE SMOOTH"
);
}
);
width = 805;
}
);
note = W;
unicode = 0057;
},
{
glyphname = X;
lastChange = "2021-11-18 16:34:37 +0000";
layers = (
{
background = {
paths = (
{
closed = 1;
nodes = (
"521 708 OFFCURVE",
"475 736 OFFCURVE",
"442 708 CURVE SMOOTH",
"366 641 OFFCURVE",
"271 507 OFFCURVE",
"204 411 CURVE",
"196 437 OFFCURVE",
"160 568 OFFCURVE",
"135 671 CURVE SMOOTH",
"122 728 OFFCURVE",
"28 840 OFFCURVE",
"87 612 CURVE SMOOTH",
"96 574 OFFCURVE",
"130 456 OFFCURVE",
"173 357 CURVE",
"77 201 OFFCURVE",
"-4 40 OFFCURVE",
"-24 -111 CURVE SMOOTH",
"-30 -153 OFFCURVE",
"-6 -140 OFFCURVE",
"0 -98 CURVE SMOOTH",
"18 34 OFFCURVE",
"103 194 OFFCURVE",
"187 319 CURVE",
"216 248 OFFCURVE",
"244 192 OFFCURVE",
"280 137 CURVE SMOOTH",
"345 39 OFFCURVE",
"464 -37 OFFCURVE",
"472 140 CURVE SMOOTH",
"477 244 OFFCURVE",
"444 397 OFFCURVE",
"431 436 CURVE SMOOTH",
"419 473 OFFCURVE",
"396 512 OFFCURVE",
"410 430 CURVE SMOOTH",
"414 407 OFFCURVE",
"440 249 OFFCURVE",
"436 151 CURVE SMOOTH",
"433 72 OFFCURVE",
"393 29 OFFCURVE",
"327 130 CURVE SMOOTH",
"266 225 OFFCURVE",
"231 322 OFFCURVE",
"218 350 CURVE",
"291 447 OFFCURVE",
"405 607 OFFCURVE",
"488 679 CURVE SMOOTH"
);
}
);
};
layerId = "197ECFA8-A16D-41AC-99D0-22A54F6A6421";
paths = (
{
closed = 1;
nodes = (
"-13 -137 OFFCURVE",
"-3 -122 OFFCURVE",
"0 -98 CURVE SMOOTH",
"18 34 OFFCURVE",
"103 194 OFFCURVE",
"187 319 CURVE",
"216 248 OFFCURVE",
"244 192 OFFCURVE",
"280 137 CURVE SMOOTH",
"316 82 OFFCURVE",
"370 34 OFFCURVE",
"411 34 CURVE SMOOTH",
"447 34 OFFCURVE",
"473 68 OFFCURVE",
"473 162 CURVE SMOOTH",
"473 265 OFFCURVE",
"443 400 OFFCURVE",
"431 436 CURVE SMOOTH",
"424 457 OFFCURVE",
"414 479 OFFCURVE",
"409 479 CURVE SMOOTH",
"407 479 OFFCURVE",
"406 475 OFFCURVE",
"406 468 CURVE SMOOTH",
"406 460 OFFCURVE",
"407 448 OFFCURVE",
"410 430 CURVE SMOOTH",
"414 409 OFFCURVE",
"436 271 OFFCURVE",
"436 173 CURVE SMOOTH",
"436 116 OFFCURVE",
"424 71 OFFCURVE",
"395 71 CURVE SMOOTH",
"377 71 OFFCURVE",
"354 88 OFFCURVE",
"327 130 CURVE SMOOTH",
"266 225 OFFCURVE",
"231 322 OFFCURVE",
"218 350 CURVE",
"291 447 OFFCURVE",
"405 607 OFFCURVE",
"488 679 CURVE SMOOTH",
"496 686 OFFCURVE",
"499 693 OFFCURVE",
"499 699 CURVE SMOOTH",
"499 711 OFFCURVE",
"487 720 OFFCURVE",
"472 720 CURVE SMOOTH",
"462 720 OFFCURVE",
"452 716 OFFCURVE",
"442 708 CURVE SMOOTH",
"366 641 OFFCURVE",
"271 507 OFFCURVE",
"204 411 CURVE",
"196 437 OFFCURVE",
"160 568 OFFCURVE",
"135 671 CURVE SMOOTH",
"128 702 OFFCURVE",
"97 749 OFFCURVE",
"80 749 CURVE SMOOTH",
"73 749 OFFCURVE",
"68 742 OFFCURVE",
"68 722 CURVE SMOOTH",
"68 700 OFFCURVE",
"73 666 OFFCURVE",
"87 612 CURVE SMOOTH",
"96 574 OFFCURVE",
"130 456 OFFCURVE",
"173 357 CURVE",
"77 201 OFFCURVE",
"-4 40 OFFCURVE",
"-24 -111 CURVE SMOOTH",
"-25 -116 OFFCURVE",
"-25 -120 OFFCURVE",
"-25 -124 CURVE SMOOTH",
"-25 -133 OFFCURVE",
"-23 -137 OFFCURVE",
"-19 -137 CURVE SMOOTH"
);
}
);
width = 497;
}
);
note = X;
unicode = 0058;
},
{
glyphname = Y;
lastChange = "2021-11-19 13:35:13 +0000";
layers = (
{
anchors = (
{
name = bottom;
position = "{459, 0}";
},
{
name = top;
position = "{255, 740}";
},
{
name = topleft;
position = "{20, 680}";
}
);
background = {
paths = (
{
closed = 1;
nodes = (
"492 89 OFFCURVE",
"448 86 OFFCURVE",
"405 79 CURVE",
"419 227 OFFCURVE",
"397 458 OFFCURVE",
"359 549 CURVE SMOOTH",
"349 574 OFFCURVE",
"302 569 OFFCURVE",
"307 535 CURVE",
"310 525 OFFCURVE",
"313 516 OFFCURVE",
"316 506 CURVE",
"295 404 OFFCURVE",
"255 252 OFFCURVE",
"214 174 CURVE SMOOTH",
"157 66 OFFCURVE",
"64 -71 OFFCURVE",
"38 146 CURVE SMOOTH",
"18 315 OFFCURVE",
"156 808 OFFCURVE",
"4 868 CURVE SMOOTH",
"-48 888 OFFCURVE",
"-88 806 OFFCURVE",
"-77 765 CURVE",
"-75 746 OFFCURVE",
"-42 852 OFFCURVE",
"-3 843 CURVE SMOOTH",
"79 823 OFFCURVE",
"-23 225 OFFCURVE",
"-9 114 CURVE SMOOTH",
"27 -185 OFFCURVE",
"255 91 OFFCURVE",
"329 461 CURVE",
"364 335 OFFCURVE",
"387 196 OFFCURVE",
"381 72 CURVE",
"166 25 OFFCURVE",
"12 -95 OFFCURVE",
"-49 -184 CURVE SMOOTH",
"-164 -353 OFFCURVE",
"3 -465 OFFCURVE",
"194 -325 CURVE SMOOTH",
"278 -264 OFFCURVE",
"365 -144 OFFCURVE",
"402 59 CURVE",
"445 69 OFFCURVE",
"488 75 OFFCURVE",
"530 78 CURVE SMOOTH",
"559 80 OFFCURVE",
"568 95 OFFCURVE",
"540 93 CURVE SMOOTH"
);
},
{
closed = 1;
nodes = (
"359 -109 OFFCURVE",
"262 -256 OFFCURVE",
"123 -338 CURVE SMOOTH",
"-40 -434 OFFCURVE",
"-106 -318 OFFCURVE",
"-9 -192 CURVE SMOOTH",
"76 -79 OFFCURVE",
"238 14 OFFCURVE",
"379 51 CURVE"
);
}
);
};
layerId = "197ECFA8-A16D-41AC-99D0-22A54F6A6421";
paths = (
{
closed = 1;
nodes = (
"75 -388 OFFCURVE",
"134 -369 OFFCURVE",
"194 -325 CURVE SMOOTH",
"278 -264 OFFCURVE",
"365 -144 OFFCURVE",
"402 59 CURVE",
"445 69 OFFCURVE",
"488 75 OFFCURVE",
"530 78 CURVE SMOOTH",
"547 79 OFFCURVE",
"557 85 OFFCURVE",
"557 89 CURVE SMOOTH",
"557 91 OFFCURVE",
"553 93 OFFCURVE",
"545 93 CURVE SMOOTH",
"540 93 LINE SMOOTH",
"492 93 OFFCURVE",
"448 86 OFFCURVE",
"405 79 CURVE",
"408 110 OFFCURVE",
"409 144 OFFCURVE",
"409 179 CURVE SMOOTH",
"409 316 OFFCURVE",
"389 477 OFFCURVE",
"359 549 CURVE SMOOTH",
"355 559 OFFCURVE",
"344 565 OFFCURVE",
"333 565 CURVE SMOOTH",
"319 565 OFFCURVE",
"304 555 OFFCURVE",
"307 535 CURVE",
"316 506 LINE",
"295 404 OFFCURVE",
"255 252 OFFCURVE",
"214 174 CURVE SMOOTH",
"179 108 OFFCURVE",
"131 31 OFFCURVE",
"92 31 CURVE SMOOTH",
"68 31 OFFCURVE",
"48 62 OFFCURVE",
"38 146 CURVE SMOOTH",
"37 158 OFFCURVE",
"36 172 OFFCURVE",
"36 187 CURVE SMOOTH",
"36 306 OFFCURVE",
"76 511 OFFCURVE",
"76 666 CURVE SMOOTH",
"76 767 OFFCURVE",
"59 846 OFFCURVE",
"4 868 CURVE SMOOTH",
"-2 870 OFFCURVE",
"-7 871 OFFCURVE",
"-12 871 CURVE SMOOTH",
"-50 871 OFFCURVE",
"-79 818 OFFCURVE",
"-79 780 CURVE SMOOTH",
"-79 775 OFFCURVE",
"-78 770 OFFCURVE",
"-77 765 CURVE SMOOTH",
"-75 747 OFFCURVE",
"-45 844 OFFCURVE",
"-8 844 CURVE SMOOTH",
"20 844 OFFCURVE",
"29 786 OFFCURVE",
"29 703 CURVE SMOOTH",
"29 531 OFFCURVE",
"-10 251 OFFCURVE",
"-10 142 CURVE SMOOTH",
"-10 131 OFFCURVE",
"-10 121 OFFCURVE",
"-9 114 CURVE SMOOTH",
"2 25 OFFCURVE",
"29 -13 OFFCURVE",
"65 -13 CURVE SMOOTH",
"149 -13 OFFCURVE",
"277 201 OFFCURVE",
"329 461 CURVE",
"360 348 OFFCURVE",
"382 226 OFFCURVE",
"382 112 CURVE SMOOTH",
"382 99 OFFCURVE",
"382 85 OFFCURVE",
"381 72 CURVE",
"166 25 OFFCURVE",
"12 -95 OFFCURVE",
"-49 -184 CURVE SMOOTH",
"-75 -223 OFFCURVE",
"-87 -258 OFFCURVE",
"-87 -288 CURVE SMOOTH",
"-87 -349 OFFCURVE",
"-40 -388 OFFCURVE",
"28 -388 CURVE SMOOTH"
);
},
{
closed = 1;
nodes = (
"-28 -373 OFFCURVE",
"-54 -345 OFFCURVE",
"-54 -303 CURVE SMOOTH",
"-54 -271 OFFCURVE",
"-40 -232 OFFCURVE",
"-9 -192 CURVE SMOOTH",
"76 -79 OFFCURVE",
"238 14 OFFCURVE",
"379 51 CURVE",
"359 -109 OFFCURVE",
"262 -256 OFFCURVE",
"123 -338 CURVE SMOOTH",
"81 -363 OFFCURVE",
"45 -373 OFFCURVE",
"17 -373 CURVE SMOOTH"
);
}
);
width = 439;
}
);
note = Y;
unicode = 0059;
},
{
glyphname = Z;
lastChange = "2021-11-19 13:26:01 +0000";
layers = (
{
anchors = (
{
name = bottom;
position = "{283, 0}";
},
{
name = center;
position = "{283, 340}";
},
{
name = top;
position = "{356, 635}";
}
);
background = {
paths = (
{
closed = 1;
nodes = (
"166 689 OFFCURVE",
"167 695 OFFCURVE",
"139 690 CURVE SMOOTH",
"122 687 OFFCURVE",
"83 655 OFFCURVE",
"94 616 CURVE SMOOTH",
"124 506 OFFCURVE",
"450 547 OFFCURVE",
"502 557 CURVE SMOOTH",
"526 562 OFFCURVE",
"546 566 OFFCURVE",
"564 571 CURVE",
"343 381 OFFCURVE",
"73 207 OFFCURVE",
"12 -31 CURVE SMOOTH",
"3 -68 OFFCURVE",
"37 -68 OFFCURVE",
"59 -44 CURVE",
"212 40 OFFCURVE",
"627 115 OFFCURVE",
"550 -10 CURVE SMOOTH",
"528 -46 OFFCURVE",
"578 -27 OFFCURVE",
"580 9 CURVE SMOOTH",
"583 45 OFFCURVE",
"588 109 OFFCURVE",
"471 113 CURVE SMOOTH",
"339 118 OFFCURVE",
"143 26 OFFCURVE",
"63 -22 CURVE",
"149 269 OFFCURVE",
"425 428 OFFCURVE",
"616 541 CURVE SMOOTH",
"671 573 OFFCURVE",
"631 632 OFFCURVE",
"610 623 CURVE SMOOTH",
"528 586 OFFCURVE",
"14 536 OFFCURVE",
"137 660 CURVE SMOOTH"
);
}
);
};
layerId = "197ECFA8-A16D-41AC-99D0-22A54F6A6421";
paths = (
{
closed = 1;
nodes = (
"37 -61 OFFCURVE",
"49 -55 OFFCURVE",
"59 -44 CURVE",
"153 8 OFFCURVE",
"347 56 OFFCURVE",
"464 56 CURVE SMOOTH",
"521 56 OFFCURVE",
"559 45 OFFCURVE",
"559 17 CURVE SMOOTH",
"559 10 OFFCURVE",
"556 0 OFFCURVE",
"550 -10 CURVE SMOOTH",
"546 -17 OFFCURVE",
"545 -21 OFFCURVE",
"545 -24 CURVE SMOOTH",
"545 -28 OFFCURVE",
"546 -29 OFFCURVE",
"549 -29 CURVE SMOOTH",
"559 -29 OFFCURVE",
"579 -13 OFFCURVE",
"580 9 CURVE SMOOTH",
"580 15 OFFCURVE",
"581 22 OFFCURVE",
"581 29 CURVE SMOOTH",
"581 66 OFFCURVE",
"567 113 OFFCURVE",
"460 113 CURVE SMOOTH",
"329 113 OFFCURVE",
"141 25 OFFCURVE",
"63 -22 CURVE",
"149 269 OFFCURVE",
"425 428 OFFCURVE",
"616 541 CURVE SMOOTH",
"637 553 OFFCURVE",
"644 569 OFFCURVE",
"644 583 CURVE SMOOTH",
"644 608 OFFCURVE",
"623 629 OFFCURVE",
"610 623 CURVE SMOOTH",
"567 604 OFFCURVE",
"408 581 OFFCURVE",
"281 581 CURVE SMOOTH",
"191 581 OFFCURVE",
"118 593 OFFCURVE",
"118 626 CURVE SMOOTH",
"118 636 OFFCURVE",
"124 647 OFFCURVE",
"137 660 CURVE SMOOTH",
"160 683 OFFCURVE",
"165 692 OFFCURVE",
"153 692 CURVE SMOOTH",
"149 692 OFFCURVE",
"145 691 OFFCURVE",
"139 690 CURVE SMOOTH",
"124 687 OFFCURVE",
"92 662 OFFCURVE",
"92 630 CURVE SMOOTH",
"92 625 OFFCURVE",
"93 621 OFFCURVE",
"94 616 CURVE SMOOTH",
"110 557 OFFCURVE",
"213 541 OFFCURVE",
"312 541 CURVE SMOOTH",
"396 541 OFFCURVE",
"478 552 OFFCURVE",
"502 557 CURVE SMOOTH",
"526 562 OFFCURVE",
"546 566 OFFCURVE",
"564 571 CURVE",
"343 381 OFFCURVE",
"73 207 OFFCURVE",
"12 -31 CURVE SMOOTH",
"11 -35 OFFCURVE",
"10 -39 OFFCURVE",
"10 -42 CURVE SMOOTH",
"10 -55 OFFCURVE",
"17 -61 OFFCURVE",
"27 -61 CURVE SMOOTH"
);
}
);
width = 565;
}
);
note = Z;
unicode = 005A;
},
{
glyphname = a;
lastChange = "2021-11-19 13:41:08 +0000";
layers = (
{
anchors = (
{
name = bottom;
position = "{132, 0}";
},
{
name = ogonek;
position = "{237, 10}";
},
{
name = top;
position = "{184, 340}";
}
);
background = {
paths = (
{
closed = 1;
nodes = (
"308 99 OFFCURVE",
"286 107 OFFCURVE",
"277 91 CURVE SMOOTH",
"231 13 OFFCURVE",
"229 117 OFFCURVE",
"235 155 CURVE SMOOTH",
"239 185 OFFCURVE",
"246 214 OFFCURVE",
"241 228 CURVE SMOOTH",
"236 246 OFFCURVE",
"215 246 OFFCURVE",
"205 232 CURVE",
"184 182 OFFCURVE",
"159 122 OFFCURVE",
"129 79 CURVE SMOOTH",
"87 21 OFFCURVE",
"54 15 OFFCURVE",
"64 94 CURVE SMOOTH",
"67 122 OFFCURVE",
"78 181 OFFCURVE",
"100 230 CURVE SMOOTH",
"126 290 OFFCURVE",
"180 344 OFFCURVE",
"216 261 CURVE SMOOTH",
"224 243 OFFCURVE",
"242 268 OFFCURVE",
"234 302 CURVE SMOOTH",
"227 327 OFFCURVE",
"204 346 OFFCURVE",
"179 341 CURVE SMOOTH",
"93 324 OFFCURVE",
"0 80 OFFCURVE",
"34 25 CURVE SMOOTH",
"79 -47 OFFCURVE",
"176 124 OFFCURVE",
"192 164 CURVE",
"193 150 OFFCURVE",
"187 112 OFFCURVE",
"210 68 CURVE SMOOTH",
"226 37 OFFCURVE",
"271 44 OFFCURVE",
"292 75 CURVE SMOOTH"
);
}
);
};
guideLines = (
{
position = "{44, 0}";
}
);
layerId = "197ECFA8-A16D-41AC-99D0-22A54F6A6421";
paths = (
{
closed = 1;
nodes = (
"110 8 OFFCURVE",
"179 131 OFFCURVE",
"192 164 CURVE",
"193 150 OFFCURVE",
"187 112 OFFCURVE",
"210 68 CURVE SMOOTH",
"217 54 OFFCURVE",
"230 48 OFFCURVE",
"244 48 CURVE SMOOTH",
"268 48 OFFCURVE",
"298 72 OFFCURVE",
"298 90 CURVE SMOOTH",
"298 96 OFFCURVE",
"294 99 OFFCURVE",
"289 99 CURVE SMOOTH",
"285 99 OFFCURVE",
"280 97 OFFCURVE",
"277 91 CURVE SMOOTH",
"265 71 OFFCURVE",
"256 63 OFFCURVE",
"249 63 CURVE SMOOTH",
"237 63 OFFCURVE",
"233 91 OFFCURVE",
"233 119 CURVE SMOOTH",
"233 158 OFFCURVE",
"243 180 OFFCURVE",
"243 215 CURVE SMOOTH",
"243 224 OFFCURVE",
"240 242 OFFCURVE",
"224 242 CURVE SMOOTH",
"217 242 OFFCURVE",
"208 239 OFFCURVE",
"202 226 CURVE SMOOTH",
"185 185 OFFCURVE",
"159 122 OFFCURVE",
"129 79 CURVE SMOOTH",
"109 51 OFFCURVE",
"90 35 OFFCURVE",
"78 35 CURVE SMOOTH",
"68 35 OFFCURVE",
"62 46 OFFCURVE",
"62 69 CURVE SMOOTH",
"62 107 OFFCURVE",
"80 186 OFFCURVE",
"100 230 CURVE SMOOTH",
"116 268 OFFCURVE",
"144 304 OFFCURVE",
"171 304 CURVE SMOOTH",
"187 304 OFFCURVE",
"203 292 OFFCURVE",
"216 261 CURVE SMOOTH",
"218 257 OFFCURVE",
"220 255 OFFCURVE",
"223 255 CURVE SMOOTH",
"229 255 OFFCURVE",
"236 268 OFFCURVE",
"236 285 CURVE SMOOTH",
"236 314 OFFCURVE",
"214 342 OFFCURVE",
"187 342 CURVE SMOOTH",
"113 342 OFFCURVE",
"27 149 OFFCURVE",
"27 60 CURVE SMOOTH",
"27 32 OFFCURVE",
"37 8 OFFCURVE",
"61 8 CURVE SMOOTH"
);
}
);
width = 263;
}
);
note = a;
unicode = 0061;
},
{
glyphname = ae;
lastChange = "2021-11-19 13:05:21 +0000";
layers = (
{
anchors = (
{
name = bottom;
position = "{182, 0}";
},
{
name = top;
position = "{285, 375}";
}
);
background = {
paths = (
{
closed = 1;
nodes = (
"433 161 OFFCURVE",
"425 179 OFFCURVE",
"405 139 CURVE SMOOTH",
"318 -32 OFFCURVE",
"215 -5 OFFCURVE",
"221 146 CURVE SMOOTH",
"224 183 OFFCURVE",
"241 290 OFFCURVE",
"283 287 CURVE SMOOTH",
"301 286 OFFCURVE",
"312 260 OFFCURVE",
"293 223 CURVE SMOOTH",
"283 203 OFFCURVE",
"266 180 OFFCURVE",
"247 167 CURVE SMOOTH",
"229 156 OFFCURVE",
"223 140 OFFCURVE",
"245 148 CURVE SMOOTH",
"268 157 OFFCURVE",
"299 189 OFFCURVE",
"317 224 CURVE SMOOTH",
"359 307 OFFCURVE",
"297 351 OFFCURVE",
"246 313 CURVE",
"243 336 OFFCURVE",
"233 353 OFFCURVE",
"218 365 CURVE SMOOTH",
"205 376 OFFCURVE",
"180 383 OFFCURVE",
"156 380 CURVE SMOOTH",
"129 377 OFFCURVE",
"74 353 OFFCURVE",
"63 316 CURVE SMOOTH",
"61 310 OFFCURVE",
"59 302 OFFCURVE",
"65 300 CURVE SMOOTH",
"72 299 OFFCURVE",
"85 325 OFFCURVE",
"88 330 CURVE SMOOTH",
"92 339 OFFCURVE",
"104 352 OFFCURVE",
"115 358 CURVE SMOOTH",
"133 369 OFFCURVE",
"150 367 OFFCURVE",
"163 363 CURVE SMOOTH",
"203 350 OFFCURVE",
"209 295 OFFCURVE",
"200 246 CURVE",
"188 258 OFFCURVE",
"166 267 OFFCURVE",
"153 266 CURVE SMOOTH",
"68 253 OFFCURVE",
"-16 80 OFFCURVE",
"18 25 CURVE SMOOTH",
"63 -47 OFFCURVE",
"151 89 OFFCURVE",
"186 170 CURVE",
"178 121 OFFCURVE",
"194 -1 OFFCURVE",
"279 -1 CURVE SMOOTH",
"331 -1 OFFCURVE",
"395 52 OFFCURVE",
"429 149 CURVE SMOOTH"
);
},
{
closed = 1;
nodes = (
"71 21 OFFCURVE",
"38 27 OFFCURVE",
"40 80 CURVE SMOOTH",
"41 108 OFFCURVE",
"57 149 OFFCURVE",
"83 187 CURVE SMOOTH",
"115 233 OFFCURVE",
"169 276 OFFCURVE",
"190 219 CURVE",
"171 173 OFFCURVE",
"139 117 OFFCURVE",
"113 79 CURVE SMOOTH"
);
}
);
};
layerId = "197ECFA8-A16D-41AC-99D0-22A54F6A6421";
paths = (
{
closed = 1;
nodes = (
"331 -1 OFFCURVE",
"395 52 OFFCURVE",
"429 149 CURVE SMOOTH",
"431 155 OFFCURVE",
"430 164 OFFCURVE",
"425 164 CURVE SMOOTH",
"421 164 OFFCURVE",
"414 158 OFFCURVE",
"405 139 CURVE SMOOTH",
"364 58 OFFCURVE",
"319 21 OFFCURVE",
"284 21 CURVE SMOOTH",
"245 21 OFFCURVE",
"218 67 OFFCURVE",
"221 146 CURVE SMOOTH",
"224 182 OFFCURVE",
"241 287 OFFCURVE",
"281 287 CURVE SMOOTH",
"293 287 OFFCURVE",
"303 277 OFFCURVE",
"303 259 CURVE SMOOTH",
"303 249 OFFCURVE",
"300 237 OFFCURVE",
"293 223 CURVE SMOOTH",
"283 203 OFFCURVE",
"266 180 OFFCURVE",
"247 167 CURVE SMOOTH",
"237 161 OFFCURVE",
"231 153 OFFCURVE",
"231 149 CURVE SMOOTH",
"231 147 OFFCURVE",
"232 146 OFFCURVE",
"235 146 CURVE SMOOTH",
"238 146 OFFCURVE",
"241 146 OFFCURVE",
"245 148 CURVE SMOOTH",
"268 157 OFFCURVE",
"299 189 OFFCURVE",
"317 224 CURVE SMOOTH",
"327 243 OFFCURVE",
"331 260 OFFCURVE",
"331 275 CURVE SMOOTH",
"331 307 OFFCURVE",
"310 327 OFFCURVE",
"284 327 CURVE SMOOTH",
"272 327 OFFCURVE",
"259 322 OFFCURVE",
"246 313 CURVE",
"243 336 OFFCURVE",
"233 353 OFFCURVE",
"218 365 CURVE SMOOTH",
"207 374 OFFCURVE",
"188 381 OFFCURVE",
"167 381 CURVE SMOOTH",
"164 381 OFFCURVE",
"160 380 OFFCURVE",
"156 380 CURVE SMOOTH",
"129 377 OFFCURVE",
"74 353 OFFCURVE",
"63 316 CURVE SMOOTH",
"62 313 OFFCURVE",
"61 310 OFFCURVE",
"61 307 CURVE SMOOTH",
"61 304 OFFCURVE",
"62 301 OFFCURVE",
"65 300 CURVE SMOOTH",
"72 299 OFFCURVE",
"85 325 OFFCURVE",
"88 330 CURVE SMOOTH",
"92 339 OFFCURVE",
"104 352 OFFCURVE",
"115 358 CURVE SMOOTH",
"125 364 OFFCURVE",
"135 366 OFFCURVE",
"143 366 CURVE SMOOTH",
"151 366 OFFCURVE",
"157 365 OFFCURVE",
"163 363 CURVE SMOOTH",
"193 353 OFFCURVE",
"204 321 OFFCURVE",
"204 284 CURVE SMOOTH",
"204 272 OFFCURVE",
"202 259 OFFCURVE",
"200 246 CURVE",
"188 258 OFFCURVE",
"166 267 OFFCURVE",
"153 266 CURVE SMOOTH",
"81 255 OFFCURVE",
"10 130 OFFCURVE",
"10 58 CURVE SMOOTH",
"10 45 OFFCURVE",
"13 34 OFFCURVE",
"18 25 CURVE SMOOTH",
"27 11 OFFCURVE",
"37 5 OFFCURVE",
"49 5 CURVE SMOOTH",
"96 5 OFFCURVE",
"158 105 OFFCURVE",
"186 170 CURVE",
"185 163 OFFCURVE",
"184 154 OFFCURVE",
"184 144 CURVE SMOOTH",
"184 88 OFFCURVE",
"206 -1 OFFCURVE",
"279 -1 CURVE SMOOTH"
);
},
{
closed = 1;
nodes = (
"48 38 OFFCURVE",
"40 51 OFFCURVE",
"40 76 CURVE SMOOTH",
"40 104 OFFCURVE",
"56 147 OFFCURVE",
"83 187 CURVE SMOOTH",
"104 217 OFFCURVE",
"135 246 OFFCURVE",
"159 246 CURVE SMOOTH",
"172 246 OFFCURVE",
"183 238 OFFCURVE",
"190 219 CURVE",
"171 173 OFFCURVE",
"139 117 OFFCURVE",
"113 79 CURVE SMOOTH",
"93 51 OFFCURVE",
"74 38 OFFCURVE",
"61 38 CURVE SMOOTH"
);
}
);
width = 364;
}
);
note = ae;
unicode = 00E6;
},
{
glyphname = b;
lastChange = "2021-11-18 16:37:21 +0000";
layers = (
{
background = {
paths = (
{
closed = 1;
nodes = (
"189 282 OFFCURVE",
"137 276 OFFCURVE",
"100 257 CURVE",
"114 344 OFFCURVE",
"134 424 OFFCURVE",
"154 463 CURVE SMOOTH",
"175 505 OFFCURVE",
"194 538 OFFCURVE",
"192 556 CURVE SMOOTH",
"191 575 OFFCURVE",
"163 586 OFFCURVE",
"146 568 CURVE SMOOTH",
"110 528 OFFCURVE",
"80 380 OFFCURVE",
"66 233 CURVE",
"42 212 OFFCURVE",
"10 179 OFFCURVE",
"6 167 CURVE SMOOTH",
"0 150 OFFCURVE",
"10 141 OFFCURVE",
"20 151 CURVE SMOOTH",
"29 160 OFFCURVE",
"45 184 OFFCURVE",
"63 205 CURVE",
"53 82 OFFCURVE",
"56 -34 OFFCURVE",
"77 -78 CURVE SMOOTH",
"86 -97 OFFCURVE",
"101 -87 OFFCURVE",
"88 -53 CURVE SMOOTH",
"70 -6 OFFCURVE",
"78 118 OFFCURVE",
"96 235 CURVE",
"234 322 OFFCURVE",
"222 128 OFFCURVE",
"152 33 CURVE SMOOTH",
"142 19 OFFCURVE",
"98 -36 OFFCURVE",
"110 18 CURVE SMOOTH",
"118 55 OFFCURVE",
"147 114 OFFCURVE",
"164 146 CURVE SMOOTH",
"168 153 OFFCURVE",
"170 158 OFFCURVE",
"173 162 CURVE SMOOTH",
"186 184 OFFCURVE",
"176 182 OFFCURVE",
"171 176 CURVE SMOOTH",
"166 170 OFFCURVE",
"160 162 OFFCURVE",
"154 152 CURVE SMOOTH",
"129 114 OFFCURVE",
"99 51 OFFCURVE",
"90 18 CURVE SMOOTH",
"85 -3 OFFCURVE",
"96 -30 OFFCURVE",
"123 -22 CURVE SMOOTH",
"140 -17 OFFCURVE",
"152 -3 OFFCURVE",
"163 9 CURVE SMOOTH",
"209 57 OFFCURVE",
"277 193 OFFCURVE",
"217 254 CURVE SMOOTH"
);
}
);
};
layerId = "197ECFA8-A16D-41AC-99D0-22A54F6A6421";
paths = (
{
closed = 1;
nodes = (
"90 -88 OFFCURVE",
"93 -83 OFFCURVE",
"93 -76 CURVE SMOOTH",
"93 -70 OFFCURVE",
"92 -63 OFFCURVE",
"88 -53 CURVE SMOOTH",
"81 -34 OFFCURVE",
"78 -4 OFFCURVE",
"78 33 CURVE SMOOTH",
"78 91 OFFCURVE",
"85 164 OFFCURVE",
"96 235 CURVE",
"120 250 OFFCURVE",
"140 257 OFFCURVE",
"155 257 CURVE SMOOTH",
"189 257 OFFCURVE",
"203 226 OFFCURVE",
"203 185 CURVE SMOOTH",
"203 137 OFFCURVE",
"183 75 OFFCURVE",
"152 33 CURVE SMOOTH",
"145 24 OFFCURVE",
"122 -5 OFFCURVE",
"113 -5 CURVE SMOOTH",
"110 -5 OFFCURVE",
"108 -3 OFFCURVE",
"108 3 CURVE SMOOTH",
"108 37 OFFCURVE",
"144 109 OFFCURVE",
"164 146 CURVE SMOOTH",
"170 157 OFFCURVE",
"179 172 OFFCURVE",
"179 177 CURVE SMOOTH",
"179 179 OFFCURVE",
"178 180 OFFCURVE",
"177 180 CURVE SMOOTH",
"172 180 OFFCURVE",
"159 161 OFFCURVE",
"154 152 CURVE SMOOTH",
"133 120 OFFCURVE",
"89 34 OFFCURVE",
"89 9 CURVE SMOOTH",
"89 -7 OFFCURVE",
"97 -23 OFFCURVE",
"114 -23 CURVE SMOOTH",
"136 -23 OFFCURVE",
"150 -5 OFFCURVE",
"163 9 CURVE SMOOTH",
"196 44 OFFCURVE",
"241 124 OFFCURVE",
"241 189 CURVE SMOOTH",
"241 235 OFFCURVE",
"217 273 OFFCURVE",
"164 273 CURVE SMOOTH",
"142 273 OFFCURVE",
"119 267 OFFCURVE",
"100 257 CURVE",
"114 344 OFFCURVE",
"134 424 OFFCURVE",
"154 463 CURVE SMOOTH",
"174 503 OFFCURVE",
"192 535 OFFCURVE",
"192 553 CURVE SMOOTH",
"192 567 OFFCURVE",
"181 577 OFFCURVE",
"167 577 CURVE SMOOTH",
"160 577 OFFCURVE",
"152 574 OFFCURVE",
"146 568 CURVE SMOOTH",
"110 528 OFFCURVE",
"80 380 OFFCURVE",
"66 233 CURVE",
"47 216 OFFCURVE",
"4 177 OFFCURVE",
"4 158 CURVE SMOOTH",
"4 151 OFFCURVE",
"8 147 OFFCURVE",
"12 147 CURVE SMOOTH",
"14 147 OFFCURVE",
"17 148 OFFCURVE",
"20 151 CURVE SMOOTH",
"29 160 OFFCURVE",
"45 184 OFFCURVE",
"63 205 CURVE",
"59 161 OFFCURVE",
"57 117 OFFCURVE",
"57 78 CURVE SMOOTH",
"57 8 OFFCURVE",
"64 -50 OFFCURVE",
"77 -78 CURVE SMOOTH",
"80 -85 OFFCURVE",
"83 -88 OFFCURVE",
"87 -88 CURVE SMOOTH"
);
}
);
width = 241;
}
);
note = b;
unicode = 0062;
},
{
glyphname = c;
lastChange = "2021-11-19 13:05:33 +0000";
layers = (
{
anchors = (
{
name = bottom;
position = "{92, 0}";
},
{
name = top;
position = "{167, 318}";
}
);
background = {
paths = (
{
closed = 1;
nodes = (
"239 131 OFFCURVE",
"239 164 OFFCURVE",
"214 119 CURVE SMOOTH",
"200 94 OFFCURVE",
"137 -2 OFFCURVE",
"72 8 CURVE SMOOTH",
"13 17 OFFCURVE",
"91 282 OFFCURVE",
"154 279 CURVE SMOOTH",
"169 278 OFFCURVE",
"165 251 OFFCURVE",
"180 249 CURVE SMOOTH",
"206 245 OFFCURVE",
"212 328 OFFCURVE",
"158 317 CURVE SMOOTH",
"91 304 OFFCURVE",
"13 127 OFFCURVE",
"13 57 CURVE SMOOTH",
"13 -41 OFFCURVE",
"98 -32 OFFCURVE",
"152 9 CURVE SMOOTH",
"186 35 OFFCURVE",
"216 73 OFFCURVE",
"233 117 CURVE SMOOTH"
);
}
);
};
layerId = "197ECFA8-A16D-41AC-99D0-22A54F6A6421";
paths = (
{
closed = 1;
nodes = (
"135 -20 OFFCURVE",
"195 37 OFFCURVE",
"224 97 CURVE SMOOTH",
"229 107 OFFCURVE",
"236 121 OFFCURVE",
"236 134 CURVE SMOOTH",
"236 138 OFFCURVE",
"235 142 OFFCURVE",
"233 142 CURVE SMOOTH",
"229 142 OFFCURVE",
"223 136 OFFCURVE",
"214 119 CURVE SMOOTH",
"201 95 OFFCURVE",
"143 7 OFFCURVE",
"82 7 CURVE SMOOTH",
"58 7 OFFCURVE",
"51 22 OFFCURVE",
"51 55 CURVE SMOOTH",
"51 132 OFFCURVE",
"106 279 OFFCURVE",
"153 279 CURVE SMOOTH",
"170 279 OFFCURVE",
"165 249 OFFCURVE",
"182 249 CURVE SMOOTH",
"192 249 OFFCURVE",
"199 264 OFFCURVE",
"199 280 CURVE SMOOTH",
"199 298 OFFCURVE",
"190 318 OFFCURVE",
"167 318 CURVE SMOOTH",
"96 318 OFFCURVE",
"13 129 OFFCURVE",
"13 57 CURVE SMOOTH",
"13 1 OFFCURVE",
"41 -20 OFFCURVE",
"75 -20 CURVE SMOOTH"
);
}
);
width = 183;
}
);
note = c;
unicode = 0063;
},
{
glyphname = d;
lastChange = "2021-11-19 13:05:52 +0000";
layers = (
{
anchors = (
{
name = bottom;
position = "{150, 0}";
},
{
name = center;
position = "{226, 350}";
},
{
name = top;
position = "{283, 563}";
},
{
name = topright;
position = "{320, 571}";
}
);
background = {
paths = (
{
closed = 1;
nodes = (
"373 165 OFFCURVE",
"366 190 OFFCURVE",
"347 149 CURVE SMOOTH",
"325 102 OFFCURVE",
"235 -56 OFFCURVE",
"232 87 CURVE SMOOTH",
"228 238 OFFCURVE",
"278 408 OFFCURVE",
"309 512 CURVE SMOOTH",
"314 530 OFFCURVE",
"309 553 OFFCURVE",
"299 560 CURVE SMOOTH",
"288 569 OFFCURVE",
"274 553 OFFCURVE",
"269 536 CURVE SMOOTH",
"238 447 OFFCURVE",
"226 350 OFFCURVE",
"215 257 CURVE",
"196 190 OFFCURVE",
"127 -27 OFFCURVE",
"70 -18 CURVE SMOOTH",
"11 -9 OFFCURVE",
"88 250 OFFCURVE",
"151 248 CURVE SMOOTH",
"167 247 OFFCURVE",
"163 220 OFFCURVE",
"178 217 CURVE SMOOTH",
"204 213 OFFCURVE",
"210 296 OFFCURVE",
"156 286 CURVE SMOOTH",
"89 273 OFFCURVE",
"11 96 OFFCURVE",
"11 25 CURVE SMOOTH",
"11 -23 OFFCURVE",
"33 -58 OFFCURVE",
"77 -44 CURVE SMOOTH",
"130 -26 OFFCURVE",
"187 117 OFFCURVE",
"208 190 CURVE",
"202 107 OFFCURVE",
"204 33 OFFCURVE",
"228 16 CURVE SMOOTH",
"271 -13 OFFCURVE",
"326 68 OFFCURVE",
"342 96 CURVE SMOOTH",
"357 122 OFFCURVE",
"353 120 OFFCURVE",
"365 147 CURVE SMOOTH"
);
}
);
};
layerId = "197ECFA8-A16D-41AC-99D0-22A54F6A6421";
paths = (
{
closed = 1;
nodes = (
"89 -47 OFFCURVE",
"111 -21 OFFCURVE",
"130 8 CURVE SMOOTH",
"164 61 OFFCURVE",
"194 141 OFFCURVE",
"208 190 CURVE",
"206 165 OFFCURVE",
"205 141 OFFCURVE",
"205 120 CURVE SMOOTH",
"205 65 OFFCURVE",
"209 10 OFFCURVE",
"248 10 CURVE SMOOTH",
"286 10 OFFCURVE",
"328 72 OFFCURVE",
"342 96 CURVE SMOOTH",
"357 122 OFFCURVE",
"353 120 OFFCURVE",
"365 147 CURVE SMOOTH",
"367 152 OFFCURVE",
"368 157 OFFCURVE",
"368 162 CURVE SMOOTH",
"368 167 OFFCURVE",
"367 171 OFFCURVE",
"364 171 CURVE SMOOTH",
"360 171 OFFCURVE",
"355 165 OFFCURVE",
"347 149 CURVE SMOOTH",
"332 116 OFFCURVE",
"283 28 OFFCURVE",
"254 28 CURVE SMOOTH",
"242 28 OFFCURVE",
"233 44 OFFCURVE",
"232 87 CURVE SMOOTH",
"228 238 OFFCURVE",
"278 407 OFFCURVE",
"297 472 CURVE SMOOTH",
"305 499 OFFCURVE",
"311 512 OFFCURVE",
"311 527 CURVE SMOOTH",
"311 545 OFFCURVE",
"303 563 OFFCURVE",
"292 563 CURVE SMOOTH",
"283 563 OFFCURVE",
"273 550 OFFCURVE",
"269 536 CURVE SMOOTH",
"238 447 OFFCURVE",
"226 350 OFFCURVE",
"215 257 CURVE",
"196 191 OFFCURVE",
"130 -18 OFFCURVE",
"73 -18 CURVE SMOOTH",
"56 -18 OFFCURVE",
"49 0 OFFCURVE",
"49 28 CURVE SMOOTH",
"49 105 OFFCURVE",
"104 249 OFFCURVE",
"151 248 CURVE SMOOTH",
"168 247 OFFCURVE",
"163 217 OFFCURVE",
"180 217 CURVE SMOOTH",
"191 217 OFFCURVE",
"197 232 OFFCURVE",
"197 248 CURVE SMOOTH",
"197 267 OFFCURVE",
"188 287 OFFCURVE",
"165 287 CURVE SMOOTH",
"96 287 OFFCURVE",
"11 99 OFFCURVE",
"11 25 CURVE SMOOTH",
"11 -16 OFFCURVE",
"27 -47 OFFCURVE",
"59 -47 CURVE SMOOTH"
);
}
);
width = 300;
}
);
note = d;
unicode = 0064;
},
{
glyphname = eth;
lastChange = "2021-11-18 16:34:37 +0000";
layers = (
{
background = {
paths = (
{
closed = 1;
nodes = (
"255 565 OFFCURVE",
"220 562 OFFCURVE",
"174 551 CURVE",
"141 583 OFFCURVE",
"107 610 OFFCURVE",
"77 632 CURVE SMOOTH",
"63 641 OFFCURVE",
"50 630 OFFCURVE",
"69 616 CURVE SMOOTH",
"92 598 OFFCURVE",
"118 573 OFFCURVE",
"146 544 CURVE",
"125 538 OFFCURVE",
"102 530 OFFCURVE",
"78 521 CURVE SMOOTH",
"71 519 OFFCURVE",
"97 499 OFFCURVE",
"102 502 CURVE",
"165 523 LINE",
"199 484 OFFCURVE",
"232 440 OFFCURVE",
"260 393 CURVE",
"243 407 OFFCURVE",
"222 414 OFFCURVE",
"197 408 CURVE SMOOTH",
"162 400 OFFCURVE",
"126 363 OFFCURVE",
"105 303 CURVE SMOOTH",
"74 224 OFFCURVE",
"91 131 OFFCURVE",
"125 67 CURVE SMOOTH",
"152 22 OFFCURVE",
"205 -38 OFFCURVE",
"273 3 CURVE SMOOTH",
"321 32 OFFCURVE",
"339 83 OFFCURVE",
"345 152 CURVE SMOOTH",
"359 317 OFFCURVE",
"281 442 OFFCURVE",
"194 532 CURVE",
"224 542 OFFCURVE",
"252 550 OFFCURVE",
"275 556 CURVE SMOOTH",
"281 557 OFFCURVE",
"282 565 OFFCURVE",
"276 565 CURVE SMOOTH"
);
},
{
closed = 1;
nodes = (
"143 342 OFFCURVE",
"165 391 OFFCURVE",
"203 384 CURVE SMOOTH",
"310 365 OFFCURVE",
"311 196 OFFCURVE",
"314 167 CURVE SMOOTH",
"325 42 OFFCURVE",
"227 -27 OFFCURVE",
"172 41 CURVE SMOOTH",
"120 103 OFFCURVE",
"115 216 OFFCURVE",
"135 308 CURVE SMOOTH"
);
}
);
};
layerId = "197ECFA8-A16D-41AC-99D0-22A54F6A6421";
paths = (
{
closed = 1;
nodes = (
"242 -11 OFFCURVE",
"257 -7 OFFCURVE",
"273 3 CURVE SMOOTH",
"321 32 OFFCURVE",
"339 83 OFFCURVE",
"345 152 CURVE SMOOTH",
"346 165 OFFCURVE",
"347 178 OFFCURVE",
"347 190 CURVE SMOOTH",
"347 337 OFFCURVE",
"274 449 OFFCURVE",
"194 532 CURVE",
"224 542 OFFCURVE",
"252 550 OFFCURVE",
"275 556 CURVE SMOOTH",
"281 557 OFFCURVE",
"282 565 OFFCURVE",
"276 565 CURVE SMOOTH",
"255 565 OFFCURVE",
"220 562 OFFCURVE",
"174 551 CURVE",
"141 583 OFFCURVE",
"107 610 OFFCURVE",
"77 632 CURVE SMOOTH",
"74 634 OFFCURVE",
"70 635 OFFCURVE",
"67 635 CURVE SMOOTH",
"62 635 OFFCURVE",
"59 633 OFFCURVE",
"59 629 CURVE SMOOTH",
"59 626 OFFCURVE",
"62 621 OFFCURVE",
"69 616 CURVE SMOOTH",
"92 598 OFFCURVE",
"118 573 OFFCURVE",
"146 544 CURVE",
"125 538 OFFCURVE",
"102 530 OFFCURVE",
"78 521 CURVE SMOOTH",
"71 519 OFFCURVE",
"94 502 OFFCURVE",
"101 502 CURVE SMOOTH",
"102 502 LINE",
"165 523 LINE",
"199 484 OFFCURVE",
"232 440 OFFCURVE",
"260 393 CURVE",
"247 404 OFFCURVE",
"232 410 OFFCURVE",
"215 410 CURVE SMOOTH",
"209 410 OFFCURVE",
"203 409 OFFCURVE",
"197 408 CURVE SMOOTH",
"162 400 OFFCURVE",
"126 363 OFFCURVE",
"105 303 CURVE SMOOTH",
"94 274 OFFCURVE",
"89 243 OFFCURVE",
"89 213 CURVE SMOOTH",
"89 160 OFFCURVE",
"103 108 OFFCURVE",
"125 67 CURVE SMOOTH",
"146 33 OFFCURVE",
"182 -11 OFFCURVE",
"228 -11 CURVE SMOOTH"
);
},
{
closed = 1;
nodes = (
"205 14 OFFCURVE",
"187 23 OFFCURVE",
"172 41 CURVE SMOOTH",
"138 81 OFFCURVE",
"124 144 OFFCURVE",
"124 208 CURVE SMOOTH",
"124 242 OFFCURVE",
"128 276 OFFCURVE",
"135 308 CURVE SMOOTH",
"143 342 OFFCURVE",
"165 391 OFFCURVE",
"203 384 CURVE SMOOTH",
"310 365 OFFCURVE",
"311 196 OFFCURVE",
"314 167 CURVE SMOOTH",
"322 76 OFFCURVE",
"272 14 OFFCURVE",
"223 14 CURVE SMOOTH"
);
}
);
width = 402;
}
);
note = eth;
unicode = 00F0;
},
{
glyphname = e;
lastChange = "2021-11-19 13:06:26 +0000";
layers = (
{
anchors = (
{
name = bottom;
position = "{115, 0}";
},
{
name = ogonek;
position = "{188, 6}";
},
{
name = top;
position = "{120, 331}";
}
);
background = {
paths = (
{
closed = 1;
nodes = (
"261 148 OFFCURVE",
"244 152 OFFCURVE",
"232 128 CURVE SMOOTH",
"139 -67 OFFCURVE",
"34 -2 OFFCURVE",
"62 188 CURVE SMOOTH",
"84 337 OFFCURVE",
"169 303 OFFCURVE",
"130 227 CURVE SMOOTH",
"120 207 OFFCURVE",
"103 184 OFFCURVE",
"84 171 CURVE SMOOTH",
"66 160 OFFCURVE",
"60 144 OFFCURVE",
"82 152 CURVE SMOOTH",
"105 161 OFFCURVE",
"136 193 OFFCURVE",
"154 228 CURVE SMOOTH",
"219 357 OFFCURVE",
"29 392 OFFCURVE",
"26 173 CURVE SMOOTH",
"23 -75 OFFCURVE",
"178 -56 OFFCURVE",
"250 121 CURVE SMOOTH"
);
}
);
};
layerId = "197ECFA8-A16D-41AC-99D0-22A54F6A6421";
paths = (
{
closed = 1;
nodes = (
"162 -13 OFFCURVE",
"215 36 OFFCURVE",
"250 121 CURVE SMOOTH",
"253 127 OFFCURVE",
"254 132 OFFCURVE",
"254 136 CURVE SMOOTH",
"254 141 OFFCURVE",
"251 144 OFFCURVE",
"248 144 CURVE SMOOTH",
"244 144 OFFCURVE",
"237 139 OFFCURVE",
"232 128 CURVE SMOOTH",
"193 46 OFFCURVE",
"151 10 OFFCURVE",
"119 10 CURVE SMOOTH",
"82 10 OFFCURVE",
"57 54 OFFCURVE",
"57 129 CURVE SMOOTH",
"57 147 OFFCURVE",
"59 167 OFFCURVE",
"62 188 CURVE SMOOTH",
"73 264 OFFCURVE",
"100 292 OFFCURVE",
"120 292 CURVE SMOOTH",
"131 292 OFFCURVE",
"140 281 OFFCURVE",
"140 264 CURVE SMOOTH",
"140 234 OFFCURVE",
"111 189 OFFCURVE",
"84 171 CURVE SMOOTH",
"74 165 OFFCURVE",
"68 157 OFFCURVE",
"68 153 CURVE SMOOTH",
"68 151 OFFCURVE",
"69 150 OFFCURVE",
"72 150 CURVE SMOOTH",
"75 150 OFFCURVE",
"78 150 OFFCURVE",
"82 152 CURVE SMOOTH",
"119 166 OFFCURVE",
"168 232 OFFCURVE",
"168 279 CURVE SMOOTH",
"168 312 OFFCURVE",
"146 331 OFFCURVE",
"120 331 CURVE SMOOTH",
"79 331 OFFCURVE",
"26 283 OFFCURVE",
"26 164 CURVE SMOOTH",
"26 41 OFFCURVE",
"67 -13 OFFCURVE",
"115 -13 CURVE SMOOTH"
);
}
);
width = 198;
}
);
note = e;
unicode = 0065;
},
{
glyphname = schwa;
lastChange = "2021-11-18 16:34:37 +0000";
layers = (
{
background = {
paths = (
{
closed = 1;
nodes = (
"3 182 OFFCURVE",
"20 178 OFFCURVE",
"32 202 CURVE SMOOTH",
"125 397 OFFCURVE",
"230 332 OFFCURVE",
"202 142 CURVE SMOOTH",
"180 -7 OFFCURVE",
"95 27 OFFCURVE",
"134 103 CURVE SMOOTH",
"144 123 OFFCURVE",
"161 146 OFFCURVE",
"180 159 CURVE SMOOTH",
"198 170 OFFCURVE",
"204 186 OFFCURVE",
"182 178 CURVE SMOOTH",
"159 169 OFFCURVE",
"128 137 OFFCURVE",
"110 102 CURVE SMOOTH",
"45 -27 OFFCURVE",
"235 -62 OFFCURVE",
"238 157 CURVE SMOOTH",
"241 405 OFFCURVE",
"86 386 OFFCURVE",
"14 209 CURVE SMOOTH"
);
}
);
};
layerId = "197ECFA8-A16D-41AC-99D0-22A54F6A6421";
paths = (
{
closed = 1;
nodes = (
"185 -1 OFFCURVE",
"238 47 OFFCURVE",
"238 166 CURVE SMOOTH",
"238 289 OFFCURVE",
"197 343 OFFCURVE",
"149 343 CURVE SMOOTH",
"102 343 OFFCURVE",
"49 294 OFFCURVE",
"14 209 CURVE SMOOTH",
"11 203 OFFCURVE",
"10 198 OFFCURVE",
"10 194 CURVE SMOOTH",
"10 189 OFFCURVE",
"13 186 OFFCURVE",
"16 186 CURVE SMOOTH",
"20 186 OFFCURVE",
"27 191 OFFCURVE",
"32 202 CURVE SMOOTH",
"71 284 OFFCURVE",
"113 320 OFFCURVE",
"145 320 CURVE SMOOTH",
"182 320 OFFCURVE",
"207 276 OFFCURVE",
"207 201 CURVE SMOOTH",
"207 183 OFFCURVE",
"205 163 OFFCURVE",
"202 142 CURVE SMOOTH",
"191 66 OFFCURVE",
"164 38 OFFCURVE",
"144 38 CURVE SMOOTH",
"133 38 OFFCURVE",
"124 49 OFFCURVE",
"124 66 CURVE SMOOTH",
"124 77 OFFCURVE",
"127 89 OFFCURVE",
"134 103 CURVE SMOOTH",
"144 123 OFFCURVE",
"161 146 OFFCURVE",
"180 159 CURVE SMOOTH",
"190 165 OFFCURVE",
"196 173 OFFCURVE",
"196 177 CURVE SMOOTH",
"196 179 OFFCURVE",
"195 180 OFFCURVE",
"192 180 CURVE SMOOTH",
"189 180 OFFCURVE",
"186 180 OFFCURVE",
"182 178 CURVE SMOOTH",
"159 169 OFFCURVE",
"128 137 OFFCURVE",
"110 102 CURVE SMOOTH",
"100 83 OFFCURVE",
"96 66 OFFCURVE",
"96 51 CURVE SMOOTH",
"96 18 OFFCURVE",
"118 -1 OFFCURVE",
"144 -1 CURVE SMOOTH"
);
}
);
width = 263;
}
);
unicode = 0259;
},
{
glyphname = f;
lastChange = "2021-11-18 16:40:18 +0000";
layers = (
{
background = {
paths = (
{
closed = 1;
nodes = (
"204 297 OFFCURVE",
"171 303 OFFCURVE",
"126 303 CURVE",
"129 315 LINE SMOOTH",
"159 470 OFFCURVE",
"183 544 OFFCURVE",
"223 581 CURVE SMOOTH",
"273 627 OFFCURVE",
"310 578 OFFCURVE",
"261 515 CURVE SMOOTH",
"253 505 OFFCURVE",
"257 488 OFFCURVE",
"265 497 CURVE SMOOTH",
"366 620 OFFCURVE",
"247 666 OFFCURVE",
"207 632 CURVE SMOOTH",
"142 580 OFFCURVE",
"114 447 OFFCURVE",
"91 303 CURVE",
"70 302 OFFCURVE",
"46 300 OFFCURVE",
"21 297 CURVE SMOOTH",
"14 296 OFFCURVE",
"34 271 OFFCURVE",
"40 272 CURVE SMOOTH",
"55 273 OFFCURVE",
"71 275 OFFCURVE",
"87 277 CURVE",
"68 158 OFFCURVE",
"52 34 OFFCURVE",
"20 -56 CURVE SMOOTH",
"-6 -129 OFFCURVE",
"-36 -198 OFFCURVE",
"-91 -239 CURVE SMOOTH",
"-125 -265 OFFCURVE",
"-147 -268 OFFCURVE",
"-157 -249 CURVE SMOOTH",
"-160 -244 OFFCURVE",
"-164 -236 OFFCURVE",
"-169 -230 CURVE",
"-190 -210 OFFCURVE",
"-205 -238 OFFCURVE",
"-197 -254 CURVE SMOOTH",
"-193 -261 OFFCURVE",
"-188 -267 OFFCURVE",
"-182 -271 CURVE SMOOTH",
"-160 -285 OFFCURVE",
"-125 -281 OFFCURVE",
"-86 -261 CURVE SMOOTH",
"-30 -230 OFFCURVE",
"13 -157 OFFCURVE",
"45 -67 CURVE SMOOTH",
"80 29 OFFCURVE",
"100 159 OFFCURVE",
"122 279 CURVE",
"158 282 OFFCURVE",
"193 283 OFFCURVE",
"221 283 CURVE SMOOTH",
"227 283 OFFCURVE",
"230 290 OFFCURVE",
"224 292 CURVE SMOOTH"
);
}
);
};
layerId = "197ECFA8-A16D-41AC-99D0-22A54F6A6421";
paths = (
{
closed = 1;
nodes = (
"-132 -279 OFFCURVE",
"-109 -273 OFFCURVE",
"-86 -261 CURVE SMOOTH",
"-30 -230 OFFCURVE",
"13 -157 OFFCURVE",
"45 -67 CURVE SMOOTH",
"80 29 OFFCURVE",
"100 159 OFFCURVE",
"122 279 CURVE",
"158 282 OFFCURVE",
"193 283 OFFCURVE",
"221 283 CURVE SMOOTH",
"225 283 OFFCURVE",
"227 286 OFFCURVE",
"227 288 CURVE SMOOTH",
"227 290 OFFCURVE",
"226 291 OFFCURVE",
"224 292 CURVE SMOOTH",
"207 297 OFFCURVE",
"171 303 OFFCURVE",
"126 303 CURVE",
"129 315 LINE SMOOTH",
"144 373 OFFCURVE",
"151 421 OFFCURVE",
"162 459 CURVE SMOOTH",
"190 558 OFFCURVE",
"229 599 OFFCURVE",
"259 599 CURVE SMOOTH",
"274 599 OFFCURVE",
"284 588 OFFCURVE",
"284 570 CURVE SMOOTH",
"284 555 OFFCURVE",
"277 536 OFFCURVE",
"261 515 CURVE SMOOTH",
"258 511 OFFCURVE",
"257 506 OFFCURVE",
"257 502 CURVE SMOOTH",
"257 498 OFFCURVE",
"258 494 OFFCURVE",
"261 494 CURVE SMOOTH",
"262 494 OFFCURVE",
"263 495 OFFCURVE",
"265 497 CURVE SMOOTH",
"294 532 OFFCURVE",
"305 561 OFFCURVE",
"305 583 CURVE SMOOTH",
"305 623 OFFCURVE",
"271 643 OFFCURVE",
"240 643 CURVE SMOOTH",
"183 643 OFFCURVE",
"144 546 OFFCURVE",
"124 470 CURVE SMOOTH",
"111 419 OFFCURVE",
"100 362 OFFCURVE",
"91 303 CURVE",
"70 302 OFFCURVE",
"46 300 OFFCURVE",
"21 297 CURVE SMOOTH",
"14 296 OFFCURVE",
"34 271 OFFCURVE",
"40 272 CURVE SMOOTH",
"55 273 OFFCURVE",
"71 275 OFFCURVE",
"87 277 CURVE",
"68 158 OFFCURVE",
"52 34 OFFCURVE",
"20 -56 CURVE SMOOTH",
"-6 -129 OFFCURVE",
"-36 -198 OFFCURVE",
"-91 -239 CURVE SMOOTH",
"-110 -254 OFFCURVE",
"-126 -261 OFFCURVE",
"-138 -261 CURVE SMOOTH",
"-146 -261 OFFCURVE",
"-153 -257 OFFCURVE",
"-157 -249 CURVE SMOOTH",
"-164 -237 OFFCURVE",
"-168 -223 OFFCURVE",
"-183 -223 CURVE SMOOTH",
"-193 -223 OFFCURVE",
"-199 -234 OFFCURVE",
"-199 -244 CURVE SMOOTH",
"-199 -263 OFFCURVE",
"-179 -279 OFFCURVE",
"-150 -279 CURVE SMOOTH"
);
}
);
width = 181;
}
);
note = f;
unicode = 0066;
},
{
glyphname = g;
lastChange = "2021-11-19 13:06:40 +0000";
layers = (
{
anchors = (
{
name = bottom;
position = "{143, -385}";
},
{
name = top;
position = "{163, 340}";
}
);
background = {
paths = (
{
closed = 1;
nodes = (
"252 347 OFFCURVE",
"245 369 OFFCURVE",
"234 376 CURVE SMOOTH",
"222 383 OFFCURVE",
"212 365 OFFCURVE",
"201 295 CURVE SMOOTH",
"191 227 OFFCURVE",
"143 4 OFFCURVE",
"86 6 CURVE SMOOTH",
"26 9 OFFCURVE",
"76 276 OFFCURVE",
"139 279 CURVE SMOOTH",
"155 280 OFFCURVE",
"153 253 OFFCURVE",
"169 252 CURVE SMOOTH",
"195 251 OFFCURVE",
"192 334 OFFCURVE",
"140 318 CURVE SMOOTH",
"75 298 OFFCURVE",
"15 114 OFFCURVE",
"22 44 CURVE SMOOTH",
"28 -4 OFFCURVE",
"53 -37 OFFCURVE",
"95 -18 CURVE SMOOTH",
"146 5 OFFCURVE",
"188 153 OFFCURVE",
"201 229 CURVE",
"202 179 OFFCURVE",
"206 129 OFFCURVE",
"213 76 CURVE SMOOTH",
"241 -118 OFFCURVE",
"226 -238 OFFCURVE",
"101 -334 CURVE SMOOTH",
"-5 -415 OFFCURVE",
"-64 -363 OFFCURVE",
"-7 -266 CURVE SMOOTH",
"46 -175 OFFCURVE",
"92 -125 OFFCURVE",
"185 -79 CURVE SMOOTH",
"203 -70 OFFCURVE",
"204 -55 OFFCURVE",
"186 -64 CURVE SMOOTH",
"154 -80 OFFCURVE",
"124 -94 OFFCURVE",
"97 -112 CURVE SMOOTH",
"-366 -407 OFFCURVE",
"319 -641 OFFCURVE",
"243 80 CURVE SMOOTH",
"234 161 OFFCURVE",
"233 248 OFFCURVE",
"248 329 CURVE SMOOTH"
);
}
);
};
layerId = "197ECFA8-A16D-41AC-99D0-22A54F6A6421";
paths = (
{
closed = 1;
nodes = (
"124 -397 OFFCURVE",
"249 -299 OFFCURVE",
"249 -28 CURVE SMOOTH",
"249 6 OFFCURVE",
"247 41 OFFCURVE",
"243 80 CURVE SMOOTH",
"239 117 OFFCURVE",
"236 155 OFFCURVE",
"236 194 CURVE SMOOTH",
"236 239 OFFCURVE",
"240 285 OFFCURVE",
"248 329 CURVE SMOOTH",
"249 332 OFFCURVE",
"249 336 OFFCURVE",
"249 340 CURVE SMOOTH",
"249 355 OFFCURVE",
"240 377 OFFCURVE",
"231 377 CURVE SMOOTH",
"220 377 OFFCURVE",
"212 365 OFFCURVE",
"201 295 CURVE SMOOTH",
"191 227 OFFCURVE",
"143 4 OFFCURVE",
"86 6 CURVE SMOOTH",
"67 7 OFFCURVE",
"59 34 OFFCURVE",
"59 71 CURVE SMOOTH",
"59 152 OFFCURVE",
"97 279 OFFCURVE",
"140 279 CURVE SMOOTH",
"155 279 OFFCURVE",
"153 253 OFFCURVE",
"169 252 CURVE SMOOTH",
"179 252 OFFCURVE",
"185 264 OFFCURVE",
"185 279 CURVE SMOOTH",
"185 298 OFFCURVE",
"175 320 OFFCURVE",
"153 320 CURVE SMOOTH",
"88 320 OFFCURVE",
"22 148 OFFCURVE",
"22 62 CURVE SMOOTH",
"22 5 OFFCURVE",
"44 -23 OFFCURVE",
"72 -23 CURVE SMOOTH",
"112 -23 OFFCURVE",
"136 20 OFFCURVE",
"157 72 CURVE SMOOTH",
"178 124 OFFCURVE",
"194 187 OFFCURVE",
"201 229 CURVE",
"202 179 OFFCURVE",
"206 129 OFFCURVE",
"213 76 CURVE SMOOTH",
"221 24 OFFCURVE",
"225 -23 OFFCURVE",
"225 -66 CURVE SMOOTH",
"225 -181 OFFCURVE",
"192 -264 OFFCURVE",
"101 -334 CURVE SMOOTH",
"65 -362 OFFCURVE",
"34 -374 OFFCURVE",
"11 -374 CURVE SMOOTH",
"-14 -374 OFFCURVE",
"-29 -358 OFFCURVE",
"-29 -332 CURVE SMOOTH",
"-29 -293 OFFCURVE",
"12 -231 OFFCURVE",
"42 -192 CURVE SMOOTH",
"79 -144 OFFCURVE",
"121 -111 OFFCURVE",
"185 -79 CURVE SMOOTH",
"194 -74 OFFCURVE",
"199 -68 OFFCURVE",
"199 -64 CURVE SMOOTH",
"199 -62 OFFCURVE",
"198 -61 OFFCURVE",
"195 -61 CURVE SMOOTH",
"193 -61 OFFCURVE",
"190 -62 OFFCURVE",
"186 -64 CURVE SMOOTH",
"154 -80 OFFCURVE",
"124 -94 OFFCURVE",
"97 -112 CURVE SMOOTH",
"-21 -187 OFFCURVE",
"-65 -259 OFFCURVE",
"-65 -311 CURVE SMOOTH",
"-65 -363 OFFCURVE",
"-22 -397 OFFCURVE",
"32 -397 CURVE SMOOTH"
);
}
);
width = 285;
}
);
note = g;
unicode = 0067;
},
{
glyphname = h;
lastChange = "2021-11-19 13:06:53 +0000";
layers = (
{
anchors = (
{
name = bottom;
position = "{76, 0}";
},
{
name = center;
position = "{77, 300}";
},
{
name = top;
position = "{191, 575}";
}
);
background = {
paths = (
{
closed = 1;
nodes = (
"278 313 OFFCURVE",
"203 278 OFFCURVE",
"182 260 CURVE SMOOTH",
"138 223 OFFCURVE",
"92 159 OFFCURVE",
"65 105 CURVE SMOOTH",
"57 91 OFFCURVE",
"49 77 OFFCURVE",
"46 61 CURVE",
"45 61 LINE",
"45 60 LINE",
"44 60 OFFCURVE",
"48 95 OFFCURVE",
"48 97 CURVE SMOOTH",
"67 321 OFFCURVE",
"202 541 OFFCURVE",
"200 556 CURVE SMOOTH",
"198 565 OFFCURVE",
"187 580 OFFCURVE",
"176 573 CURVE",
"135 568 OFFCURVE",
"15 211 OFFCURVE",
"26 50 CURVE SMOOTH",
"27 38 OFFCURVE",
"30 20 OFFCURVE",
"44 18 CURVE SMOOTH",
"53 17 OFFCURVE",
"55 41 OFFCURVE",
"57 48 CURVE SMOOTH",
"65 89 OFFCURVE",
"103 155 OFFCURVE",
"146 203 CURVE SMOOTH",
"164 223 OFFCURVE",
"249 315 OFFCURVE",
"221 228 CURVE SMOOTH",
"199 159 OFFCURVE",
"33 -111 OFFCURVE",
"117 -169 CURVE SMOOTH",
"135 -181 OFFCURVE",
"162 -174 OFFCURVE",
"180 -159 CURVE SMOOTH",
"182 -157 OFFCURVE",
"192 -149 OFFCURVE",
"194 -144 CURVE SMOOTH",
"199 -127 OFFCURVE",
"183 -142 OFFCURVE",
"180 -145 CURVE SMOOTH",
"165 -158 OFFCURVE",
"135 -176 OFFCURVE",
"125 -121 CURVE SMOOTH",
"112 -48 OFFCURVE",
"146 23 OFFCURVE",
"182 84 CURVE SMOOTH",
"219 146 OFFCURVE",
"262 204 OFFCURVE",
"268 243 CURVE SMOOTH"
);
}
);
};
layerId = "197ECFA8-A16D-41AC-99D0-22A54F6A6421";
paths = (
{
closed = 1;
nodes = (
"153 -175 OFFCURVE",
"170 -167 OFFCURVE",
"180 -159 CURVE SMOOTH",
"186 -155 OFFCURVE",
"195 -147 OFFCURVE",
"195 -139 CURVE SMOOTH",
"195 -137 OFFCURVE",
"194 -136 OFFCURVE",
"192 -136 CURVE SMOOTH",
"190 -136 OFFCURVE",
"185 -140 OFFCURVE",
"180 -145 CURVE SMOOTH",
"173 -151 OFFCURVE",
"162 -158 OFFCURVE",
"152 -158 CURVE SMOOTH",
"128 -158 OFFCURVE",
"122 -117 OFFCURVE",
"122 -89 CURVE SMOOTH",
"122 -27 OFFCURVE",
"151 32 OFFCURVE",
"182 84 CURVE SMOOTH",
"216 140 OFFCURVE",
"269 211 OFFCURVE",
"269 256 CURVE SMOOTH",
"269 278 OFFCURVE",
"257 285 OFFCURVE",
"242 285 CURVE SMOOTH",
"206 285 OFFCURVE",
"172 254 OFFCURVE",
"142 220 CURVE SMOOTH",
"112 185 OFFCURVE",
"84 143 OFFCURVE",
"65 105 CURVE SMOOTH",
"57 91 OFFCURVE",
"49 77 OFFCURVE",
"46 61 CURVE",
"45 61 LINE",
"45 60 LINE",
"44 60 OFFCURVE",
"48 95 OFFCURVE",
"48 97 CURVE SMOOTH",
"67 321 OFFCURVE",
"200 541 OFFCURVE",
"200 556 CURVE SMOOTH",
"200 563 OFFCURVE",
"191 575 OFFCURVE",
"182 575 CURVE SMOOTH",
"167 575 OFFCURVE",
"152 548 OFFCURVE",
"140 524 CURVE SMOOTH",
"91 426 OFFCURVE",
"25 202 OFFCURVE",
"25 72 CURVE SMOOTH",
"25 64 OFFCURVE",
"26 57 OFFCURVE",
"26 50 CURVE SMOOTH",
"27 38 OFFCURVE",
"30 20 OFFCURVE",
"44 18 CURVE SMOOTH",
"53 17 OFFCURVE",
"55 41 OFFCURVE",
"57 48 CURVE SMOOTH",
"65 89 OFFCURVE",
"103 155 OFFCURVE",
"146 203 CURVE SMOOTH",
"158 217 OFFCURVE",
"203 265 OFFCURVE",
"220 265 CURVE SMOOTH",
"224 265 OFFCURVE",
"227 262 OFFCURVE",
"227 255 CURVE SMOOTH",
"227 249 OFFCURVE",
"225 240 OFFCURVE",
"221 228 CURVE SMOOTH",
"203 173 OFFCURVE",
"93 -11 OFFCURVE",
"93 -112 CURVE SMOOTH",
"93 -146 OFFCURVE",
"108 -175 OFFCURVE",
"139 -175 CURVE SMOOTH"
);
}
);
width = 234;
}
);
note = h;
unicode = 0068;
},
{
glyphname = i;
lastChange = "2021-11-19 13:40:47 +0000";
layers = (
{
background = {
paths = (
{
closed = 1;
nodes = (
"126 402 OFFCURVE",
"107 364 OFFCURVE",
"118 343 CURVE SMOOTH",
"120 340 OFFCURVE",
"123 336 OFFCURVE",
"127 335 CURVE SMOOTH",
"153 327 OFFCURVE",
"199 405 OFFCURVE",
"146 403 CURVE SMOOTH"
);
},
{
closed = 1;
nodes = (
"220 142 OFFCURVE",
"214 162 OFFCURVE",
"195 123 CURVE SMOOTH",
"143 16 OFFCURVE",
"54 -69 OFFCURVE",
"51 35 CURVE SMOOTH",
"49 107 OFFCURVE",
"65 142 OFFCURVE",
"94 200 CURVE SMOOTH",
"105 222 OFFCURVE",
"119 242 OFFCURVE",
"124 268 CURVE SMOOTH",
"126 279 OFFCURVE",
"126 292 OFFCURVE",
"117 299 CURVE SMOOTH",
"106 306 OFFCURVE",
"92 299 OFFCURVE",
"86 290 CURVE SMOOTH",
"76 276 OFFCURVE",
"68 261 OFFCURVE",
"61 246 CURVE SMOOTH",
"44 205 OFFCURVE",
"-10 24 OFFCURVE",
"49 -15 CURVE SMOOTH",
"64 -25 OFFCURVE",
"93 -32 OFFCURVE",
"127 -7 CURVE SMOOTH",
"172 28 OFFCURVE",
"195 70 OFFCURVE",
"214 125 CURVE SMOOTH"
);
}
);
};
layerId = "197ECFA8-A16D-41AC-99D0-22A54F6A6421";
paths = (
{
closed = 1;
nodes = (
"113 -24 OFFCURVE",
"143 3 OFFCURVE",
"166 32 CURVE SMOOTH",
"186 56 OFFCURVE",
"216 116 OFFCURVE",
"216 138 CURVE SMOOTH",
"216 143 OFFCURVE",
"215 146 OFFCURVE",
"212 146 CURVE SMOOTH",
"209 146 OFFCURVE",
"203 140 OFFCURVE",
"195 123 CURVE SMOOTH",
"160 50 OFFCURVE",
"107 -12 OFFCURVE",
"76 -12 CURVE SMOOTH",
"62 -12 OFFCURVE",
"52 2 OFFCURVE",
"51 35 CURVE SMOOTH",
"49 107 OFFCURVE",
"65 142 OFFCURVE",
"94 200 CURVE SMOOTH",
"106 224 OFFCURVE",
"125 252 OFFCURVE",
"125 279 CURVE SMOOTH",
"125 292 OFFCURVE",
"119 302 OFFCURVE",
"107 302 CURVE SMOOTH",
"89 302 OFFCURVE",
"76 277 OFFCURVE",
"61 246 CURVE SMOOTH",
"50 219 OFFCURVE",
"22 130 OFFCURVE",
"22 62 CURVE SMOOTH",
"22 17 OFFCURVE",
"34 -24 OFFCURVE",
"80 -24 CURVE SMOOTH"
);
},
{
closed = 1;
nodes = (
"148 334 OFFCURVE",
"170 364 OFFCURVE",
"170 384 CURVE SMOOTH",
"170 395 OFFCURVE",
"164 404 OFFCURVE",
"146 403 CURVE SMOOTH",
"130 402 OFFCURVE",
"115 378 OFFCURVE",
"115 357 CURVE SMOOTH",
"115 351 OFFCURVE",
"119 334 OFFCURVE",
"131 334 CURVE SMOOTH"
);
}
);
width = 164;
}
);
note = i;
unicode = 0069;
},
{
glyphname = idotless;
lastChange = "2021-11-19 13:07:10 +0000";
layers = (
{
anchors = (
{
name = bottom;
position = "{82, -24}";
},
{
name = ogonek;
position = "{148, -9}";
},
{
name = top;
position = "{117, 302}";
}
);
background = {
paths = (
{
closed = 1;
nodes = (
"220 142 OFFCURVE",
"214 162 OFFCURVE",
"195 123 CURVE SMOOTH",
"143 16 OFFCURVE",
"54 -69 OFFCURVE",
"51 35 CURVE SMOOTH",
"49 107 OFFCURVE",
"65 142 OFFCURVE",
"94 200 CURVE SMOOTH",
"105 222 OFFCURVE",
"119 242 OFFCURVE",
"124 268 CURVE SMOOTH",
"126 279 OFFCURVE",
"126 292 OFFCURVE",
"117 299 CURVE SMOOTH",
"106 306 OFFCURVE",
"92 299 OFFCURVE",
"86 290 CURVE SMOOTH",
"76 276 OFFCURVE",
"68 261 OFFCURVE",
"61 246 CURVE SMOOTH",
"44 205 OFFCURVE",
"-10 24 OFFCURVE",
"49 -15 CURVE SMOOTH",
"64 -25 OFFCURVE",
"93 -32 OFFCURVE",
"127 -7 CURVE SMOOTH",
"172 28 OFFCURVE",
"195 70 OFFCURVE",
"214 125 CURVE SMOOTH"
);
}
);
};
layerId = "197ECFA8-A16D-41AC-99D0-22A54F6A6421";
paths = (
{
closed = 1;
nodes = (
"94 -24 OFFCURVE",
"110 -20 OFFCURVE",
"127 -7 CURVE SMOOTH",
"172 28 OFFCURVE",
"195 70 OFFCURVE",
"214 125 CURVE SMOOTH",
"215 129 OFFCURVE",
"216 134 OFFCURVE",
"216 138 CURVE SMOOTH",
"216 143 OFFCURVE",
"215 146 OFFCURVE",
"212 146 CURVE SMOOTH",
"209 146 OFFCURVE",
"203 140 OFFCURVE",
"195 123 CURVE SMOOTH",
"160 50 OFFCURVE",
"107 -12 OFFCURVE",
"76 -12 CURVE SMOOTH",
"62 -12 OFFCURVE",
"52 2 OFFCURVE",
"51 35 CURVE SMOOTH",
"49 107 OFFCURVE",
"65 142 OFFCURVE",
"94 200 CURVE SMOOTH",
"105 222 OFFCURVE",
"119 242 OFFCURVE",
"124 268 CURVE SMOOTH",
"125 272 OFFCURVE",
"125 275 OFFCURVE",
"125 279 CURVE SMOOTH",
"125 287 OFFCURVE",
"123 294 OFFCURVE",
"117 299 CURVE SMOOTH",
"114 301 OFFCURVE",
"110 302 OFFCURVE",
"107 302 CURVE SMOOTH",
"99 302 OFFCURVE",
"90 296 OFFCURVE",
"86 290 CURVE SMOOTH",
"76 276 OFFCURVE",
"68 261 OFFCURVE",
"61 246 CURVE SMOOTH",
"50 219 OFFCURVE",
"22 130 OFFCURVE",
"22 62 CURVE SMOOTH",
"22 27 OFFCURVE",
"29 -2 OFFCURVE",
"49 -15 CURVE SMOOTH",
"56 -20 OFFCURVE",
"67 -24 OFFCURVE",
"80 -24 CURVE SMOOTH"
);
}
);
width = 164;
}
);
note = dotlessi;
unicode = 0131;
},
{
glyphname = j;
lastChange = "2021-11-18 16:44:15 +0000";
layers = (
{
background = {
paths = (
{
closed = 1;
nodes = (
"44 391 OFFCURVE",
"25 353 OFFCURVE",
"36 333 CURVE SMOOTH",
"38 329 OFFCURVE",
"41 325 OFFCURVE",
"45 324 CURVE SMOOTH",
"71 316 OFFCURVE",
"117 395 OFFCURVE",
"64 392 CURVE SMOOTH"
);
},
{
closed = 1;
nodes = (
"98 196 OFFCURVE",
"95 236 OFFCURVE",
"93 258 CURVE SMOOTH",
"91 287 OFFCURVE",
"50 277 OFFCURVE",
"52 258 CURVE SMOOTH",
"65 129 OFFCURVE",
"154 -156 OFFCURVE",
"-45 -308 CURVE SMOOTH",
"-99 -349 OFFCURVE",
"-148 -352 OFFCURVE",
"-165 -338 CURVE SMOOTH",
"-180 -323 OFFCURVE",
"-181 -292 OFFCURVE",
"-158 -254 CURVE SMOOTH",
"-116 -181 OFFCURVE",
"-79 -141 OFFCURVE",
"-5 -104 CURVE SMOOTH",
"9 -97 OFFCURVE",
"11 -86 OFFCURVE",
"-4 -93 CURVE SMOOTH",
"-30 -106 OFFCURVE",
"-53 -117 OFFCURVE",
"-75 -131 CURVE SMOOTH",
"-222 -225 OFFCURVE",
"-227 -312 OFFCURVE",
"-179 -347 CURVE SMOOTH",
"-94 -410 OFFCURVE",
"152 -321 OFFCURVE",
"106 114 CURVE SMOOTH"
);
}
);
};
layerId = "197ECFA8-A16D-41AC-99D0-22A54F6A6421";
paths = (
{
closed = 1;
nodes = (
"-23 -365 OFFCURVE",
"112 -265 OFFCURVE",
"112 11 CURVE SMOOTH",
"112 43 OFFCURVE",
"110 77 OFFCURVE",
"106 114 CURVE SMOOTH",
"98 196 OFFCURVE",
"95 236 OFFCURVE",
"93 258 CURVE SMOOTH",
"92 271 OFFCURVE",
"83 276 OFFCURVE",
"74 276 CURVE SMOOTH",
"63 276 OFFCURVE",
"51 268 OFFCURVE",
"52 258 CURVE SMOOTH",
"58 195 OFFCURVE",
"83 94 OFFCURVE",
"83 -10 CURVE SMOOTH",
"83 -119 OFFCURVE",
"56 -231 OFFCURVE",
"-45 -308 CURVE SMOOTH",
"-81 -335 OFFCURVE",
"-114 -346 OFFCURVE",
"-138 -346 CURVE SMOOTH",
"-164 -346 OFFCURVE",
"-176 -333 OFFCURVE",
"-176 -308 CURVE SMOOTH",
"-176 -287 OFFCURVE",
"-167 -264 OFFCURVE",
"-139 -222 CURVE SMOOTH",
"-110 -179 OFFCURVE",
"-75 -139 OFFCURVE",
"-5 -104 CURVE SMOOTH",
"3 -101 OFFCURVE",
"6 -96 OFFCURVE",
"6 -93 CURVE SMOOTH",
"6 -92 OFFCURVE",
"6 -91 OFFCURVE",
"4 -91 CURVE SMOOTH",
"2 -91 OFFCURVE",
"-1 -91 OFFCURVE",
"-4 -93 CURVE SMOOTH",
"-30 -106 OFFCURVE",
"-53 -117 OFFCURVE",
"-75 -131 CURVE SMOOTH",
"-171 -192 OFFCURVE",
"-206 -250 OFFCURVE",
"-206 -293 CURVE SMOOTH",
"-206 -339 OFFCURVE",
"-167 -365 OFFCURVE",
"-118 -365 CURVE SMOOTH"
);
},
{
closed = 1;
nodes = (
"65 323 OFFCURVE",
"88 354 OFFCURVE",
"88 374 CURVE SMOOTH",
"88 385 OFFCURVE",
"82 393 OFFCURVE",
"64 392 CURVE SMOOTH",
"48 391 OFFCURVE",
"33 367 OFFCURVE",
"33 347 CURVE SMOOTH",
"33 335 OFFCURVE",
"40 323 OFFCURVE",
"49 323 CURVE SMOOTH"
);
}
);
width = 157;
}
);
note = j;
unicode = 006A;
},
{
glyphname = jdotless;
lastChange = "2021-11-19 13:07:18 +0000";
layers = (
{
anchors = (
{
name = bottom;
position = "{79, -385}";
},
{
name = top;
position = "{63, 276}";
}
);
background = {
paths = (
{
closed = 1;
nodes = (
"98 196 OFFCURVE",
"95 236 OFFCURVE",
"93 258 CURVE SMOOTH",
"91 287 OFFCURVE",
"50 277 OFFCURVE",
"52 258 CURVE SMOOTH",
"65 129 OFFCURVE",
"154 -156 OFFCURVE",
"-45 -308 CURVE SMOOTH",
"-99 -349 OFFCURVE",
"-148 -352 OFFCURVE",
"-165 -338 CURVE SMOOTH",
"-180 -323 OFFCURVE",
"-181 -292 OFFCURVE",
"-158 -254 CURVE SMOOTH",
"-116 -181 OFFCURVE",
"-79 -141 OFFCURVE",
"-5 -104 CURVE SMOOTH",
"9 -97 OFFCURVE",
"11 -86 OFFCURVE",
"-4 -93 CURVE SMOOTH",
"-30 -106 OFFCURVE",
"-53 -117 OFFCURVE",
"-75 -131 CURVE SMOOTH",
"-222 -225 OFFCURVE",
"-227 -312 OFFCURVE",
"-179 -347 CURVE SMOOTH",
"-94 -410 OFFCURVE",
"152 -321 OFFCURVE",
"106 114 CURVE SMOOTH"
);
}
);
};
layerId = "197ECFA8-A16D-41AC-99D0-22A54F6A6421";
paths = (
{
closed = 1;
nodes = (
"-23 -365 OFFCURVE",
"112 -265 OFFCURVE",
"112 11 CURVE SMOOTH",
"112 43 OFFCURVE",
"110 77 OFFCURVE",
"106 114 CURVE SMOOTH",
"98 196 OFFCURVE",
"95 236 OFFCURVE",
"93 258 CURVE SMOOTH",
"92 271 OFFCURVE",
"83 276 OFFCURVE",
"74 276 CURVE SMOOTH",
"63 276 OFFCURVE",
"51 268 OFFCURVE",
"52 258 CURVE SMOOTH",
"58 195 OFFCURVE",
"83 94 OFFCURVE",
"83 -10 CURVE SMOOTH",
"83 -119 OFFCURVE",
"56 -231 OFFCURVE",
"-45 -308 CURVE SMOOTH",
"-81 -335 OFFCURVE",
"-114 -346 OFFCURVE",
"-138 -346 CURVE SMOOTH",
"-150 -346 OFFCURVE",
"-159 -343 OFFCURVE",
"-165 -338 CURVE SMOOTH",
"-172 -331 OFFCURVE",
"-176 -321 OFFCURVE",
"-176 -308 CURVE SMOOTH",
"-176 -293 OFFCURVE",
"-170 -275 OFFCURVE",
"-158 -254 CURVE SMOOTH",
"-116 -181 OFFCURVE",
"-79 -141 OFFCURVE",
"-5 -104 CURVE",
"3 -101 OFFCURVE",
"6 -96 OFFCURVE",
"6 -93 CURVE SMOOTH",
"6 -92 OFFCURVE",
"6 -91 OFFCURVE",
"4 -91 CURVE SMOOTH",
"2 -91 OFFCURVE",
"-1 -91 OFFCURVE",
"-4 -93 CURVE SMOOTH",
"-30 -106 OFFCURVE",
"-53 -117 OFFCURVE",
"-75 -131 CURVE SMOOTH",
"-171 -192 OFFCURVE",
"-206 -250 OFFCURVE",
"-206 -293 CURVE SMOOTH",
"-206 -316 OFFCURVE",
"-196 -335 OFFCURVE",
"-179 -347 CURVE SMOOTH",
"-163 -359 OFFCURVE",
"-142 -365 OFFCURVE",
"-118 -365 CURVE SMOOTH"
);
}
);
width = 157;
}
);
note = dotlessj;
unicode = 0237;
},
{
glyphname = k;
lastChange = "2021-11-19 13:07:28 +0000";
layers = (
{
anchors = (
{
name = bottom;
position = "{104, -82}";
},
{
name = top;
position = "{130, 635}";
}
);
background = {
paths = (
{
closed = 1;
nodes = (
"146 215 OFFCURVE",
"297 325 OFFCURVE",
"243 327 CURVE SMOOTH",
"213 328 OFFCURVE",
"169 270 OFFCURVE",
"149 250 CURVE SMOOTH",
"129 231 OFFCURVE",
"145 226 OFFCURVE",
"142 222 CURVE SMOOTH",
"122 198 OFFCURVE",
"96 179 OFFCURVE",
"73 159 CURVE SMOOTH",
"72 158 LINE",
"86 305 OFFCURVE",
"85 460 OFFCURVE",
"59 511 CURVE SMOOTH",
"49 530 OFFCURVE",
"34 520 OFFCURVE",
"48 486 CURVE SMOOTH",
"66 441 OFFCURVE",
"61 324 OFFCURVE",
"46 210 CURVE SMOOTH",
"46 213 OFFCURVE",
"40 215 OFFCURVE",
"37 215 CURVE",
"28 217 OFFCURVE",
"0 172 OFFCURVE",
"36 140 CURVE",
"29 103 OFFCURVE",
"0 -68 OFFCURVE",
"-38 -125 CURVE SMOOTH",
"-48 -141 OFFCURVE",
"-16 -154 OFFCURVE",
"1 -136 CURVE SMOOTH",
"26 -106 OFFCURVE",
"48 -18 OFFCURVE",
"63 84 CURVE",
"107 -7 OFFCURVE",
"182 -93 OFFCURVE",
"257 20 CURVE SMOOTH",
"266 33 OFFCURVE",
"297 88 OFFCURVE",
"305 115 CURVE SMOOTH",
"308 127 OFFCURVE",
"296 133 OFFCURVE",
"282 108 CURVE SMOOTH",
"271 90 OFFCURVE",
"256 50 OFFCURVE",
"233 22 CURVE SMOOTH",
"167 -58 OFFCURVE",
"105 44 OFFCURVE",
"71 132 CURVE",
"78 139 OFFCURVE",
"84 146 OFFCURVE",
"91 153 CURVE SMOOTH",
"104 167 OFFCURVE",
"116 181 OFFCURVE",
"129 195 CURVE SMOOTH"
);
}
);
};
layerId = "197ECFA8-A16D-41AC-99D0-22A54F6A6421";
paths = (
{
closed = 1;
nodes = (
"-12 -145 OFFCURVE",
"-5 -142 OFFCURVE",
"1 -136 CURVE SMOOTH",
"26 -106 OFFCURVE",
"48 -18 OFFCURVE",
"63 84 CURVE",
"92 24 OFFCURVE",
"135 -34 OFFCURVE",
"182 -34 CURVE SMOOTH",
"206 -34 OFFCURVE",
"231 -18 OFFCURVE",
"257 20 CURVE SMOOTH",
"266 33 OFFCURVE",
"297 88 OFFCURVE",
"305 115 CURVE SMOOTH",
"306 121 OFFCURVE",
"304 125 OFFCURVE",
"300 125 CURVE SMOOTH",
"296 125 OFFCURVE",
"289 121 OFFCURVE",
"282 108 CURVE SMOOTH",
"271 90 OFFCURVE",
"256 50 OFFCURVE",
"233 22 CURVE SMOOTH",
"216 2 OFFCURVE",
"200 -7 OFFCURVE",
"184 -7 CURVE SMOOTH",
"137 -7 OFFCURVE",
"96 66 OFFCURVE",
"71 132 CURVE",
"78 139 OFFCURVE",
"84 146 OFFCURVE",
"91 153 CURVE SMOOTH",
"129 195 LINE SMOOTH",
"144 211 OFFCURVE",
"255 294 OFFCURVE",
"255 319 CURVE SMOOTH",
"255 324 OFFCURVE",
"251 327 OFFCURVE",
"243 327 CURVE SMOOTH",
"213 328 OFFCURVE",
"169 270 OFFCURVE",
"149 250 CURVE SMOOTH",
"141 242 OFFCURVE",
"139 237 OFFCURVE",
"139 233 CURVE SMOOTH",
"139 228 OFFCURVE",
"142 225 OFFCURVE",
"142 223 CURVE SMOOTH",
"142 222 LINE",
"123 199 OFFCURVE",
"96 179 OFFCURVE",
"72 158 CURVE",
"78 218 OFFCURVE",
"81 280 OFFCURVE",
"81 335 CURVE SMOOTH",
"81 415 OFFCURVE",
"74 481 OFFCURVE",
"59 511 CURVE SMOOTH",
"56 517 OFFCURVE",
"52 520 OFFCURVE",
"48 520 CURVE SMOOTH",
"45 520 OFFCURVE",
"42 516 OFFCURVE",
"42 509 CURVE SMOOTH",
"42 504 OFFCURVE",
"44 496 OFFCURVE",
"48 486 CURVE SMOOTH",
"56 466 OFFCURVE",
"60 431 OFFCURVE",
"60 389 CURVE SMOOTH",
"60 337 OFFCURVE",
"54 273 OFFCURVE",
"46 210 CURVE SMOOTH",
"46 213 OFFCURVE",
"40 215 OFFCURVE",
"37 215 CURVE SMOOTH",
"31 216 OFFCURVE",
"18 199 OFFCURVE",
"18 178 CURVE SMOOTH",
"18 165 OFFCURVE",
"23 152 OFFCURVE",
"36 140 CURVE",
"29 103 OFFCURVE",
"0 -68 OFFCURVE",
"-38 -125 CURVE SMOOTH",
"-45 -136 OFFCURVE",
"-33 -145 OFFCURVE",
"-20 -145 CURVE SMOOTH"
);
}
);
width = 259;
}
);
note = k;
unicode = 006B;
},
{
glyphname = kgreenlandic;
lastChange = "2021-11-18 16:34:37 +0000";
layers = (
{
background = {
paths = (
{
closed = 1;
nodes = (
"146 215 OFFCURVE",
"297 325 OFFCURVE",
"243 327 CURVE SMOOTH",
"213 328 OFFCURVE",
"169 270 OFFCURVE",
"149 250 CURVE SMOOTH",
"129 231 OFFCURVE",
"145 226 OFFCURVE",
"142 222 CURVE SMOOTH",
"122 198 OFFCURVE",
"96 179 OFFCURVE",
"73 159 CURVE SMOOTH",
"72 158 LINE",
"86 305 OFFCURVE",
"95 306 OFFCURVE",
"69 357 CURVE SMOOTH",
"59 376 OFFCURVE",
"31 378 OFFCURVE",
"43 343 CURVE SMOOTH",
"49 326 OFFCURVE",
"44 237 OFFCURVE",
"46 210 CURVE SMOOTH",
"46 207 OFFCURVE",
"40 215 OFFCURVE",
"37 215 CURVE",
"28 217 OFFCURVE",
"0 172 OFFCURVE",
"36 140 CURVE",
"29 103 OFFCURVE",
"0 -68 OFFCURVE",
"-38 -125 CURVE SMOOTH",
"-48 -141 OFFCURVE",
"-16 -154 OFFCURVE",
"1 -136 CURVE SMOOTH",
"26 -106 OFFCURVE",
"48 -18 OFFCURVE",
"63 84 CURVE",
"107 -7 OFFCURVE",
"182 -93 OFFCURVE",
"257 20 CURVE SMOOTH",
"266 33 OFFCURVE",
"297 88 OFFCURVE",
"305 115 CURVE SMOOTH",
"308 127 OFFCURVE",
"296 133 OFFCURVE",
"282 108 CURVE SMOOTH",
"271 90 OFFCURVE",
"256 50 OFFCURVE",
"233 22 CURVE SMOOTH",
"167 -58 OFFCURVE",
"105 44 OFFCURVE",
"71 132 CURVE",
"78 139 OFFCURVE",
"84 146 OFFCURVE",
"91 153 CURVE SMOOTH",
"104 167 OFFCURVE",
"116 181 OFFCURVE",
"129 195 CURVE SMOOTH"
);
}
);
};
layerId = "197ECFA8-A16D-41AC-99D0-22A54F6A6421";
paths = (
{
closed = 1;
nodes = (
"-12 -145 OFFCURVE",
"-5 -142 OFFCURVE",
"1 -136 CURVE SMOOTH",
"26 -106 OFFCURVE",
"48 -18 OFFCURVE",
"63 84 CURVE",
"92 24 OFFCURVE",
"135 -34 OFFCURVE",
"182 -34 CURVE SMOOTH",
"206 -34 OFFCURVE",
"231 -18 OFFCURVE",
"257 20 CURVE SMOOTH",
"266 33 OFFCURVE",
"297 88 OFFCURVE",
"305 115 CURVE SMOOTH",
"306 121 OFFCURVE",
"304 125 OFFCURVE",
"300 125 CURVE SMOOTH",
"296 125 OFFCURVE",
"289 121 OFFCURVE",
"282 108 CURVE SMOOTH",
"271 90 OFFCURVE",
"256 50 OFFCURVE",
"233 22 CURVE SMOOTH",
"216 2 OFFCURVE",
"200 -7 OFFCURVE",
"184 -7 CURVE SMOOTH",
"137 -7 OFFCURVE",
"96 66 OFFCURVE",
"71 132 CURVE",
"78 139 OFFCURVE",
"84 146 OFFCURVE",
"91 153 CURVE SMOOTH",
"129 195 LINE SMOOTH",
"143 212 OFFCURVE",
"255 294 OFFCURVE",
"255 319 CURVE SMOOTH",
"255 324 OFFCURVE",
"251 327 OFFCURVE",
"243 327 CURVE SMOOTH",
"213 328 OFFCURVE",
"169 270 OFFCURVE",
"149 250 CURVE SMOOTH",
"141 242 OFFCURVE",
"139 237 OFFCURVE",
"139 233 CURVE SMOOTH",
"139 228 OFFCURVE",
"142 225 OFFCURVE",
"142 223 CURVE SMOOTH",
"142 222 LINE",
"122 198 OFFCURVE",
"96 179 OFFCURVE",
"73 159 CURVE SMOOTH",
"72 158 LINE",
"80 237 OFFCURVE",
"86 274 OFFCURVE",
"86 299 CURVE SMOOTH",
"86 320 OFFCURVE",
"81 333 OFFCURVE",
"69 357 CURVE SMOOTH",
"65 366 OFFCURVE",
"57 371 OFFCURVE",
"50 371 CURVE SMOOTH",
"45 371 OFFCURVE",
"40 367 OFFCURVE",
"40 358 CURVE SMOOTH",
"40 354 OFFCURVE",
"41 349 OFFCURVE",
"43 343 CURVE SMOOTH",
"45 336 OFFCURVE",
"46 317 OFFCURVE",
"46 295 CURVE SMOOTH",
"46 263 OFFCURVE",
"45 226 OFFCURVE",
"46 210 CURVE SMOOTH",
"46 207 OFFCURVE",
"40 215 OFFCURVE",
"37 215 CURVE SMOOTH",
"31 216 OFFCURVE",
"18 199 OFFCURVE",
"18 178 CURVE SMOOTH",
"18 165 OFFCURVE",
"23 152 OFFCURVE",
"36 140 CURVE",
"29 103 OFFCURVE",
"0 -68 OFFCURVE",
"-38 -125 CURVE SMOOTH",
"-45 -136 OFFCURVE",
"-33 -145 OFFCURVE",
"-20 -145 CURVE SMOOTH"
);
}
);
width = 259;
}
);
note = kgreenlandic;
unicode = 0138;
},
{
glyphname = l;
lastChange = "2021-11-19 13:10:57 +0000";
layers = (
{
anchors = (
{
name = bottom;
position = "{135, -129}";
},
{
name = center;
position = "{84, 318}";
},
{
name = top;
position = "{187, 635}";
},
{
name = topright;
position = "{281, 635}";
}
);
background = {
paths = (
{
closed = 1;
nodes = (
"201 411 OFFCURVE",
"182 331 OFFCURVE",
"120 214 CURVE SMOOTH",
"109 192 OFFCURVE",
"113 178 OFFCURVE",
"125 201 CURVE SMOOTH",
"146 242 OFFCURVE",
"166 278 OFFCURVE",
"183 316 CURVE SMOOTH",
"324 640 OFFCURVE",
"218 702 OFFCURVE",
"127 601 CURVE SMOOTH",
"2 463 OFFCURVE",
"11 15 OFFCURVE",
"135 -129 CURVE SMOOTH",
"146 -143 OFFCURVE",
"164 -162 OFFCURVE",
"184 -158 CURVE SMOOTH",
"193 -157 OFFCURVE",
"193 -150 OFFCURVE",
"182 -149 CURVE SMOOTH",
"174 -148 OFFCURVE",
"168 -142 OFFCURVE",
"163 -138 CURVE SMOOTH",
"123 -103 OFFCURVE",
"95 38 OFFCURVE",
"88 88 CURVE SMOOTH",
"68 223 OFFCURVE",
"48 453 OFFCURVE",
"136 582 CURVE SMOOTH",
"181 648 OFFCURVE",
"217 629 OFFCURVE",
"210 531 CURVE SMOOTH"
);
}
);
};
layerId = "197ECFA8-A16D-41AC-99D0-22A54F6A6421";
paths = (
{
closed = 1;
nodes = (
"193 -159 OFFCURVE",
"195 -150 OFFCURVE",
"182 -149 CURVE SMOOTH",
"174 -148 OFFCURVE",
"168 -142 OFFCURVE",
"163 -138 CURVE SMOOTH",
"123 -103 OFFCURVE",
"95 38 OFFCURVE",
"88 88 CURVE SMOOTH",
"79 146 OFFCURVE",
"71 222 OFFCURVE",
"71 299 CURVE SMOOTH",
"71 402 OFFCURVE",
"86 509 OFFCURVE",
"136 582 CURVE SMOOTH",
"154 608 OFFCURVE",
"170 621 OFFCURVE",
"183 621 CURVE SMOOTH",
"200 621 OFFCURVE",
"211 598 OFFCURVE",
"211 554 CURVE SMOOTH",
"211 441 OFFCURVE",
"180 327 OFFCURVE",
"120 214 CURVE SMOOTH",
"115 205 OFFCURVE",
"113 197 OFFCURVE",
"113 193 CURVE SMOOTH",
"113 190 OFFCURVE",
"114 189 OFFCURVE",
"115 189 CURVE SMOOTH",
"117 189 OFFCURVE",
"121 193 OFFCURVE",
"125 201 CURVE SMOOTH",
"146 242 OFFCURVE",
"166 278 OFFCURVE",
"183 316 CURVE SMOOTH",
"232 429 OFFCURVE",
"251 511 OFFCURVE",
"251 564 CURVE SMOOTH",
"251 620 OFFCURVE",
"231 645 OFFCURVE",
"202 645 CURVE SMOOTH",
"180 645 OFFCURVE",
"153 630 OFFCURVE",
"127 601 CURVE SMOOTH",
"67 534 OFFCURVE",
"38 395 OFFCURVE",
"38 253 CURVE SMOOTH",
"38 101 OFFCURVE",
"71 -55 OFFCURVE",
"135 -129 CURVE SMOOTH",
"145 -142 OFFCURVE",
"161 -159 OFFCURVE",
"179 -159 CURVE SMOOTH"
);
}
);
width = 168;
}
);
note = l;
unicode = 006C;
},
{
glyphname = m;
lastChange = "2021-11-18 18:45:45 +0000";
layers = (
{
anchors = (
{
name = bottom;
position = "{196, 0}";
},
{
name = top;
position = "{196, 340}";
}
);
background = {
paths = (
{
closed = 1;
nodes = (
"426 313 OFFCURVE",
"351 278 OFFCURVE",
"330 260 CURVE SMOOTH",
"286 223 OFFCURVE",
"241 159 OFFCURVE",
"213 105 CURVE SMOOTH",
"205 91 OFFCURVE",
"198 77 OFFCURVE",
"194 61 CURVE",
"193 61 LINE",
"194 60 LINE",
"192 60 OFFCURVE",
"196 95 OFFCURVE",
"196 97 CURVE SMOOTH",
"200 147 OFFCURVE",
"283 362 OFFCURVE",
"286 376 CURVE SMOOTH",
"298 432 OFFCURVE",
"254 460 OFFCURVE",
"233 457 CURVE SMOOTH",
"152 447 OFFCURVE",
"111 294 OFFCURVE",
"94 222 CURVE SMOOTH",
"89 198 OFFCURVE",
"85 174 OFFCURVE",
"81 150 CURVE",
"70 188 OFFCURVE",
"47 280 OFFCURVE",
"7 291 CURVE",
"3 293 OFFCURVE",
"-15 292 OFFCURVE",
"-9 285 CURVE",
"10 276 OFFCURVE",
"16 253 OFFCURVE",
"21 235 CURVE SMOOTH",
"36 182 OFFCURVE",
"42 124 OFFCURVE",
"51 69 CURVE SMOOTH",
"54 50 OFFCURVE",
"57 25 OFFCURVE",
"68 10 CURVE SMOOTH",
"76 0 OFFCURVE",
"90 1 OFFCURVE",
"100 8 CURVE SMOOTH",
"101 9 LINE SMOOTH",
"108 20 OFFCURVE",
"101 64 OFFCURVE",
"99 79 CURVE SMOOTH",
"82 206 OFFCURVE",
"187 457 OFFCURVE",
"225 417 CURVE SMOOTH",
"266 374 OFFCURVE",
"166 203 OFFCURVE",
"177 58 CURVE SMOOTH",
"178 46 OFFCURVE",
"178 20 OFFCURVE",
"193 18 CURVE SMOOTH",
"202 17 OFFCURVE",
"203 41 OFFCURVE",
"205 48 CURVE SMOOTH",
"214 89 OFFCURVE",
"251 155 OFFCURVE",
"295 203 CURVE SMOOTH",
"312 223 OFFCURVE",
"397 315 OFFCURVE",
"369 228 CURVE SMOOTH",
"347 159 OFFCURVE",
"181 -111 OFFCURVE",
"266 -169 CURVE SMOOTH",
"284 -181 OFFCURVE",
"310 -174 OFFCURVE",
"329 -159 CURVE SMOOTH",
"331 -157 OFFCURVE",
"341 -149 OFFCURVE",
"342 -144 CURVE SMOOTH",
"348 -127 OFFCURVE",
"331 -142 OFFCURVE",
"328 -145 CURVE SMOOTH",
"313 -158 OFFCURVE",
"284 -176 OFFCURVE",
"274 -121 CURVE SMOOTH",
"260 -48 OFFCURVE",
"294 23 OFFCURVE",
"330 84 CURVE SMOOTH",
"367 146 OFFCURVE",
"411 204 OFFCURVE",
"416 243 CURVE SMOOTH"
);
}
);
};
layerId = "197ECFA8-A16D-41AC-99D0-22A54F6A6421";
paths = (
{
closed = 1;
nodes = (
"301 -175 OFFCURVE",
"317 -169 OFFCURVE",
"329 -159 CURVE SMOOTH",
"331 -157 OFFCURVE",
"341 -149 OFFCURVE",
"342 -144 CURVE SMOOTH",
"344 -138 OFFCURVE",
"343 -136 OFFCURVE",
"341 -136 CURVE SMOOTH",
"337 -136 OFFCURVE",
"330 -143 OFFCURVE",
"328 -145 CURVE SMOOTH",
"321 -151 OFFCURVE",
"310 -159 OFFCURVE",
"301 -159 CURVE SMOOTH",
"286 -159 OFFCURVE",
"271 -138 OFFCURVE",
"271 -87 CURVE SMOOTH",
"271 -26 OFFCURVE",
"300 33 OFFCURVE",
"330 84 CURVE SMOOTH",
"364 141 OFFCURVE",
"417 209 OFFCURVE",
"417 256 CURVE SMOOTH",
"417 278 OFFCURVE",
"405 285 OFFCURVE",
"390 285 CURVE SMOOTH",
"343 285 OFFCURVE",
"295 231 OFFCURVE",
"258 178 CURVE SMOOTH",
"235 146 OFFCURVE",
"202 93 OFFCURVE",
"194 59 CURVE",
"194 71 OFFCURVE",
"194 83 OFFCURVE",
"197 105 CURVE SMOOTH",
"200 133 OFFCURVE",
"238 242 OFFCURVE",
"264 313 CURVE SMOOTH",
"276 346 OFFCURVE",
"288 374 OFFCURVE",
"288 394 CURVE SMOOTH",
"288 438 OFFCURVE",
"254 457 OFFCURVE",
"235 457 CURVE SMOOTH",
"191 457 OFFCURVE",
"152 397 OFFCURVE",
"129 339 CURVE SMOOTH",
"106 281 OFFCURVE",
"93 223 OFFCURVE",
"81 150 CURVE",
"70 188 OFFCURVE",
"42 292 OFFCURVE",
"1 292 CURVE SMOOTH",
"-5 292 OFFCURVE",
"-10 290 OFFCURVE",
"-10 288 CURVE SMOOTH",
"-10 285 OFFCURVE",
"-3 282 OFFCURVE",
"-1 280 CURVE SMOOTH",
"13 266 OFFCURVE",
"17 249 OFFCURVE",
"21 235 CURVE SMOOTH",
"36 182 OFFCURVE",
"45 105 OFFCURVE",
"54 50 CURVE SMOOTH",
"58 20 OFFCURVE",
"67 3 OFFCURVE",
"84 3 CURVE SMOOTH",
"101 3 OFFCURVE",
"104 10 OFFCURVE",
"104 28 CURVE SMOOTH",
"104 51 OFFCURVE",
"97 82 OFFCURVE",
"97 110 CURVE SMOOTH",
"97 232 OFFCURVE",
"176 421 OFFCURVE",
"216 421 CURVE SMOOTH",
"227 421 OFFCURVE",
"235 405 OFFCURVE",
"235 384 CURVE SMOOTH",
"235 320 OFFCURVE",
"176 196 OFFCURVE",
"176 81 CURVE SMOOTH",
"176 72 OFFCURVE",
"177 47 OFFCURVE",
"178 40 CURVE SMOOTH",
"179 29 OFFCURVE",
"184 18 OFFCURVE",
"193 18 CURVE SMOOTH",
"202 18 OFFCURVE",
"203 41 OFFCURVE",
"205 48 CURVE SMOOTH",
"214 89 OFFCURVE",
"251 155 OFFCURVE",
"295 203 CURVE SMOOTH",
"307 217 OFFCURVE",
"351 265 OFFCURVE",
"368 265 CURVE SMOOTH",
"372 265 OFFCURVE",
"375 262 OFFCURVE",
"375 255 CURVE SMOOTH",
"375 249 OFFCURVE",
"373 240 OFFCURVE",
"369 228 CURVE SMOOTH",
"351 173 OFFCURVE",
"242 -11 OFFCURVE",
"242 -112 CURVE SMOOTH",
"242 -145 OFFCURVE",
"257 -175 OFFCURVE",
"287 -175 CURVE SMOOTH"
);
}
);
width = 392;
}
);
note = m;
unicode = 006D;
},
{
glyphname = n;
lastChange = "2021-11-19 13:11:24 +0000";
layers = (
{
anchors = (
{
name = bottom;
position = "{151, 0}";
},
{
name = top;
position = "{154, 400}";
}
);
background = {
paths = (
{
closed = 1;
nodes = (
"278 51 OFFCURVE",
"257 3 OFFCURVE",
"236 11 CURVE SMOOTH",
"204 23 OFFCURVE",
"237 165 OFFCURVE",
"243 184 CURVE SMOOTH",
"258 228 OFFCURVE",
"351 425 OFFCURVE",
"233 412 CURVE SMOOTH",
"152 403 OFFCURVE",
"111 275 OFFCURVE",
"94 214 CURVE SMOOTH",
"89 194 OFFCURVE",
"85 174 OFFCURVE",
"81 150 CURVE",
"70 188 OFFCURVE",
"47 280 OFFCURVE",
"7 291 CURVE",
"3 293 OFFCURVE",
"-15 292 OFFCURVE",
"-9 285 CURVE",
"10 276 OFFCURVE",
"16 253 OFFCURVE",
"21 235 CURVE SMOOTH",
"36 182 OFFCURVE",
"42 124 OFFCURVE",
"51 69 CURVE SMOOTH",
"54 50 OFFCURVE",
"58 18 OFFCURVE",
"69 3 CURVE SMOOTH",
"85 -21 OFFCURVE",
"105 16 OFFCURVE",
"103 34 CURVE SMOOTH",
"95 114 OFFCURVE",
"98 188 OFFCURVE",
"125 263 CURVE SMOOTH",
"134 290 OFFCURVE",
"186 396 OFFCURVE",
"228 394 CURVE SMOOTH",
"249 392 OFFCURVE",
"244 364 OFFCURVE",
"243 350 CURVE SMOOTH",
"239 299 OFFCURVE",
"172 20 OFFCURVE",
"227 -10 CURVE SMOOTH",
"254 -24 OFFCURVE",
"281 17 OFFCURVE",
"278 40 CURVE"
);
}
);
};
layerId = "197ECFA8-A16D-41AC-99D0-22A54F6A6421";
paths = (
{
closed = 1;
nodes = (
"261 -13 OFFCURVE",
"281 20 OFFCURVE",
"278 40 CURVE",
"278 50 OFFCURVE",
"260 10 OFFCURVE",
"241 10 CURVE SMOOTH",
"227 10 OFFCURVE",
"222 29 OFFCURVE",
"222 54 CURVE SMOOTH",
"222 97 OFFCURVE",
"235 161 OFFCURVE",
"245 190 CURVE SMOOTH",
"253 212 OFFCURVE",
"292 299 OFFCURVE",
"292 357 CURVE SMOOTH",
"292 393 OFFCURVE",
"276 413 OFFCURVE",
"244 413 CURVE SMOOTH",
"156 413 OFFCURVE",
"112 278 OFFCURVE",
"94 214 CURVE SMOOTH",
"89 194 OFFCURVE",
"85 174 OFFCURVE",
"81 150 CURVE",
"74 173 OFFCURVE",
"63 215 OFFCURVE",
"47 248 CURVE SMOOTH",
"34 274 OFFCURVE",
"17 292 OFFCURVE",
"1 292 CURVE SMOOTH",
"-5 292 OFFCURVE",
"-10 291 OFFCURVE",
"-10 288 CURVE SMOOTH",
"-10 285 OFFCURVE",
"-3 282 OFFCURVE",
"0 279 CURVE SMOOTH",
"12 268 OFFCURVE",
"17 250 OFFCURVE",
"21 235 CURVE SMOOTH",
"36 182 OFFCURVE",
"42 124 OFFCURVE",
"51 69 CURVE SMOOTH",
"53 56 OFFCURVE",
"56 36 OFFCURVE",
"61 20 CURVE SMOOTH",
"64 10 OFFCURVE",
"71 -5 OFFCURVE",
"80 -5 CURVE SMOOTH",
"93 -5 OFFCURVE",
"105 20 OFFCURVE",
"103 34 CURVE SMOOTH",
"101 59 OFFCURVE",
"99 83 OFFCURVE",
"99 106 CURVE SMOOTH",
"99 160 OFFCURVE",
"106 211 OFFCURVE",
"125 263 CURVE SMOOTH",
"134 290 OFFCURVE",
"185 394 OFFCURVE",
"227 394 CURVE SMOOTH",
"240 394 OFFCURVE",
"244 385 OFFCURVE",
"244 366 CURVE SMOOTH",
"244 323 OFFCURVE",
"205 165 OFFCURVE",
"205 67 CURVE SMOOTH",
"205 4 OFFCURVE",
"221 -13 OFFCURVE",
"238 -13 CURVE SMOOTH"
);
}
);
width = 286;
}
);
note = n;
unicode = 006E;
},
{
glyphname = eng;
lastChange = "2021-11-18 16:34:37 +0000";
layers = (
{
background = {
paths = (
{
closed = 1;
nodes = (
"285 321 OFFCURVE",
"334 423 OFFCURVE",
"233 412 CURVE SMOOTH",
"152 403 OFFCURVE",
"111 275 OFFCURVE",
"94 214 CURVE SMOOTH",
"89 194 OFFCURVE",
"85 174 OFFCURVE",
"81 150 CURVE",
"70 188 OFFCURVE",
"47 280 OFFCURVE",
"7 291 CURVE",
"3 293 OFFCURVE",
"-15 292 OFFCURVE",
"-9 285 CURVE",
"10 276 OFFCURVE",
"16 253 OFFCURVE",
"21 235 CURVE SMOOTH",
"36 182 OFFCURVE",
"42 124 OFFCURVE",
"51 69 CURVE SMOOTH",
"54 50 OFFCURVE",
"58 18 OFFCURVE",
"69 3 CURVE SMOOTH",
"85 -21 OFFCURVE",
"105 16 OFFCURVE",
"103 34 CURVE SMOOTH",
"95 114 OFFCURVE",
"98 188 OFFCURVE",
"125 263 CURVE SMOOTH",
"134 290 OFFCURVE",
"186 396 OFFCURVE",
"228 394 CURVE SMOOTH",
"249 392 OFFCURVE",
"244 364 OFFCURVE",
"243 350 CURVE SMOOTH",
"235 211 OFFCURVE",
"226 19 OFFCURVE",
"178 -134 CURVE SMOOTH",
"156 -205 OFFCURVE",
"100 -263 OFFCURVE",
"23 -301 CURVE SMOOTH",
"-39 -330 OFFCURVE",
"-87 -324 OFFCURVE",
"-101 -306 CURVE SMOOTH",
"-113 -289 OFFCURVE",
"-108 -258 OFFCURVE",
"-78 -226 CURVE SMOOTH",
"-22 -162 OFFCURVE",
"22 -130 OFFCURVE",
"102 -109 CURVE SMOOTH",
"117 -105 OFFCURVE",
"121 -94 OFFCURVE",
"105 -98 CURVE SMOOTH",
"77 -106 OFFCURVE",
"52 -112 OFFCURVE",
"28 -121 CURVE SMOOTH",
"-135 -184 OFFCURVE",
"-157 -269 OFFCURVE",
"-117 -313 CURVE SMOOTH",
"-61 -374 OFFCURVE",
"146 -375 OFFCURVE",
"202 -143 CURVE SMOOTH",
"237 3 OFFCURVE",
"258 156 OFFCURVE",
"268 218 CURVE SMOOTH"
);
}
);
};
layerId = "197ECFA8-A16D-41AC-99D0-22A54F6A6421";
paths = (
{
closed = 1;
nodes = (
"63 -348 OFFCURVE",
"165 -296 OFFCURVE",
"202 -143 CURVE SMOOTH",
"237 3 OFFCURVE",
"258 156 OFFCURVE",
"268 218 CURVE SMOOTH",
"277 273 OFFCURVE",
"295 327 OFFCURVE",
"295 364 CURVE SMOOTH",
"295 394 OFFCURVE",
"283 413 OFFCURVE",
"247 413 CURVE SMOOTH",
"243 413 OFFCURVE",
"238 413 OFFCURVE",
"233 412 CURVE SMOOTH",
"152 403 OFFCURVE",
"111 275 OFFCURVE",
"94 214 CURVE SMOOTH",
"89 194 OFFCURVE",
"85 174 OFFCURVE",
"81 150 CURVE",
"70 188 OFFCURVE",
"47 280 OFFCURVE",
"7 291 CURVE",
"4 293 OFFCURVE",
"-10 292 OFFCURVE",
"-10 288 CURVE SMOOTH",
"-10 287 OFFCURVE",
"-10 286 OFFCURVE",
"-9 285 CURVE",
"10 276 OFFCURVE",
"16 253 OFFCURVE",
"21 235 CURVE SMOOTH",
"36 182 OFFCURVE",
"42 124 OFFCURVE",
"51 69 CURVE SMOOTH",
"54 50 OFFCURVE",
"58 18 OFFCURVE",
"69 3 CURVE SMOOTH",
"73 -3 OFFCURVE",
"77 -5 OFFCURVE",
"80 -5 CURVE SMOOTH",
"93 -5 OFFCURVE",
"105 20 OFFCURVE",
"103 34 CURVE SMOOTH",
"101 59 OFFCURVE",
"99 83 OFFCURVE",
"99 106 CURVE SMOOTH",
"99 160 OFFCURVE",
"106 211 OFFCURVE",
"125 263 CURVE SMOOTH",
"134 290 OFFCURVE",
"185 394 OFFCURVE",
"227 394 CURVE SMOOTH",
"241 394 OFFCURVE",
"244 381 OFFCURVE",
"244 369 CURVE SMOOTH",
"244 362 OFFCURVE",
"243 355 OFFCURVE",
"243 350 CURVE SMOOTH",
"235 211 OFFCURVE",
"226 19 OFFCURVE",
"178 -134 CURVE SMOOTH",
"156 -205 OFFCURVE",
"100 -263 OFFCURVE",
"23 -301 CURVE SMOOTH",
"-8 -315 OFFCURVE",
"-35 -321 OFFCURVE",
"-56 -321 CURVE SMOOTH",
"-78 -321 OFFCURVE",
"-94 -315 OFFCURVE",
"-101 -306 CURVE SMOOTH",
"-105 -300 OFFCURVE",
"-107 -293 OFFCURVE",
"-107 -285 CURVE SMOOTH",
"-107 -269 OFFCURVE",
"-98 -248 OFFCURVE",
"-78 -226 CURVE SMOOTH",
"-22 -162 OFFCURVE",
"22 -130 OFFCURVE",
"102 -109 CURVE SMOOTH",
"110 -107 OFFCURVE",
"116 -103 OFFCURVE",
"116 -100 CURVE SMOOTH",
"116 -98 OFFCURVE",
"114 -97 OFFCURVE",
"111 -97 CURVE SMOOTH",
"109 -97 OFFCURVE",
"107 -97 OFFCURVE",
"105 -98 CURVE",
"77 -106 OFFCURVE",
"52 -112 OFFCURVE",
"28 -121 CURVE SMOOTH",
"-90 -167 OFFCURVE",
"-134 -224 OFFCURVE",
"-134 -269 CURVE SMOOTH",
"-134 -286 OFFCURVE",
"-128 -301 OFFCURVE",
"-117 -313 CURVE SMOOTH",
"-98 -334 OFFCURVE",
"-61 -348 OFFCURVE",
"-19 -348 CURVE SMOOTH"
);
}
);
width = 285;
}
);
note = eng;
unicode = 014B;
},
